<?xml version="1.0" encoding="UTF-8" standalone="no"?>
<svg
   xmlns:dc="http://purl.org/dc/elements/1.1/"
   xmlns:cc="http://creativecommons.org/ns#"
   xmlns:rdf="http://www.w3.org/1999/02/22-rdf-syntax-ns#"
   xmlns:svg="http://www.w3.org/2000/svg"
   xmlns="http://www.w3.org/2000/svg"
   version="1.1"
   id="svg2"
   viewBox="0 0 450 500.00001"
   height="500"
   width="450">
  <defs
     id="defs4" />
  <metadata
     id="metadata7">
    <rdf:RDF>
      <cc:Work
         rdf:about="">
        <dc:format>image/svg+xml</dc:format>
        <dc:type
           rdf:resource="http://purl.org/dc/dcmitype/StillImage" />
        <dc:title></dc:title>
      </cc:Work>
    </rdf:RDF>
  </metadata>
  <g
     transform="translate(0,-552.36216)"
     id="layer1">
    <g
       transform="translate(1154.0086,456.30696)"
       id="g4290">
      <g
         id="g4159">
        <path
           id="path4225"
           d="m -911.20477,448.67535 c -0.99,-0.10625 -5.4957,-0.24357 -10.0125,-0.30515 -9.6113,-0.13106 -10.6897,-0.19064 -12.4875,-0.68998 -1.5133,-0.42033 -1.7429,-0.43848 -4.275,-0.33784 -1.0755,0.0427 -2.5699,-0.0811 -3.7125,-0.30776 -1.0519,-0.20859 -3.2943,-0.45425 -4.983,-0.54591 -2.0205,-0.10967 -3.195,-0.26998 -3.4346,-0.46879 -0.2002,-0.16616 -1.0966,-0.35235 -1.992,-0.41375 -0.8954,-0.0614 -1.9013,-0.25027 -2.2355,-0.41972 -0.3342,-0.16945 -0.961,-0.30809 -1.393,-0.30809 -0.432,0 -0.843,-0.0933 -0.9135,-0.20734 -0.07,-0.11405 -0.8105,-0.27207 -1.6446,-0.35116 -1.7718,-0.16805 -5.4471,-0.94304 -6.4469,-1.35945 -0.3819,-0.15907 -1.2007,-0.36022 -1.8194,-0.44698 -0.6188,-0.0868 -1.6313,-0.39296 -2.25,-0.68042 -0.6188,-0.28746 -1.8844,-0.74163 -2.8125,-1.00922 -0.9282,-0.26761 -2.7507,-0.83495 -4.05,-1.26079 -1.2994,-0.42581 -2.97,-0.93552 -3.7125,-1.13267 -0.7425,-0.19714 -2.16,-0.64429 -3.15,-0.99362 -0.99,-0.34934 -2.1038,-0.70461 -2.475,-0.78948 -0.3713,-0.0849 -0.8409,-0.29799 -1.0435,-0.4736 -0.4996,-0.4329 -2.548,-1.19527 -3.2115,-1.19527 -0.2958,0 -1.3831,-0.38858 -2.4164,-0.86353 -1.0332,-0.47493 -2.3849,-1.03342 -3.0036,-1.2411 -0.6188,-0.20765 -1.53,-0.62129 -2.025,-0.91919 -1.3717,-0.82544 -5.08233,-2.60118 -5.43553,-2.60118 -0.1721,0 -0.9433,-0.39053 -1.7137,-0.86783 -0.7704,-0.47731 -2.4638,-1.44168 -3.7632,-2.14305 -1.2994,-0.70137 -3.0713,-1.72404 -3.9375,-2.27262 -0.8662,-0.54855 -1.66,-1.00167 -1.7638,-1.00694 -0.2519,-0.0128 -7.3076,-4.66821 -8.0237,-5.29423 -0.3094,-0.27042 -1.0576,-0.78671 -1.6628,-1.14727 -0.6051,-0.36056 -1.4657,-0.88513 -1.9125,-1.1657 -0.4467,-0.28058 -1.056,-0.61324 -1.3541,-0.73924 -0.298,-0.126 -0.883,-0.52862 -1.3,-0.89471 -0.417,-0.3661 -1.1469,-0.864 -1.6221,-1.10644 -0.4753,-0.24244 -1.409,-0.93641 -2.075,-1.54215 -0.6661,-0.60575 -1.4641,-1.23361 -1.7735,-1.39527 -0.7742,-0.40455 -4.5053,-3.17914 -5.3353,-3.96754 -0.3731,-0.35449 -0.9707,-0.8188 -1.3278,-1.03183 -1.7747,-1.05844 -2.4589,-1.57189 -3.7994,-2.85129 -0.6188,-0.59053 -1.9856,-1.81608 -3.0375,-2.72344 -3.2116,-2.77031 -9.45,-8.86829 -9.45,-9.23724 0,-0.11223 -0.3797,-0.40118 -0.8438,-0.64206 -1.0665,-0.55366 -1.6641,-1.13063 -4.4437,-4.28992 -1.2375,-1.40659 -2.6396,-2.97058 -3.1158,-3.47557 -0.4762,-0.50499 -1.004,-1.18434 -1.1729,-1.50964 -0.1689,-0.32533 -0.4662,-0.6525 -0.6605,-0.72709 -0.1944,-0.0746 -0.6467,-0.78937 -1.0052,-1.58841 -0.4906,-1.09348 -0.8366,-1.5475 -1.3987,-1.83566 -1.03,-0.52799 -2.2152,-1.96477 -2.7926,-3.38526 -0.266,-0.65464 -0.9018,-1.68959 -1.4128,-2.29991 -0.5109,-0.61031 -0.929,-1.27782 -0.929,-1.48333 0,-0.53962 -0.5457,-1.50802 -1.1875,-2.10746 -0.3054,-0.28524 -0.7285,-0.94336 -0.9401,-1.4625 -0.2117,-0.51915 -0.5235,-1.19703 -0.693,-1.5064 -1.1622,-2.12162 -1.4839,-2.77796 -1.784,-3.63971 -0.1864,-0.53503 -0.3403,-1.1768 -0.3421,-1.42612 0,-0.24935 -0.2238,-0.85685 -0.4934,-1.35 -0.5218,-0.9547 -0.8654,-2.48735 -0.9391,-4.18793 -0.025,-0.57269 -0.1557,-1.18019 -0.291,-1.35 -0.1352,-0.1698 -0.4679,-1.06812 -0.7393,-1.99624 -0.2714,-0.92813 -0.5884,-1.92008 -0.7045,-2.20435 -0.116,-0.28424 -0.211,-0.86069 -0.211,-1.28097 0,-0.52315 -0.1502,-0.86938 -0.4763,-1.09775 -0.3924,-0.27484 -0.5106,-0.6833 -0.6715,-2.31901 -0.1797,-1.82772 -0.8674,-5.34683 -1.3508,-6.91274 -0.1108,-0.35879 -0.2014,-1.04724 -0.2014,-1.52993 0,-0.48267 -0.1381,-1.15101 -0.307,-1.48518 -0.21,-0.41574 -0.3238,-1.67317 -0.3603,-3.98257 -0.029,-1.85625 -0.091,-4.3875 -0.1369,-5.625 -0.046,-1.2375 -0.1183,-3.465 -0.1606,-4.95 -0.042,-1.485 -0.1551,-3.6124 -0.2507,-4.72757 -0.1187,-1.38476 -0.084,-2.49039 0.1104,-3.4875 0.1562,-0.80295 0.2595,-2.17849 0.2295,-3.05673 -0.03,-0.88304 0.098,-2.19051 0.2866,-2.925 0.1877,-0.73051 0.3834,-1.9922 0.4349,-2.80373 0.052,-0.81153 0.2067,-1.82403 0.3447,-2.25 0.138,-0.42597 0.506,-1.55086 0.8177,-2.49977 0.3117,-0.94892 0.5667,-2.23184 0.5667,-2.85098 0,-1.34851 0.7004,-4.42157 1.5723,-6.89872 0.9915,-2.81695 1.0744,-3.0662 1.4968,-4.5 0.2187,-0.7425 0.6178,-1.60313 0.8868,-1.9125 0.8227,-0.94609 0.9941,-1.48302 0.9941,-3.11359 0,-1.35465 0.1005,-1.74729 0.7378,-2.88355 0.8864,-1.58042 2.1872,-4.64855 2.1872,-5.159 0,-0.20152 0.2457,-0.65841 0.546,-1.01531 0.3688,-0.43828 0.5978,-1.0696 0.7054,-1.94498 0.088,-0.71284 0.2976,-1.49579 0.4665,-1.73989 0.1689,-0.24409 0.3071,-0.60809 0.3071,-0.80887 0,-0.20079 0.2035,-0.54924 0.4522,-0.77434 0.2488,-0.2251 0.5929,-0.87361 0.7647,-1.44112 0.3366,-1.1118 0.5978,-1.63788 1.5361,-3.09441 0.3322,-0.51565 0.6686,-1.19494 0.7476,-1.50952 0.079,-0.31458 0.2855,-0.68976 0.459,-0.83374 0.1735,-0.14398 0.3154,-0.35083 0.3154,-0.45966 0,-0.22594 2.454,-4.5794 3.3452,-5.93452 0.3255,-0.495 0.8704,-1.16843 1.2108,-1.49652 0.3405,-0.32809 0.619,-0.73979 0.619,-0.91489 0,-0.1751 0.6328,-1.03415 1.4062,-1.909 0.7735,-0.87485 1.7486,-2.15959 2.167,-2.85497 0.4184,-0.69539 1.1064,-1.54228 1.529,-1.88198 0.4226,-0.3397 1.0061,-1.07408 1.2968,-1.63195 0.2906,-0.55787 1.1681,-1.57037 1.9499,-2.25 1.2186,-1.05929 5.5638,-5.22701 6.3529,-6.09336 2.7634,-3.03407 7.7916,-8.01164 9.9803,-9.87983 1.0874,-0.92813 2.8384,-2.50574 3.8912,-3.50581 1.0528,-1.00007 2.6736,-2.4476 3.6017,-3.21674 1.5258,-1.26444 4.3424,-3.79878 6.532,-5.87745 0.4562,-0.43313 1.3753,-1.16866 2.0425,-1.63451 3.0351,-2.11932 4.8825,-3.34386 5.713,-3.78687 0.495,-0.26402 1.4896,-0.98812 2.2102,-1.60909 1.2742,-1.09802 5.4678,-3.99453 5.7833,-3.99453 0.087,0 1.2363,-0.83531 2.5552,-1.85625 3.0773,-2.38211 5.014,-3.80175 5.7137,-4.18808 0.3056,-0.16876 0.6047,-0.49463 0.6647,-0.72416 0.06,-0.22954 0.57906,-0.68957 1.15343,-1.02231 0.5744,-0.33274 1.3611,-0.86749 1.7482,-1.18834 1.1528,-0.95549 3.1883,-2.28338 4.7792,-3.11776 0.8206,-0.43039 1.6945,-0.96184 1.942,-1.18102 0.2475,-0.21917 0.7784,-0.46797 1.1799,-0.55287 0.4014,-0.0849 0.8064,-0.27945 0.9,-0.43232 0.093,-0.15287 0.8282,-0.65831 1.6326,-1.1232 1.9484,-1.12614 1.3578,-0.75557 5.0625,-3.17644 4.1617,-2.7196 4.6754,-3.03725 4.9114,-3.03725 0.2963,0 3.9445,-1.74704 4.4261,-2.11953 0.1856,-0.14358 0.9956,-0.55058 1.8,-0.90444 0.8043,-0.35386 2.1774,-0.97634 3.0513,-1.38328 0.8738,-0.40695 2.0845,-0.86473 2.6904,-1.0173 0.6059,-0.15256 1.4427,-0.50881 1.8595,-0.79166 0.8616,-0.58469 1.1008,-0.66529 2.5635,-0.86369 0.5788,-0.0785 1.3888,-0.3867 1.8,-0.68488 1.2805,-0.92845 2.2682,-1.39729 4.013,-1.90494 0.9266,-0.26961 1.8873,-0.58455 2.1348,-0.69988 0.2475,-0.11533 1.3106,-0.40063 2.3625,-0.634 1.6984,-0.37682 4.6024,-1.42209 5.6736,-2.04219 0.2124,-0.12294 0.7693,-0.31801 1.2375,-0.4335 0.4683,-0.11548 1.5601,-0.469 2.4264,-0.78559 0.8662,-0.3166 1.7189,-0.57777 1.8947,-0.58038 0.1759,-0.003 0.4991,-0.16695 0.7182,-0.36522 0.219,-0.19826 0.9864,-0.43844 1.7052,-0.53374 1.7375,-0.23035 4.2367,-0.8652 5.3887,-1.36884 0.5126,-0.22407 1.2984,-0.47615 1.7463,-0.56018 0.4479,-0.084 0.8644,-0.23374 0.9255,-0.33269 0.061,-0.099 0.541,-0.24405 1.0663,-0.32242 2.3646,-0.35284 6.6601,-1.38068 8.0499,-1.92621 0.5609,-0.22017 1.9278,-0.51369 3.0375,-0.65225 1.1097,-0.13857 3.4352,-0.55769 5.1677,-0.93138 1.7325,-0.37369 4.2637,-0.81887 5.625,-0.98928 2.4848,-0.31107 5.329,-0.7488 8.8875,-1.36782 1.0518,-0.18299 3.0455,-0.33203 4.4304,-0.3312 1.3849,9e-4 2.5713,-0.0848 2.6365,-0.19023 0.2095,-0.33907 9.149,-0.76886 17.2331,-0.82852 6.3816,-0.0471 10.7052,0.20073 13.05,0.74804 1.0518,0.24552 2.8237,0.56074 3.9375,0.7005 1.1137,0.13975 2.4806,0.35688 3.0375,0.48251 0.5568,0.12563 1.8731,0.31564 2.925,0.42224 1.0518,0.1066 2.4693,0.35532 3.15,0.55271 0.6806,0.19739 1.6628,0.3601 2.1827,0.36157 0.8717,0.002 3.19,0.49522 3.6409,0.77387 0.1063,0.0657 0.824,0.16724 1.5949,0.22568 0.7709,0.0584 1.7829,0.30496 2.2489,0.54782 0.937,0.48844 4.8403,1.3803 6.0409,1.3803 0.4214,0 1.3372,0.29998 2.0352,0.66661 1.1165,0.58652 5.7556,2.1308 8.2113,2.73342 0.4771,0.11707 1.1833,0.3762 1.5694,0.57585 0.3861,0.19965 1.6157,0.596 2.7326,0.88077 2.0586,0.52489 5.1135,1.52038 5.7591,1.87671 0.9538,0.52644 5.3105,2.04443 5.8628,2.04275 0.2014,-6.7e-4 0.4834,0.1401 0.6266,0.31269 0.1432,0.1726 0.5859,0.36632 0.9838,0.4305 1.0762,0.17361 3.2326,1.00066 4.1979,1.61002 0.4672,0.29493 1.2434,0.64381 1.725,0.77528 0.4815,0.13148 1.7337,0.75684 2.7826,1.38969 1.049,0.63284 2.4665,1.43568 3.15,1.78407 0.6836,0.34839 1.7488,0.99641 2.3671,1.44004 0.6184,0.44363 1.2428,0.8066 1.3876,0.8066 0.1448,0 1.0906,0.77824 2.1017,1.72943 1.6807,1.5811 1.8279,1.78854 1.7156,2.41875 -0.068,0.37912 -0.2095,1.19557 -0.3154,1.81432 -0.1058,0.61875 -0.3496,1.42875 -0.5418,1.8 -0.1921,0.37125 -0.4195,1.06233 -0.5052,1.53573 -0.086,0.4734 -0.3655,1.23277 -0.6215,1.6875 -0.256,0.45472 -0.6073,1.22745 -0.7806,1.71716 -0.1733,0.48972 -0.6159,1.35921 -0.9836,1.9322 -0.3677,0.57299 -0.6685,1.21123 -0.6685,1.41831 0,0.35269 -0.1601,0.74736 -1.476,3.6398 -0.2829,0.62189 -0.7295,1.32533 -0.9923,1.56321 -0.2629,0.23787 -0.6902,0.81016 -0.9496,1.27175 -0.2594,0.46159 -0.7024,0.89717 -0.9844,0.96795 -0.3456,0.0867 -0.5995,0.40375 -0.7788,0.97254 -0.1463,0.46412 -0.5085,1.22137 -0.8049,1.68278 -0.2965,0.4614 -0.539,0.99731 -0.539,1.19088 0,0.19359 -0.4423,0.82857 -0.9829,1.41108 -0.5406,0.58251 -1.1512,1.36286 -1.3569,1.73411 -0.2056,0.37125 -0.548,0.93167 -0.7608,1.24539 -0.2128,0.31372 -0.5894,0.90596 -0.8369,1.31611 -1.4322,2.37323 -1.6361,2.60348 -6.5719,7.41938 -0.5529,0.53948 -1.5353,1.29886 -2.1832,1.6875 -0.6478,0.38864 -1.5078,0.90912 -1.911,1.15662 -1.1915,0.73128 -4.3128,3.21721 -6.9943,5.57046 -2.6191,2.29843 -3.6396,2.95205 -5.0108,3.20929 -0.4539,0.0851 -0.9434,0.29715 -1.0878,0.4711 -0.2876,0.34653 -3.2172,2.33665 -3.4397,2.33665 -0.2189,0 -2.8388,2.07989 -2.8388,2.25363 0,0.086 -0.7847,0.54486 -1.7438,1.0196 -0.959,0.47475 -1.9827,1.01454 -2.2747,1.19953 -0.292,0.185 -1.3096,0.65508 -2.2612,1.04463 -0.9517,0.38955 -2.3834,1.0932 -3.1816,1.56366 -0.7981,0.47046 -1.8056,1.05482 -2.2387,1.29856 -0.4332,0.24375 -1.2096,0.78679 -1.7254,1.20678 -0.5158,0.41998 -1.0004,0.76361 -1.0768,0.76361 -0.1505,0 -4.1519,2.34744 -6.8728,4.03202 -0.9282,0.57462 -2.9611,1.66702 -4.5177,2.42755 -1.5565,0.76053 -3.304,1.74451 -3.8832,2.18661 -0.5792,0.4421 -1.118,0.80382 -1.1974,0.80382 -0.1495,0 -2.1849,0.91053 -3.3012,1.47686 -0.3504,0.17773 -0.8442,0.32314 -1.0974,0.32314 -0.6255,0 -3.2373,1.28178 -4.3312,2.12557 -1.2542,0.96746 -1.8646,1.24943 -2.7048,1.24943 -0.4023,0 -0.9889,0.2025 -1.3035,0.45 -0.3147,0.2475 -0.7119,0.45 -0.8828,0.45 -0.1709,0 -0.7079,0.2025 -1.1933,0.45 -0.4855,0.2475 -1.1931,0.45 -1.5725,0.45 -0.3795,0 -0.8983,0.14597 -1.153,0.32437 -0.6444,0.45137 -2.8011,1.25038 -3.3754,1.25052 -0.2618,6e-5 -0.7334,0.20261 -1.048,0.45011 -0.3147,0.2475 -0.7683,0.45 -1.008,0.45 -0.2397,0 -0.6191,0.2025 -0.8431,0.45 -0.224,0.2475 -0.6048,0.45 -0.8462,0.45 -0.557,0 -3.0255,0.6129 -3.7663,0.93515 -0.3094,0.13457 -0.8157,0.37115 -1.125,0.52574 -0.3094,0.15459 -0.9675,0.40858 -1.4625,0.56442 -0.495,0.15583 -1.0013,0.36098 -1.125,0.45588 -0.2874,0.22037 -3.5472,1.34381 -3.8993,1.34381 -0.146,0 -0.7965,0.26142 -1.4456,0.58094 -1.3231,0.65129 -4.4992,1.66861 -5.2135,1.6699 -0.2567,4.5e-4 -0.7982,0.20296 -1.2033,0.45 -0.4052,0.24704 -0.8758,0.44916 -1.0457,0.44916 -0.1699,0 -0.9015,0.29399 -1.6258,0.65332 -1.3536,0.67159 -3.4145,1.32967 -4.8043,1.53415 -0.4332,0.0637 -0.9003,0.20608 -1.0382,0.31634 -0.2506,0.2005 -2.0322,0.79387 -4.3618,1.45276 -0.6807,0.1925 -1.9969,0.60988 -2.925,0.92752 -0.9282,0.31763 -2.3457,0.75845 -3.15,0.97959 -0.8044,0.22114 -2.6775,0.80573 -4.1625,1.2991 -2.4971,0.8296 -3.4034,1.09312 -5.5125,1.60279 -0.7811,0.18874 -1.8428,0.54074 -2.925,0.96972 -0.3094,0.12264 -0.8663,0.30375 -1.2375,0.40247 -0.3713,0.0987 -2.1432,0.70565 -3.9375,1.34873 -1.7944,0.64307 -4.1615,1.36334 -5.2603,1.60059 -1.0988,0.23725 -2.2834,0.57909 -2.6326,0.75964 -0.3491,0.18056 -0.8852,0.32828 -1.1913,0.32828 -0.5425,0 -2.1534,0.29163 -3.7408,0.67725 -0.4332,0.10521 -1.6988,0.35916 -2.8125,0.56433 -1.1138,0.20517 -2.3288,0.47469 -2.7,0.59892 -0.3713,0.12424 -1.3332,0.31389 -2.1375,0.42146 -0.8044,0.10756 -2.1323,0.28924 -2.9509,0.40372 -1.4707,0.20569 -4.0123,0.93512 -8.4333,2.4203 -1.2493,0.41972 -2.7681,0.82845 -3.375,0.90829 -0.6068,0.0798 -1.56,0.37317 -2.1181,0.65185 -0.5581,0.27869 -1.8216,0.62902 -2.8079,0.77852 -0.9862,0.1495 -2.8077,0.57691 -4.0477,0.9498 -1.2401,0.37289 -2.8115,0.75433 -3.4921,0.84765 -1.2567,0.1723 -2.0835,0.43139 -3.7273,1.16799 -0.5032,0.22546 -1.3182,0.40992 -1.8113,0.40992 -0.493,0 -1.0022,0.10573 -1.1314,0.23497 -0.2232,0.22317 -1.6144,0.45949 -5.1425,0.87349 -0.86613,0.10163 -1.97993,0.34499 -2.47493,0.54079 -0.495,0.19579 -1.3595,0.36045 -1.9212,0.36587 -0.5634,0.005 -1.4207,0.21407 -1.9125,0.46541 -1.2393,0.6334 -2.3116,0.89366 -4.1933,1.01781 -1.1783,0.0778 -1.8764,0.25866 -2.5726,0.6667 -0.5255,0.30798 -1.2246,0.55996 -1.5535,0.55996 -0.5481,0 -1.6937,0.24799 -4.7219,1.02229 -0.6187,0.15819 -1.7563,0.44853 -2.5279,0.64516 -0.7715,0.19665 -1.7493,0.35755 -2.1727,0.35755 -0.4235,0 -1.447,0.30375 -2.2744,0.675 -0.8274,0.37125 -1.6385,0.675 -1.8023,0.675 -0.5785,0 -2.3716,0.89289 -2.5082,1.249 -0.2494,0.64986 0.4779,1.08072 1.7696,1.04841 0.655,-0.0164 1.514,0.0856 1.9089,0.22677 0.5536,0.19787 0.9211,0.18957 1.6053,-0.0362 0.7303,-0.24104 1.0921,-0.24035 2.0448,0.004 0.9486,0.24312 1.5727,0.24516 3.4572,0.0113 2.6588,-0.32989 11.6139,-0.32643 12.0136,0.005 0.1452,0.12024 1.1305,0.26687 2.1896,0.32589 1.4574,0.0812 2.088,0.0233 2.5936,-0.23819 0.8105,-0.4191 3.18383,-0.46165 3.58213,-0.0642 0.2066,0.20623 1.6141,0.28901 5.2762,0.31039 2.747,0.016 6.0576,0.0809 7.357,0.14418 1.2993,0.0633 4.8431,0.12692 7.875,0.14141 5.3095,0.0254 8.6313,0.22905 11.25,0.68971 0.6806,0.11975 2.4018,0.3828 3.825,0.58458 1.4231,0.20178 3.0937,0.56056 3.7125,0.79728 0.8204,0.3139 1.6254,0.42062 2.9734,0.39427 1.0166,-0.0198 1.9785,0.0665 2.1375,0.19199 0.159,0.12549 0.9102,0.28989 1.6693,0.36538 0.7591,0.0755 1.8547,0.29833 2.4347,0.49525 0.5822,0.19764 1.3308,0.29736 1.6712,0.22261 1.2158,-0.26705 5.3497,-0.16377 7.2264,0.18052 1.0518,0.19298 2.9233,0.46744 4.1587,0.60991 1.2355,0.14247 2.5214,0.40129 2.8576,0.57514 0.3362,0.17388 1.0901,0.31613 1.6754,0.31613 1.1312,0 3.7832,0.7722 4.376,1.2742 0.4239,0.35901 1.1511,0.39199 1.4761,0.067 0.2418,-0.24185 0.2483,-0.24077 4.0187,0.67097 0.99,0.23942 2.61,0.50515 3.6,0.59054 1.0761,0.0928 1.9554,0.2907 2.1864,0.49207 0.2126,0.18527 1.0226,0.40957 1.8,0.49847 0.7775,0.0889 1.7173,0.32865 2.0886,0.5328 0.3712,0.20416 0.9281,0.37183 1.2376,0.37257 0.7434,0.002 3.2302,0.54518 4.4999,0.98316 0.5568,0.19211 1.7718,0.51663 2.7,0.72117 0.9281,0.20455 1.8059,0.46762 1.9507,0.58458 0.1448,0.11697 1.2373,0.31232 2.4279,0.43413 2.0368,0.20838 2.6876,0.36772 3.4964,0.85606 0.4152,0.25074 1.6734,0.57213 3.6,0.9196 0.8043,0.14506 2.07,0.49916 2.8125,0.78687 0.7425,0.28768 1.8302,0.58943 2.4171,0.6705 2.3077,0.3188 8.9753,1.92643 9.8585,2.37703 0.514,0.26224 1.6073,0.6285 2.4295,0.81392 0.8222,0.18542 1.8999,0.43573 2.3949,0.55627 0.495,0.12053 1.4062,0.32413 2.025,0.45245 0.6187,0.12832 1.2768,0.36326 1.4625,0.52207 0.1856,0.1588 0.7899,0.35757 1.3428,0.44167 0.5529,0.0841 1.5938,0.45196 2.313,0.81743 0.7192,0.36546 1.4874,0.66449 1.7072,0.66449 0.2197,0 0.7426,0.25312 1.162,0.5625 0.4193,0.30937 0.8626,0.5625 0.9852,0.5625 0.3296,0 2.1419,0.90603 2.2893,1.14446 0.07,0.11304 0.5564,0.20554 1.0812,0.20554 0.5249,0 1.0559,0.10161 1.1801,0.22581 0.2762,0.27625 2.2657,0.79801 3.8399,1.00701 0.7054,0.0937 1.3169,0.32422 1.5536,0.58581 0.2147,0.23726 0.5519,0.43236 0.7493,0.43357 0.5309,0.003 2.7595,1.08297 3.321,1.60893 0.3277,0.30699 0.6409,0.40755 0.9569,0.30722 0.2953,-0.0937 0.601,-0.018 0.8227,0.20376 0.1941,0.19408 0.6747,0.35417 1.0681,0.35575 0.8561,0.003 3.2492,1.17065 3.6898,1.79975 0.1724,0.24606 0.5066,0.44739 0.7427,0.44739 0.2361,0 0.5377,0.2025 0.6702,0.45 0.1324,0.2475 0.4678,0.45 0.7453,0.45 0.2775,0 0.722,0.15235 0.9878,0.33853 0.2659,0.18619 1.1096,0.53343 1.875,0.77164 0.7654,0.23823 1.6082,0.62874 1.873,0.8678 0.2648,0.23909 0.8048,0.54275 1.2002,0.67485 0.8703,0.2907 4.4417,2.37775 5.2945,3.09397 0.3374,0.2833 0.9443,0.58777 1.3487,0.6766 0.4044,0.0888 1.1409,0.49072 1.6366,0.89311 0.4958,0.40239 1.6448,1.10365 2.5534,1.55835 0.9086,0.45473 2.0005,1.17516 2.4263,1.60095 0.4258,0.42581 0.9174,0.7742 1.0924,0.7742 0.175,0 1.0061,0.65812 1.8469,1.4625 0.8408,0.80437 1.6424,1.4625 1.7814,1.4625 0.139,0 0.5102,0.2025 0.8249,0.45 0.3146,0.2475 0.688,0.45 0.8297,0.45 0.1418,0 0.6302,0.25312 1.0855,0.5625 0.4553,0.30937 0.9815,0.5647 1.1693,0.5674 0.1879,0.003 0.8444,0.50907 1.459,1.12527 0.6146,0.61623 1.298,1.17772 1.5188,1.24779 0.2207,0.07 0.4013,0.20535 0.4013,0.30069 0,0.0953 0.545,0.44019 1.2111,0.76637 0.6661,0.32616 1.2689,0.74347 1.3394,0.92736 0.071,0.18387 0.6635,0.60554 1.3177,0.93703 1.2248,0.62062 3.6382,2.88394 3.8768,3.63555 0.074,0.23313 0.4626,0.60093 0.8635,0.81736 2.0017,1.08047 2.3452,1.31137 2.9746,1.99937 0.3737,0.4084 0.8514,1.00578 1.0616,1.32748 0.2103,0.32171 0.7418,0.80714 1.1813,1.07872 0.4394,0.2716 0.799,0.5942 0.799,0.71689 0,0.12272 1.0493,1.27884 2.3319,2.56919 1.2825,1.29035 2.6241,2.77639 2.9812,3.3023 0.3572,0.52594 0.9531,1.28183 1.3244,1.67976 0.3712,0.39794 0.8857,0.95481 1.1434,1.2375 0.2576,0.28269 0.7638,0.78084 1.125,1.10705 0.3611,0.32618 0.9603,1.01376 1.3316,1.52793 0.3712,0.51419 1.4498,1.70379 2.3969,2.64357 1.3064,1.29631 1.8485,2.02716 2.2461,3.02829 0.2883,0.72581 0.5838,1.31963 0.6566,1.31963 0.073,0 0.5808,0.4464 1.1289,0.992 1.6537,1.64624 3.359,4.20032 3.359,5.03091 0,0.21976 0.289,0.75168 0.6422,1.18208 0.7103,0.8654 1.3828,2.07651 1.3828,2.49019 0,0.14715 0.3037,0.7612 0.675,1.36456 0.9386,1.52545 0.9368,3.04607 -0.01,4.46526 -0.8626,1.29926 -1.6263,2.14407 -2.2309,2.46762 -0.264,0.14128 -0.5368,0.54128 -0.6063,0.88891 -0.1907,0.95348 -2.9469,3.2834 -5.3449,4.51818 -0.3574,0.18407 -1.2639,0.92628 -2.0145,1.64936 -0.7505,0.7231 -1.8756,1.57275 -2.5001,1.88809 -0.6245,0.31536 -1.5405,0.84964 -2.0355,1.18732 -0.495,0.33766 -1.3556,0.84251 -1.9125,1.12185 -0.5569,0.27936 -1.4175,0.82811 -1.9125,1.21943 -0.495,0.39135 -1.1531,0.84058 -1.4625,0.99833 -1.4147,0.72133 -5.1715,2.97439 -6.277,3.7645 -0.466,0.33304 -1.081,0.54771 -1.575,0.54972 -0.4458,0.002 -1.0294,0.12838 -1.2969,0.28125 -0.2676,0.15286 -1.2295,0.66746 -2.1375,1.14354 -0.9081,0.47607 -1.7473,0.95701 -1.8648,1.06875 -0.1176,0.11173 -0.4028,0.20315 -0.6338,0.20315 -0.231,0 -0.7519,0.25312 -1.1575,0.5625 -0.4056,0.30937 -0.8798,0.56396 -1.0537,0.56578 -0.4655,0.005 -2.1564,0.62096 -3.0968,1.12842 -0.4507,0.24321 -1.1739,0.59801 -1.607,0.78845 -1.146,0.50391 -2.5298,1.27237 -3.2815,1.8223 -0.8309,0.60792 -2.2487,1.26594 -4.256,1.97525 -4.8397,1.71025 -6.2427,2.27338 -7.8741,3.16044 -0.9905,0.5386 -2.5603,1.23678 -3.4884,1.55153 -3.5442,1.20188 -4.2518,1.46972 -4.7618,1.80241 -0.2891,0.18864 -1.0319,0.45508 -1.6507,0.59211 -0.6187,0.13702 -1.9856,0.58252 -3.0375,0.99002 -1.0519,0.40748 -2.8237,0.92135 -3.9375,1.14192 -1.1238,0.22257 -2.1477,0.55438 -2.3009,0.74561 -0.2956,0.36931 -3.0187,1.39826 -3.7003,1.39826 -0.2262,0 -0.6226,0.21136 -0.881,0.46971 -0.5621,0.56209 -1.7929,1.10531 -2.5043,1.10524 -0.2824,-2e-5 -1.121,0.19674 -1.8635,0.43727 -0.7425,0.24052 -2.0587,0.6012 -2.925,0.80154 -0.8662,0.20032 -1.98,0.45747 -2.475,0.57145 -1.176,0.27077 -5.3423,1.04913 -7.7625,1.45022 -1.8835,0.31214 -4.3142,0.78777 -6.3,1.2328 -0.5569,0.1248 -2.2133,0.28102 -3.681,0.34715 -1.4676,0.0661 -2.8583,0.22189 -3.0905,0.34612 -0.7852,0.42025 -5.61,0.83283 -7.6047,0.65034 -1.0388,-0.0951 -2.0006,-0.12994 -2.1375,-0.0775 -0.821,0.31453 -6.6277,0.65822 -8.7988,0.52079 -1.3612,-0.0862 -3.1837,-0.0694 -4.05,0.0372 -1.8921,0.23285 -4.3091,0.21663 -6.75,-0.0453 z"
           style="opacity:1;fill:#feea27;fill-opacity:1;stroke:none;stroke-opacity:1" />
        <path
           id="path4223"
           d="m -794.94557,506.46651 c -0.0741,-0.0741 -1.8882,-0.15822 -4.03126,-0.18689 -3.43075,-0.0459 -4.0182,-0.10905 -4.91481,-0.52845 -1.00302,-0.46917 -1.12932,-0.47316 -8.40642,-0.26539 -4.06348,0.11601 -7.45576,0.16913 -7.53845,0.11803 -0.0827,-0.0511 -1.81789,0.0374 -3.85605,0.19674 -4.15123,0.32448 -9.44244,0.16639 -10.31951,-0.30831 -0.41945,-0.22701 -1.59041,-0.25772 -5.2875,-0.13865 -5.07083,0.16328 -31.21727,0.14895 -33.09874,-0.0182 -1.57849,-0.1402 -10.56998,-0.26035 -33.75,-0.45095 -23.13187,-0.19019 -24.98468,-0.17797 -27.69235,0.18272 -3.23856,0.43144 -13.87948,0.34239 -18.65765,-0.15615 -4.76179,-0.49682 -5.99364,-0.50055 -11.76525,-0.0357 -3.79719,0.30584 -4.45529,0.30901 -5.25954,0.0252 -1.08441,-0.38259 -4.43284,-0.41424 -9.75021,-0.0922 -5.98908,0.36277 -21.91429,0.22127 -25.64999,-0.2279 -3.6082,-0.43385 -8.7057,-0.62262 -11.7,-0.43331 -2.6643,0.16846 -10.3177,0.24586 -14.5125,0.14679 -0.9281,-0.0218 -4.9114,0.0417 -8.8518,0.14126 -5.3161,0.13439 -7.3602,0.263 -7.924,0.49855 -0.9569,0.39983 -1.5349,0.40084 -2.3041,0.004 -0.4775,-0.2463 -0.8725,-0.26397 -1.8451,-0.0825 -1.5848,0.29574 -3.8265,0.45079 -6.525,0.45126 -1.1756,2e-4 -3.7575,0.002 -5.7375,0.002 -21.5151,0.0122 -24.5784,-0.0254 -25.875,-0.31687 l -1.35,-0.30341 -0.06,-5.72229 c -0.033,-3.14728 0.017,-5.79688 0.1125,-5.88801 0.4269,-0.40959 11.2906,-0.99821 16.9352,-0.91759 2.5528,0.0365 4.9434,0.0314 8.4375,-0.0178 1.98,-0.0279 4.8656,0.0792 6.4125,0.23796 1.5469,0.15876 4.1288,0.28114 5.7375,0.27194 12.7183,-0.0727 17.1218,-0.19256 20.1375,-0.54837 2.5388,-0.29957 5.1231,-0.38349 11.6503,-0.37838 4.6133,0.004 8.4715,0.0583 8.5739,0.12156 0.1914,0.11833 0.8526,0.2095 3.4197,0.47163 1.1931,0.12181 2.0249,0.0295 4.275,-0.47451 l 2.7936,-0.62572 8.5997,0.0304 c 8.77907,0.031 9.75123,0.11435 11.35136,0.97313 0.68577,0.36803 4.26846,0.30449 9.52393,-0.16893 4.51525,-0.40673 11.16487,-0.46413 12.7053,-0.10964 0.64097,0.14748 1.37486,0.15696 2.025,0.0261 3.50502,-0.70544 17.73681,-0.74439 22.8447,-0.0625 2.25084,0.30047 3.8229,0.33201 9.45,0.18972 16.51745,-0.41769 18.98267,-0.44768 20.475,-0.24923 0.86625,0.1152 2.53688,0.16582 3.7125,0.1125 3.93793,-0.17863 11.12132,-0.0691 12.7125,0.19393 1.75192,0.28953 10.09379,0.56317 15.975,0.52402 23.10408,-0.15379 33.80873,-0.15057 35.62547,0.0108 1.41277,0.12542 3.1992,0.10134 5.09953,-0.0688 1.60875,-0.14398 5.60812,-0.28269 8.8875,-0.3082 3.27938,-0.0255 8.49375,-0.0929 11.5875,-0.14967 4.02291,-0.0738 6.13766,-0.0191 7.425,0.1923 2.35355,0.38646 5.27816,0.37359 11.09684,-0.0488 3.58756,-0.26046 6.50525,-0.31037 11.90284,-0.20361 3.93269,0.0778 9.0943,0.15712 11.4703,0.17629 2.71291,0.0218 4.40923,0.12411 4.55994,0.27479 0.1613,0.16128 0.22032,2.26357 0.18002,6.4125 l -0.0599,6.17256 -3.7125,0.16131 c -2.04188,0.0887 -4.5225,0.26685 -5.5125,0.39586 -1.46279,0.19062 -5.06657,0.34049 -12.2625,0.50994 -0.30937,0.007 -1.79766,-0.0273 -3.30732,-0.0769 -1.99847,-0.0657 -2.82134,-0.0137 -3.02625,0.19107 -0.29578,0.29559 -0.92237,0.37533 -1.15119,0.14648 z m -101.07774,-28.66248 c -0.99,-0.0634 -1.93788,-0.20414 -2.10638,-0.31282 -0.16853,-0.10865 -1.01457,-0.27529 -1.8801,-0.3703 -1.45562,-0.1598 -1.64882,-0.24627 -2.57439,-1.15243 -2.05625,-2.01314 -3.40764,-5.71061 -3.11296,-8.5172 0.0844,-0.80437 0.28748,-1.61437 0.45119,-1.8 0.16371,-0.18562 0.49019,-0.84375 0.72549,-1.4625 0.55625,-1.46259 1.55187,-3.02307 2.03801,-3.19428 0.21127,-0.0744 0.59418,-0.32364 0.8509,-0.55386 2.25324,-2.02072 5.52699,-2.83252 8.54935,-2.12001 0.90335,0.21296 1.76263,0.53199 1.90949,0.70893 0.14685,0.17696 0.38826,0.32172 0.53644,0.32172 0.479,0 2.08091,1.53615 2.91969,2.79984 0.44917,0.67668 0.91692,1.29231 1.03943,1.36802 0.47446,0.29324 1.12887,1.96108 1.25937,3.20967 0.1094,1.04661 0.0476,1.48565 -0.3093,2.19652 -0.24532,0.48865 -0.49921,1.30439 -0.56419,1.81278 -0.11408,0.89239 -1.22704,2.85887 -2.15109,3.80067 -1.07579,1.09647 -2.67005,2.43095 -3.09938,2.59434 -1.54422,0.58768 -2.81358,0.77772 -4.48157,0.67091 z m -55.43027,-1.23865 c -0.53915,-0.16819 -1.17582,-0.5157 -1.41483,-0.77227 -0.23902,-0.25654 -0.81039,-0.65976 -1.26974,-0.89604 -1.08656,-0.5589 -1.78835,-1.35265 -2.90283,-3.28329 -1.1318,-1.9606 -1.51254,-3.10358 -1.2969,-3.89319 0.0911,-0.33375 0.19754,-1.33725 0.23644,-2.22998 0.0726,-1.66603 0.28502,-2.25506 1.41876,-3.93394 1.47105,-2.17839 2.69749,-3.01521 5.71041,-3.89635 1.08559,-0.3175 1.61511,-0.34389 3.19773,-0.15941 1.10755,0.12908 2.27759,0.4196 2.81214,0.69822 0.5035,0.26244 1.14014,0.48073 1.41477,0.48512 0.62496,0.01 1.14922,0.31563 2.49488,1.45453 1.5202,1.28662 1.67814,1.61886 2.05532,4.32329 0.57428,4.11763 0.0827,6.22966 -1.75358,7.53462 -0.39726,0.28231 -1.25493,0.99508 -1.90593,1.58393 -0.651,0.58887 -1.33095,1.07066 -1.51099,1.07066 -0.18005,0 -0.6381,0.30375 -1.01788,0.675 -0.38376,0.37515 -0.93325,0.675 -1.23693,0.675 -0.30052,0 -1.06016,0.2025 -1.68807,0.45 -1.31498,0.51831 -1.97482,0.54084 -3.34277,0.1141 z m 193.61114,-92.75785 c -0.15248,-0.53619 -0.39938,-8.46414 -0.46424,-14.90625 -0.0293,-2.90812 -0.17244,-8.02125 -0.31811,-11.3625 -0.2743,-6.29172 -0.15223,-21.8938 0.18151,-23.19984 0.0984,-0.3849 0.0916,-1.49865 -0.0151,-2.475 -0.37067,-3.39347 -0.49845,-13.66332 -0.21603,-17.36322 0.20959,-2.74572 0.20991,-4.46808 0.002,-7.69944 -0.41636,-6.45315 -0.51707,-14.6427 -0.21019,-17.09115 0.31707,-2.52991 0.32107,-6.88153 0.009,-9.23385 -0.61979,-4.66366 -0.70803,-6.40208 -0.42255,-8.325 0.39271,-2.64531 0.3717,-10.0566 -0.0386,-13.6125 -0.23202,-2.01093 -0.3375,-5.175 -0.3375,-10.125 l 0,-7.2 7.2,0 7.2,0 0.0731,2.925 c 0.0402,1.60875 0.07,3.27938 0.0661,3.7125 -0.19887,22.1518 0.089,38.21325 0.77664,43.32895 0.23643,1.75901 0.37194,4.58273 0.39336,8.19605 0.031,5.22628 0.005,5.60012 -0.5013,7.2 -0.62178,1.96518 -0.65297,3.12957 -0.24705,9.225 0.15246,2.28938 0.34178,5.175 0.42069,6.4125 0.18085,2.83581 -0.0461,7.17276 -0.48285,9.225 -0.4269,2.00615 -0.34986,8.88775 0.13727,12.2625 0.29119,2.01742 0.44822,5.35311 0.41839,8.8875 -0.004,0.495 -0.0203,7.06554 -0.0357,14.6012 -0.0236,11.49385 -0.0807,13.80292 -0.3546,14.33257 -0.4003,0.77409 -0.41996,1.59527 -0.0471,1.96809 0.59121,0.59121 -0.48067,0.7038 -6.73294,0.7072 -5.8482,0.003 -6.3498,-0.0272 -6.45305,-0.39031 z m -353.49356,-1.46839 c -0.2611,-0.39845 -0.3646,-1.63483 -0.4661,-5.56875 -0.072,-2.78114 -0.2302,-6.22098 -0.3521,-7.64411 -0.2338,-2.73228 -0.3083,-4.89109 -0.5101,-14.79357 -0.069,-3.37207 -0.2191,-6.91582 -0.3341,-7.875 -0.2775,-2.3134 -0.389,-6.43639 -0.3119,-11.53143 0.1399,-9.24115 0.048,-22.81619 -0.1772,-26.1 -0.1313,-1.91812 -0.2805,-6.26384 -0.3315,-9.65715 -0.088,-5.88582 -0.072,-6.19871 0.3565,-6.80056 0.3227,-0.45322 0.4131,-0.83844 0.321,-1.36784 -0.07,-0.40532 -0.173,-2.6607 -0.2277,-5.01195 -0.055,-2.35125 -0.1638,-5.54062 -0.2423,-7.0875 -0.2678,-5.27626 -0.3028,-7.09541 -0.4136,-21.47938 -0.077,-10.02351 -0.038,-14.47972 0.1293,-14.68125 0.3512,-0.42317 12.6216,-0.4199 12.9729,0.003 0.1755,0.21146 0.1515,0.68543 -0.087,1.70583 -0.2187,0.9377 -0.3242,2.57173 -0.3135,4.85766 0.01,1.89455 -0.1029,5.70849 -0.2483,8.47542 -0.2674,5.08904 -0.2595,5.30229 0.4823,13.01827 0.2345,2.43823 0.1985,6.33194 -0.1464,15.8625 -0.072,1.98 -0.1226,6.60173 -0.1132,10.27051 0.013,4.88684 -0.076,7.34058 -0.3323,9.17633 -0.3724,2.66936 -0.343,5.4893 0.1573,15.09066 0.291,5.58619 0.2732,14.41508 -0.037,18.35789 -0.133,1.6893 -0.1352,3.61777 -0.01,5.08808 0.4272,4.86342 0.518,12.53923 0.2042,17.27903 -0.3851,5.81807 -0.3906,9.56232 -0.019,12.7125 0.3732,3.16037 0.4881,7.56626 0.2069,7.93125 -0.1614,0.20945 -1.4432,0.28125 -5.0215,0.28125 -4.7508,0 -4.8085,-0.006 -5.1403,-0.51214 z m 118.22519,-252.83986 c -0.43312,-0.0964 -1.395,-0.34772 -2.1375,-0.55851 -1.14691,-0.3256 -1.99311,-0.3629 -5.62499,-0.24798 -2.3513,0.0744 -5.5913,0.23601 -7.2,0.35914 -4.2372,0.3243 -37.8752,0.53698 -38.9607,0.24633 -0.529,-0.14165 -7.3236,-0.29039 -17.5143,-0.3834 -21.2206,-0.19369 -20.1218,-0.19855 -24.0364,0.10631 -1.835,0.14291 -3.4297,0.20217 -3.5438,0.13169 -0.1181,-0.073 -0.2073,-2.73276 -0.2073,-6.18194 0,-5.80332 0.018,-6.06367 0.4456,-6.29225 0.2919,-0.15625 3.5688,-0.24088 9.5062,-0.2455 4.9834,-0.004 11.6932,-0.0125 14.9107,-0.0192 3.2175,-0.007 7.0144,0.0221 8.4375,0.0639 1.4231,0.0418 4.3594,0.007 6.525,-0.0774 6.7442,-0.26294 12.0625,-0.24801 17.5461,0.0493 3.4234,0.18557 6.5921,0.22449 9,0.11052 2.044,-0.0967 4.8966,-0.19696 6.339,-0.22272 1.4424,-0.0258 2.7862,-0.10965 2.9863,-0.18643 0.3518,-0.13502 7.5163,0.11161 13.5161,0.46527 3.58879,0.21155 7.30177,0.14776 8.68656,-0.14922 0.67866,-0.14555 4.14027,-0.14983 10.01285,-0.0124 13.92924,0.32602 22.66607,0.28899 23.59704,-0.1 0.5207,-0.21756 1.6278,-0.32084 3.42402,-0.31941 1.80075,10e-4 2.95501,-0.10656 3.58881,-0.33575 1.78943,-0.64709 4.88042,-0.86071 8.29071,-0.57298 1.7325,0.14618 4.41562,0.28636 5.9625,0.31152 1.54687,0.0252 3.31875,0.17242 3.9375,0.32725 0.61875,0.15483 1.47938,0.36914 1.9125,0.47623 0.63849,0.15787 8.6225,0.43393 14.625,0.50569 3.43283,0.041 7.58498,-0.25077 8.21986,-0.57768 1.3471,-0.69361 4.81005,-0.33033 6.22975,0.65354 0.82969,0.57497 0.91913,0.58706 3.5447,0.47892 2.34479,-0.0966 2.74529,-0.1701 3.09337,-0.56796 0.21989,-0.25137 0.85544,-0.56089 1.41232,-0.68781 1.334,-0.30405 10.49575,-0.3236 14.625,-0.0312 1.79438,0.12707 4.22438,0.27157 5.4,0.32111 1.17563,0.0495 2.72966,0.24464 3.45341,0.43353 1.89986,0.49586 15.0332,0.5936 15.92096,0.11849 0.21782,-0.11658 0.75109,-0.21195 1.18505,-0.21195 0.43396,0 0.84452,-0.0898 0.91231,-0.1995 0.0678,-0.10972 0.46134,-0.26291 0.87448,-0.34041 1.25139,-0.23477 10.73178,-0.17329 12.41629,0.0805 0.86625,0.13052 3.26131,0.26197 5.32238,0.2921 3.61343,0.0529 3.76674,0.0367 4.28949,-0.45144 0.52186,-0.48732 0.69729,-0.50616 4.69014,-0.50358 2.9412,0.002 4.50801,0.0993 5.38549,0.33483 0.68063,0.18268 1.94625,0.33689 2.8125,0.34267 0.86625,0.006 2.385,0.1769 3.375,0.38025 2.29086,0.47056 4.42681,0.41907 5.7375,-0.1383 0.55688,-0.2368 1.56938,-0.4921 2.25,-0.56733 1.03023,-0.11387 15.28216,-0.44071 17.1,-0.39216 5.29677,0.14147 8.39999,0.30388 9.52706,0.49862 0.76199,0.13166 1.78005,0.29957 2.26236,0.37314 0.48231,0.0736 2.47338,0.004 4.42462,-0.15358 1.95901,-0.15867 4.21281,-0.21611 5.03303,-0.12827 l 1.48533,0.15907 -0.06,5.88794 -0.0599,5.88795 -1.575,0.40133 c -1.16332,0.29644 -2.77049,0.4276 -6.14873,0.5018 -2.51557,0.0553 -6.66682,0.19472 -9.225,0.30994 -4.50803,0.20304 -5.48928,0.16105 -10.27627,-0.43967 -2.60217,-0.32655 -2.20538,-0.32757 -9.225,0.0238 -4.05162,0.2028 -5.82138,0.20688 -7.0875,0.0163 -2.06543,-0.31087 -4.22273,-0.31506 -7.7625,-0.0151 -4.46911,0.37874 -9.73676,0.32615 -11.24482,-0.11225 -1.15538,-0.33587 -1.79346,-0.34994 -5.93733,-0.13085 -6.1393,0.32458 -25.27168,0.3463 -25.86388,0.0294 -0.70434,-0.37694 -2.44121,-0.26855 -6.44564,0.40226 -2.28177,0.38223 -47.49692,0.28096 -57.26961,-0.12827 -4.23111,-0.17717 -5.25798,-0.14138 -9.90122,0.34517 -1.30077,0.13631 -2.84211,0.1475 -3.9375,0.0286 -1.53437,-0.16655 -21.42146,-0.59814 -22.725,-0.49317 -0.2475,0.0199 -5.46187,0.13898 -11.5875,0.26455 -6.12562,0.12557 -11.87889,0.33077 -12.78503,0.456 -1.87677,0.25937 -4.72609,0.2597 -5.88997,6.7e-4 z"
           style="opacity:1;fill:#000000;fill-opacity:1" />
        <g
           style="font-style:normal;font-weight:normal;font-size:60px;line-height:125%;font-family:sans-serif;letter-spacing:0px;word-spacing:0px;fill:#000000;fill-opacity:1;stroke:none;stroke-width:1px;stroke-linecap:butt;stroke-linejoin:miter;stroke-opacity:1"
           id="text4239">
          <path
             d="m -1044.4968,540.78845 15.4248,0 0,7.11914 -6.1743,0 0,6.74561 5.7788,0 0,6.76758 -5.7788,0 0,7.82226 6.7895,0 0,7.11914 -16.04,0 0,-35.57373 z"
             style="font-style:normal;font-variant:normal;font-weight:normal;font-stretch:condensed;font-size:45px;font-family:Impact;-inkscape-font-specification:'Impact Condensed'"
             id="path4139" />
          <path
             d="m -1006.1765,551.55505 -8.5913,0 0,-2.63672 q 0,-1.8457 -0.3296,-2.35107 -0.3296,-0.50537 -1.0986,-0.50537 -0.835,0 -1.2745,0.68115 -0.4174,0.68115 -0.4174,2.06543 0,1.77979 0.4834,2.68067 0.4614,0.90087 2.6147,2.17529 6.1743,3.66943 7.7783,6.02051 1.604,2.35107 1.604,7.58056 0,3.80127 -0.9008,5.60303 -0.879,1.80176 -3.4278,3.03223 -2.5488,1.20849 -5.9326,1.20849 -3.7134,0 -6.3501,-1.40625 -2.6147,-1.40625 -3.4277,-3.58154 -0.813,-2.17529 -0.813,-6.17432 l 0,-2.3291 8.5913,0 0,4.32862 q 0,1.99951 0.3515,2.5708 0.3736,0.57129 1.2964,0.57129 0.9229,0 1.3623,-0.7251 0.4615,-0.7251 0.4615,-2.15332 0,-3.14209 -0.857,-4.10889 -0.8789,-0.9668 -4.3286,-3.22998 -3.4497,-2.28516 -4.5703,-3.31787 -1.1206,-1.03272 -1.8677,-2.85645 -0.7251,-1.82373 -0.7251,-4.6582 0,-4.08691 1.0327,-5.97656 1.0547,-1.88965 3.3838,-2.94434 2.3291,-1.07666 5.625,-1.07666 3.6036,0 6.1304,1.16455 2.5488,1.16455 3.3618,2.94434 0.835,1.75781 0.835,5.99853 l 0,1.40625 z"
             style="font-style:normal;font-variant:normal;font-weight:normal;font-stretch:condensed;font-size:45px;font-family:Impact;-inkscape-font-specification:'Impact Condensed'"
             id="path4141" />
          <path
             d="m -980.88599,556.30115 -9.25048,0 0,-6.19629 q 0,-2.70264 -0.30762,-3.36182 -0.28565,-0.68115 -1.29639,-0.68115 -1.14258,0 -1.45019,0.81299 -0.30762,0.81299 -0.30762,3.51562 l 0,16.52344 q 0,2.59277 0.30762,3.38379 0.30761,0.79102 1.38427,0.79102 1.03272,0 1.34034,-0.79102 0.32959,-0.79102 0.32959,-3.71338 l 0,-4.46045 9.25048,0 0,1.38428 q 0,5.51514 -0.79101,7.82226 -0.76904,2.30713 -3.44971,4.04297 -2.65869,1.73584 -6.56982,1.73584 -4.06494,0 -6.70166,-1.47217 -2.63671,-1.47216 -3.49361,-4.06494 -0.857,-2.61474 -0.857,-7.84423 l 0,-10.39307 q 0,-3.84522 0.2637,-5.75684 0.2637,-1.93359 1.5601,-3.71338 1.31831,-1.77978 3.62544,-2.79052 2.3291,-1.03272 5.33935,-1.03272 4.08692,0 6.74561,1.58203 2.65869,1.58203 3.49365,3.95508 0.83496,2.35108 0.83496,7.33887 l 0,3.38379 z"
             style="font-style:normal;font-variant:normal;font-weight:normal;font-stretch:condensed;font-size:45px;font-family:Impact;-inkscape-font-specification:'Impact Condensed'"
             id="path4143" />
          <path
             d="m -956.38647,561.61853 q 0,5.36133 -0.26368,7.60254 -0.2417,2.21924 -1.58203,4.06494 -1.31836,1.8457 -3.58154,2.83447 -2.26318,0.98877 -5.27344,0.98877 -2.85644,0 -5.1416,-0.92285 -2.26318,-0.94482 -3.64746,-2.8125 -1.38428,-1.86767 -1.64795,-4.06494 -0.26367,-2.19727 -0.26367,-7.69043 l 0,-6.08643 q 0,-5.36132 0.2417,-7.58056 0.26367,-2.24121 1.58203,-4.08692 1.34033,-1.8457 3.60351,-2.83447 2.26319,-0.98877 5.27344,-0.98877 2.85645,0 5.11963,0.94483 2.28516,0.92285 3.66943,2.79052 1.38428,1.86768 1.64795,4.06494 0.26368,2.19727 0.26368,7.69043 l 0,6.08643 z m -9.25049,-11.68945 q 0,-2.48291 -0.28565,-3.16407 -0.26367,-0.70312 -1.1206,-0.70312 -0.7251,0 -1.12061,0.57129 -0.37353,0.54932 -0.37353,3.2959 l 0,16.61133 q 0,3.09814 0.2417,3.82324 0.26367,0.7251 1.18652,0.7251 0.94482,0 1.2085,-0.83497 0.26367,-0.83496 0.26367,-3.97705 l 0,-16.34765 z"
             style="font-style:normal;font-variant:normal;font-weight:normal;font-stretch:condensed;font-size:45px;font-family:Impact;-inkscape-font-specification:'Impact Condensed'"
             id="path4145" />
          <path
             d="m -953.00269,540.78845 6.54786,0 q 6.54785,0 8.85498,0.50537 2.3291,0.50537 3.77929,2.59278 1.47217,2.06543 1.47217,6.61377 0,4.15283 -1.03271,5.58105 -1.03272,1.42822 -4.06494,1.71387 2.74658,0.68115 3.6914,1.82373 0.94483,1.14258 1.16455,2.10937 0.2417,0.94483 0.2417,5.25147 l 0,9.38232 -8.59131,0 0,-11.82129 q 0,-2.85644 -0.46142,-3.53759 -0.43946,-0.68116 -2.35108,-0.68116 l 0,16.04004 -9.25049,0 0,-35.57373 z m 9.25049,6.08643 0,7.91015 q 1.56006,0 2.1753,-0.41748 0.6372,-0.43945 0.6372,-2.79052 l 0,-1.95557 q 0,-1.69189 -0.61523,-2.21924 -0.59326,-0.52734 -2.19727,-0.52734 z"
             style="font-style:normal;font-variant:normal;font-weight:normal;font-stretch:condensed;font-size:45px;font-family:Impact;-inkscape-font-specification:'Impact Condensed'"
             id="path4147" />
          <path
             d="m -908.09058,540.78845 0,35.57373 -8.10791,0 -4.81201,-16.17187 0,16.17187 -7.73437,0 0,-35.57373 7.73437,0 5.18555,16.01807 0,-16.01807 7.73437,0 z"
             style="font-style:normal;font-variant:normal;font-weight:normal;font-stretch:condensed;font-size:45px;font-family:Impact;-inkscape-font-specification:'Impact Condensed'"
             id="path4149" />
          <path
             d="m -888.42505,540.78845 5.29541,35.57373 -9.47021,0 -0.46143,-6.39404 -3.31787,0 -0.54932,6.39404 -9.58007,0 4.70214,-35.57373 13.38135,0 z m -4.8999,22.87354 q -0.70313,-6.04248 -1.40625,-14.91944 -1.40625,10.19532 -1.75781,14.91944 l 3.16406,0 z"
             style="font-style:normal;font-variant:normal;font-weight:normal;font-stretch:condensed;font-size:45px;font-family:Impact;-inkscape-font-specification:'Impact Condensed'"
             id="path4151" />
          <path
             d="m -881.54761,540.78845 9.22852,0 q 4.37256,0 6.61377,0.68115 2.26318,0.68116 3.64746,2.76856 1.38428,2.06543 1.38428,6.67969 0,3.12011 -0.98877,4.35058 -0.9668,1.23047 -3.84522,1.88965 3.20801,0.7251 4.35059,2.41699 1.14258,1.66993 1.14258,5.1416 l 0,3.2959 q 0,3.60352 -0.83497,5.33936 -0.81298,1.73584 -2.61474,2.37305 -1.80176,0.6372 -7.38281,0.6372 l -10.70069,0 0,-35.57373 z m 9.25049,6.08643 0,7.91015 q 0.59326,-0.022 0.92285,-0.022 1.36231,0 1.73584,-0.65918 0.37354,-0.68115 0.37354,-3.84521 0,-1.66992 -0.30762,-2.3291 -0.30762,-0.68116 -0.81299,-0.85694 -0.4834,-0.17578 -1.91162,-0.19775 z m 0,13.44726 0,9.95362 q 1.95557,-0.0659 2.48291,-0.61524 0.54932,-0.54931 0.54932,-2.70263 l 0,-3.31788 q 0,-2.28515 -0.4834,-2.76855 -0.4834,-0.4834 -2.54883,-0.54932 z"
             style="font-style:normal;font-variant:normal;font-weight:normal;font-stretch:condensed;font-size:45px;font-family:Impact;-inkscape-font-specification:'Impact Condensed'"
             id="path4153" />
          <path
             d="m -835.53687,561.61853 q 0,5.36133 -0.26367,7.60254 -0.2417,2.21924 -1.58203,4.06494 -1.31836,1.8457 -3.58154,2.83447 -2.26318,0.98877 -5.27344,0.98877 -2.85644,0 -5.1416,-0.92285 -2.26318,-0.94482 -3.64746,-2.8125 -1.38428,-1.86767 -1.64795,-4.06494 -0.26367,-2.19727 -0.26367,-7.69043 l 0,-6.08643 q 0,-5.36132 0.2417,-7.58056 0.26367,-2.24121 1.58203,-4.08692 1.34033,-1.8457 3.60351,-2.83447 2.26319,-0.98877 5.27344,-0.98877 2.85645,0 5.11963,0.94483 2.28516,0.92285 3.66943,2.79052 1.38428,1.86768 1.64795,4.06494 0.26367,2.19727 0.26367,7.69043 l 0,6.08643 z m -9.25048,-11.68945 q 0,-2.48291 -0.28565,-3.16407 -0.26367,-0.70312 -1.1206,-0.70312 -0.7251,0 -1.12061,0.57129 -0.37353,0.54932 -0.37353,3.2959 l 0,16.61133 q 0,3.09814 0.2417,3.82324 0.26367,0.7251 1.18652,0.7251 0.94482,0 1.20849,-0.83497 0.26368,-0.83496 0.26368,-3.97705 l 0,-16.34765 z"
             style="font-style:normal;font-variant:normal;font-weight:normal;font-stretch:condensed;font-size:45px;font-family:Impact;-inkscape-font-specification:'Impact Condensed'"
             id="path4155" />
          <path
             d="m -813.52026,540.78845 0,7.11914 -5.49317,0 0,28.45459 -9.25049,0 0,-28.45459 -5.47119,0 0,-7.11914 20.21485,0 z"
             style="font-style:normal;font-variant:normal;font-weight:normal;font-stretch:condensed;font-size:45px;font-family:Impact;-inkscape-font-specification:'Impact Condensed'"
             id="path4157" />
        </g>
      </g>
    </g>
  </g>
</svg>
