<?xml version="1.0" encoding="UTF-8" standalone="no"?>
<!-- Created with Inkscape (http://www.inkscape.org/) -->

<svg
   xmlns:dc="http://purl.org/dc/elements/1.1/"
   xmlns:cc="http://creativecommons.org/ns#"
   xmlns:rdf="http://www.w3.org/1999/02/22-rdf-syntax-ns#"
   xmlns:svg="http://www.w3.org/2000/svg"
   xmlns="http://www.w3.org/2000/svg"
   xmlns:sodipodi="http://sodipodi.sourceforge.net/DTD/sodipodi-0.dtd"
   xmlns:inkscape="http://www.inkscape.org/namespaces/inkscape"
   width="420mm"
   height="297mm"
   viewBox="0 0 1488.189 1052.3622"
   id="svg2"
   version="1.1"
   inkscape:version="0.91 r13725"
   sodipodi:docname="planillaCadrada.svg">
  <defs
     id="defs4" />
  <sodipodi:namedview
     id="base"
     pagecolor="#ffffff"
     bordercolor="#666666"
     borderopacity="1.0"
     inkscape:pageopacity="0.0"
     inkscape:pageshadow="2"
     inkscape:zoom="0.24748737"
     inkscape:cx="403.08988"
     inkscape:cy="852.23733"
     inkscape:document-units="px"
     inkscape:current-layer="layer2"
     showgrid="false"
     inkscape:window-width="1366"
     inkscape:window-height="744"
     inkscape:window-x="0"
     inkscape:window-y="24"
     inkscape:window-maximized="1" />
  <metadata
     id="metadata7">
    <rdf:RDF>
      <cc:Work
         rdf:about="">
        <dc:format>image/svg+xml</dc:format>
        <dc:type
           rdf:resource="http://purl.org/dc/dcmitype/StillImage" />
        <dc:title />
      </cc:Work>
    </rdf:RDF>
  </metadata>
  <g
     inkscape:label="grade"
     inkscape:groupmode="layer"
     id="layer1"
     transform="translate(0,-1.6535434e-6)"
     sodipodi:insensitive="true">
    <path
       style="opacity:1;fill:#ffffff;fill-opacity:1;stroke:#000000;stroke-width:7.26499319;stroke-linecap:butt;stroke-miterlimit:4;stroke-dasharray:none;stroke-dashoffset:0;stroke-opacity:1"
       d="m 38.571435,694.399 1417.474665,0"
       id="path4138"
       inkscape:connector-curvature="0"
       sodipodi:nodetypes="cc" />
    <path
       sodipodi:nodetypes="cc"
       inkscape:connector-curvature="0"
       id="path4202"
       d="m 38.571435,340.06829 1416.760465,0"
       style="opacity:1;fill:#ffffff;fill-opacity:1;stroke:#000000;stroke-width:7.26499319;stroke-linecap:butt;stroke-miterlimit:4;stroke-dasharray:none;stroke-dashoffset:0;stroke-opacity:1" />
    <path
       style="opacity:1;fill:#ffffff;fill-opacity:1;stroke:#000000;stroke-width:6.10926247;stroke-linecap:butt;stroke-miterlimit:4;stroke-dasharray:none;stroke-dashoffset:0;stroke-opacity:1"
       d="m 392.81841,1052.3622 0,-1052.3622014842517"
       id="path4204"
       inkscape:connector-curvature="0"
       sodipodi:nodetypes="cc" />
    <path
       sodipodi:nodetypes="cc"
       inkscape:connector-curvature="0"
       id="path4206"
       d="m 747.14912,1052.3622 0,-1052.3622014842517"
       style="opacity:1;fill:#ffffff;fill-opacity:1;stroke:#000000;stroke-width:6.10926247;stroke-linecap:butt;stroke-miterlimit:4;stroke-dasharray:none;stroke-dashoffset:0;stroke-opacity:1" />
    <path
       style="opacity:1;fill:#ffffff;fill-opacity:1;stroke:#000000;stroke-width:6.10926247;stroke-linecap:butt;stroke-miterlimit:4;stroke-dasharray:none;stroke-dashoffset:0;stroke-opacity:1"
       d="m 1101.4798,1052.3622 0,-1052.3622014842517"
       id="path4208"
       inkscape:connector-curvature="0"
       sodipodi:nodetypes="cc" />
    <path
       sodipodi:nodetypes="cc"
       inkscape:connector-curvature="0"
       id="path4210"
       d="m 1455.8105,1052.3622 0,-1052.3622014842517"
       style="opacity:1;fill:#ffffff;fill-opacity:1;stroke:#000000;stroke-width:6.10926247;stroke-linecap:butt;stroke-miterlimit:4;stroke-dasharray:none;stroke-dashoffset:0;stroke-opacity:1" />
    <path
       style="opacity:1;fill:#ffffff;fill-opacity:1;stroke:#000000;stroke-width:6.10926247;stroke-linecap:butt;stroke-miterlimit:4;stroke-dasharray:none;stroke-dashoffset:0;stroke-opacity:1"
       d="m 38.487702,1052.3622 0,-1052.3622014842517"
       id="path4212"
       inkscape:connector-curvature="0"
       sodipodi:nodetypes="cc" />
    <g
       transform="matrix(0.42887582,0,0,0.42887582,180.17314,570.37934)"
       id="layer1-4"
       inkscape:label="Layer 1">
      <path
         style="fill:#fbe843"
         d="m -5.5030317,1031.0011 c -0.7692075,-0.1672 -1.9232101,-0.5674 -2.5644601,-0.8895 -3.4832022,-1.7495 -4.4792772,-3.8124 -4.5517052,-9.4264 l -0.03526,-2.7319 4.2749997,0 4.2750001,0 0.1125,3.3373 c 0.10008,2.969 0.160695,3.3726 0.5492475,3.6563 0.67635,0.4938 1.5583497,0.387 2.1677847,-0.2624 0.502065,-0.5351 0.544365,-0.7544 0.531608,-2.7563 -0.02093,-3.2833 -0.13212,-3.4281 -5.3861402,-7.0115 -4.0622178,-2.7705 -4.8865728,-3.5287 -5.7500098,-5.2884 -0.91449,-1.8638 -1.188698,-3.5849 -1.039568,-6.525 0.176693,-3.48366 0.56997,-4.61858 2.14083,-6.17806 2.0188577,-2.00425 5.1514428,-2.91231 9.036248,-2.61938 2.465955,0.18596 3.937365,0.58462 5.680687,1.53918 2.597378,1.42216 3.288915,2.93166 3.382448,7.38326 l 0.04936,2.35 -4.275,0 -4.275,0 -0.1125,-2.3252 c -0.09499,-1.9634 -0.18045,-2.3747 -0.549248,-2.6437 -0.6038547,-0.4405 -1.1709222,-0.3985 -1.6950372,0.1257 -0.598815,0.5988 -0.7498575,1.318 -0.63981,3.0465 0.13896,2.1822 0.30006,2.351 5.4715952,5.7323 4.792635,3.1337 5.832967,4.3844 6.535192,7.8567 0.486495,2.4056 0.35991,7.4301 -0.228465,9.0682 -0.752175,2.0942 -3.30768,3.9246 -6.391777,4.5783 -1.85103,0.3924 -4.8672677,0.3852 -6.7135277,-0.016 z"
         id="path4275"
         inkscape:connector-curvature="0" />
      <path
         style="fill:#fbe843"
         d="m 18.508046,1031.0011 c -3.27555,-0.7419 -5.590485,-2.5035 -6.506235,-4.951 -0.817515,-2.1851 -0.952492,-4.4703 -0.877567,-14.8592 l 0.0713,-9.8893 0.698085,-1.4732 c 1.647248,-3.47607 4.528013,-5.2308 9.069345,-5.52427 3.621938,-0.23404 6.940418,0.72734 9.113625,2.64027 2.052788,1.80693 2.590043,3.6259 2.76561,9.3634 l 0.12564,4.1063 -4.622062,0 -4.62204,0 -0.07828,-4.4438 c -0.08406,-4.7732 -0.207945,-5.3399 -1.22301,-5.5946 -0.920565,-0.2311 -1.61091,0.2291 -1.888132,1.2586 -0.167153,0.6207 -0.22509,4.4171 -0.180113,11.7991 0.063,10.3359 0.08791,10.9077 0.494955,11.3573 0.543803,0.6006 1.570545,0.6117 2.158875,0.023 0.534758,-0.5348 0.4797,-0.1344 0.649868,-4.725 l 0.137632,-3.7125 4.5,0 4.5,0 -0.02137,3.2625 c -0.02182,3.3176 -0.31833,5.4226 -0.935055,6.6375 -0.971325,1.9134 -2.988045,3.5646 -5.400045,4.4213 -1.727055,0.6134 -5.86332,0.7716 -7.930957,0.3032 z"
         id="path4273"
         inkscape:connector-curvature="0" />
      <path
         style="fill:#fbe843"
         d="m 44.045547,1031.1053 c -3.527888,-0.7232 -6.022328,-2.7329 -7.250063,-5.8412 -0.364793,-0.9235 -0.399938,-2.0212 -0.399938,-12.4875 l 0,-11.475 0.52533,-1.3016 c 0.758183,-1.87845 2.553435,-3.73126 4.4694,-4.61269 4.737803,-2.1796 11.401808,-1.08453 14.090311,2.31545 1.281667,1.62085 1.747575,3.04944 1.963552,6.02084 0.259448,3.569 0.257648,14.5611 -0.0029,18.148 -0.18477,2.5432 -0.27594,2.9425 -1.011892,4.4316 -1.225103,2.4789 -3.228368,3.9847 -6.248183,4.6967 -1.505812,0.355 -4.65408,0.4091 -6.13557,0.1054 z"
         id="path4271"
         inkscape:connector-curvature="0" />
      <path
         style="fill:#fbe843"
         d="m 47.976657,1024.4766 c 0.274702,-0.5548 0.349267,-2.3167 0.418522,-9.8913 0.09729,-10.6417 -0.0261,-13.2352 -0.659835,-13.8689 -0.539662,-0.5397 -0.91449,-0.539 -1.583617,0 l -0.53118,0.4301 0,11.6853 c 0,12.845 -0.03508,12.5181 1.329277,12.3847 0.51021,-0.05 0.780615,-0.2455 1.026833,-0.7427 z"
         id="path4269"
         inkscape:connector-curvature="0" />
      <path
         style="fill:#fbe843"
         d="m 165.57572,1030.9967 c -1.84273,-0.4664 -3.8039,-1.5671 -4.88831,-2.7436 -1.27703,-1.3854 -1.97829,-3.0406 -2.2353,-5.276 -0.27887,-2.4253 -0.28035,-17.9628 -0.002,-20.3839 0.61825,-5.37682 4.27617,-8.25955 10.47042,-8.25142 6.05742,0.008 9.71397,2.76007 10.45197,7.86672 0.2758,1.9084 0.29763,18.9726 0.0269,21.0709 -0.46035,3.5688 -2.6095,6.2004 -6.06753,7.4295 -1.69762,0.6035 -5.8941,0.7592 -7.75622,0.2878 z"
         id="path4267"
         inkscape:connector-curvature="0" />
      <path
         style="fill:#fbe843"
         d="m 169.84192,1024.7905 c 0.40979,-0.4527 0.42863,-0.9814 0.42863,-12.0311 0,-11.5414 0,-11.5583 -0.48578,-12.0435 -0.35584,-0.3559 -0.63999,-0.4472 -1.06227,-0.3412 -1.13191,0.2841 -1.14678,0.421 -1.22375,11.2769 -0.0756,10.6689 0.0108,12.7318 0.556,13.277 0.47738,0.4774 1.28668,0.4149 1.78717,-0.1381 z"
         id="path4265"
         inkscape:connector-curvature="0" />
      <path
         style="fill:#fbe843"
         d="m -30.96581,1030.3581 c -0.184882,-0.2228 -0.238252,-5.0417 -0.19629,-17.7188 l 0.05765,-17.41273 7.712123,-0.0592 7.712123,-0.0592 -0.06212,3.4342 -0.06212,3.43423 -2.925,0.1125 -2.925001,0.1125 0,3.2625 0,3.2625 2.700001,0.1125 2.7,0.1125 0.06226,3.3187 0.06228,3.3188 -2.53728,0 c -1.395495,0 -2.666408,0.085 -2.824268,0.1856 -0.217912,0.1383 -0.272093,1.0719 -0.225,3.8778 l 0.06201,3.6956 3.2625,0.1125 3.2625,0.1125 0.06257,3.2318 c 0.04246,2.1915 -0.0207,3.3322 -0.19629,3.5438 -0.378832,0.4564 -15.32403,0.4621 -15.702638,0.01 z"
         id="path4263"
         inkscape:connector-curvature="0" />
      <path
         style="fill:#fbe843"
         d="m 61.412667,1030.5187 c -0.08505,-0.085 -0.15462,-8.0943 -0.15462,-17.7983 l 0,-17.64359 7.36875,0.0915 c 8.51652,0.10573 9.060143,0.2 10.859828,1.88339 1.855485,1.7356 2.626492,4.5311 2.413215,8.7499 -0.186008,3.6792 -0.898448,5.1362 -2.81034,5.7471 -1.307633,0.4179 -1.310063,0.5679 -0.02025,1.2591 1.644525,0.8813 2.578432,2.2925 2.77011,4.1859 0.07839,0.7743 0.111825,4.1416 0.07434,7.4829 l -0.0682,6.075 -4.1625,0 -4.1625,0 -0.1125,-7.2102 c -0.09968,-6.3883 -0.157703,-7.279 -0.509085,-7.8151 -0.406373,-0.62 -1.161383,-0.9384 -1.891868,-0.7979 -0.386797,0.074 -0.41832,0.5527 -0.524047,7.9511 l -0.1125,7.8721 -4.40163,0.061 c -2.42091,0.034 -4.471223,-0.01 -4.55625,-0.094 z"
         id="path4261"
         inkscape:connector-curvature="0" />
      <path
         style="fill:#fbe843"
         d="m 72.227044,1008.7292 c 0.688613,-0.198 0.91035,-0.6918 1.087628,-2.4222 0.340177,-3.3202 -0.4086,-5.2285 -1.991633,-5.0757 l -0.727492,0.07 -0.0621,3.5699 c -0.06401,3.6803 0.0632,4.313 0.82512,4.1031 0.19908,-0.055 0.589905,-0.1653 0.868477,-0.2454 z"
         id="path4259"
         inkscape:connector-curvature="0" />
      <path
         style="fill:#fbe843"
         d="m 85.93841,1030.5194 c -0.08545,-0.086 -0.155363,-8.0895 -0.155363,-17.7862 l 0,-17.63025 3.878775,0.0616 3.87878,0.0616 0.3876,1.125 c 0.21319,0.61875 1.26169,3.83345 2.32997,7.14375 1.0683,3.3103 2.03404,6.0187 2.14612,6.0187 0.11745,0 0.20376,-3.0523 0.20376,-7.2053 l 0,-7.20527 3.881248,0.0616 3.88125,0.0616 0.0576,17.41277 c 0.042,12.6771 -0.0115,17.496 -0.19629,17.7188 -0.19514,0.2351 -1.09442,0.3052 -3.88264,0.3025 -1.9958,0 -3.755228,-0.084 -3.909848,-0.1819 -0.15462,-0.098 -1.22375,-3.3555 -2.37584,-7.2385 -1.15209,-3.8831 -2.21385,-7.0998 -2.35947,-7.1483 -0.19858,-0.066 -0.27963,1.7301 -0.32415,7.1857 l -0.0594,7.274 -3.61339,0.062 c -1.98736,0.034 -3.683297,-0.01 -3.768752,-0.094 z"
         id="path4257"
         inkscape:connector-curvature="0" />
      <path
         style="fill:#fbe843"
         d="m 108.38358,1030.3765 c -0.0607,-0.1581 0.93084,-8.1316 2.20342,-17.7187 l 2.31379,-17.43123 6.74077,0 6.74078,0 2.57497,17.34723 c 1.41624,9.541 2.51084,17.5144 2.43243,17.7187 -0.12576,0.3277 -0.65763,0.3716 -4.50959,0.3716 -3.2213,0 -4.42717,-0.074 -4.5963,-0.2813 -0.12611,-0.1547 -0.30285,-1.4762 -0.39276,-2.9366 -0.11315,-1.8382 -0.26374,-2.7557 -0.48933,-2.9813 -0.3627,-0.3627 -2.23666,-0.4421 -2.75101,-0.1165 -0.22659,0.1434 -0.38286,1.0111 -0.53624,2.9778 -0.11905,1.5264 -0.3166,2.9019 -0.439,3.0566 -0.3242,0.4097 -9.13459,0.4037 -9.29193,-0.01 z"
         id="path4255"
         inkscape:connector-curvature="0" />
      <path
         style="fill:#fbe843"
         d="m 121.19602,1016.8266 c -0.0547,-2.0087 -1.04488,-11.4889 -1.21918,-11.6731 -0.10308,-0.1089 -0.24539,0.1442 -0.31626,0.5625 -0.28751,1.6968 -1.03399,8.0947 -1.17302,10.0534 l -0.14854,2.0929 1.44076,-0.068 1.44077,-0.068 -0.0245,-0.9 z"
         id="path4253"
         inkscape:connector-curvature="0" />
      <path
         style="fill:#fbe843"
         d="m 133.63305,1030.5141 c -0.0825,-0.082 -0.15,-8.0813 -0.15,-17.775 l 0,-17.62503 6.58125,0.004 c 8.31561,0.005 9.70222,0.24782 11.76765,2.06129 1.75658,1.54229 2.44285,4.00284 2.31874,8.31364 -0.10087,3.5035 -0.36236,4.0573 -2.37674,5.0337 -0.76597,0.3712 -1.3979,0.7481 -1.40429,0.8374 -0.006,0.089 0.49378,0.38 1.1115,0.6457 1.4888,0.6404 2.59229,1.8956 3.04958,3.4687 0.53455,1.8387 0.39073,10.3737 -0.19712,11.6982 -0.94599,2.1314 -2.41981,2.9567 -5.82883,3.2641 -2.65336,0.2392 -14.64669,0.2984 -14.87174,0.073 z"
         id="path4251"
         inkscape:connector-curvature="0" />
      <path
         style="fill:#fbe843"
         d="m 145.14999,1023.8186 c 0.31593,-0.316 0.37056,-0.9528 0.37056,-4.32 0,-3.879 -0.009,-3.9569 -0.53118,-4.3794 -0.3195,-0.2587 -0.87991,-0.4301 -1.40625,-0.4301 l -0.87507,0 0,4.8667 0,4.8668 1.03569,-0.1167 c 0.56964,-0.064 1.20245,-0.2835 1.40625,-0.4873 z"
         id="path4249"
         inkscape:connector-curvature="0" />
      <path
         style="fill:#fbe843"
         d="m 144.31902,1008.8328 c 0.62562,-0.1737 0.88241,-0.3977 1.06875,-0.9323 0.31269,-0.897 0.31912,-4.6324 0.009,-5.5206 -0.28215,-0.8094 -1.02519,-1.2553 -1.92145,-1.1531 l -0.65529,0.075 -0.062,3.6957 c -0.0719,4.2864 -0.071,4.2887 1.56049,3.8356 z"
         id="path4247"
         inkscape:connector-curvature="0" />
      <path
         style="fill:#fbe843"
         d="m 187.41267,1030.5187 c -0.085,-0.085 -0.15462,-6.4029 -0.15462,-14.0396 0,-11.1692 -0.0576,-13.9328 -0.29462,-14.1294 -0.16202,-0.1345 -1.40233,-0.2735 -2.75625,-0.3088 l -2.46163,-0.065 0,-3.37503 0,-3.375 10.06875,-0.0586 10.06875,-0.0586 0,3.48268 0,3.48265 -2.64375,0.063 -2.64375,0.063 -0.1125,14.175 -0.1125,14.175 -4.40163,0.061 c -2.42091,0.034 -4.47123,-0.01 -4.55625,-0.094 z"
         id="path4245"
         inkscape:connector-curvature="0" />
      <path
         style="fill:#fbe843"
         d="m 276.80805,941.45379 c -1.26997,-0.66296 -2.15262,-0.75096 -5.7375,-0.5721 -2.8332,0.14136 -3.7917,0.11398 -4.5,-0.12848 -0.495,-0.16945 -1.26745,-0.30955 -1.71657,-0.31135 -0.4491,-0.002 -1.36035,-0.25126 -2.025,-0.55434 -1.45532,-0.66363 -1.37842,-0.6615 -13.13343,-0.3654 -11.04919,0.27833 -14.44611,0.40518 -17.55,0.65543 -1.36125,0.10975 -4.5,0.17705 -6.975,0.14958 -4.19036,-0.0465 -4.58517,-0.087 -5.7375,-0.58799 -1.14539,-0.49802 -1.50543,-0.5362 -4.8375,-0.51287 -1.98,0.014 -5.27063,0.142 -7.3125,0.28474 -2.25581,0.15768 -9.89244,0.26059 -19.4625,0.2623 -8.6625,0.002 -16.56,0.008 -17.55,0.0151 -3.54639,0.0241 -8.79321,-0.25319 -9.77994,-0.51694 -0.56601,-0.15127 -2.28589,-0.25708 -3.9375,-0.24228 -4.93668,0.0443 -5.42955,0.0446 -8.27631,0.005 -1.51594,-0.0209 -3.06,-0.006 -3.43125,0.0329 -0.37125,0.039 -2.54813,-0.0503 -4.8375,-0.19841 -3.21627,-0.2081 -4.41853,-0.20857 -5.28881,-0.002 -0.66152,0.15694 -1.7293,0.21013 -2.5875,0.12891 -0.80365,-0.0761 -1.81557,-0.13116 -2.24869,-0.12247 -7.76172,0.15604 -42.79822,-0.27781 -47.515975,-0.58835 -1.205843,-0.0794 -2.12508,-0.0367 -2.401898,0.11142 -0.246667,0.132 -2.17827,0.29088 -4.29246,0.35304 -2.11419,0.0622 -4.02021,0.2021 -4.23558,0.31098 -1.36377,0.68935 -2.15856,0.73206 -10.90845,0.58632 -4.854555,-0.0808 -8.929215,-0.2142 -9.05481,-0.29632 -0.125573,-0.0821 -1.24083,-0.22336 -2.47833,-0.31383 -1.2375,-0.0905 -3.414375,-0.27817 -4.8375,-0.41708 -2.856871,-0.27889 -7.947181,-0.3389 -11.250001,-0.13262 -9.8442,0.61484 -10.840387,0.64017 -11.89665,0.30245 -1.328445,-0.42474 -8.50743,-0.5052 -13.75335,-0.15413 -5.989005,0.40079 -11.5274252,0.57872 -12.3750002,0.39755 -0.433125,-0.0926 -5.3943748,-0.1642 -11.0249998,-0.15912 -6.51357,0.006 -10.769491,-0.0816 -11.700001,-0.24043 -2.287417,-0.39049 -5.591497,-0.68393 -10.2375,-0.90925 -5.793057,-0.28093 -6.031606,-0.28075 -10.0125,0.008 -1.918125,0.13894 -5.968125,0.304 -9,0.3668 -3.031875,0.0628 -6.01875,0.12825 -6.6375,0.14546 -0.61875,0.0173 -1.681875,-0.10737 -2.3625,-0.27689 -1.460918,-0.3638 -1.885889,-0.36324 -6.766542,0.009 -2.665528,0.20327 -3.923652,0.21654 -4.411404,0.0465 -0.3753,-0.13084 -0.810412,-0.15874 -0.966918,-0.062 -0.156507,0.0967 -3.436375,0.25013 -7.288596,0.34088 -5.982903,0.14096 -7.118851,0.22214 -7.791541,0.55674 -1.44486,0.71867 -1.934745,0.73388 -3.187854,0.0989 -1.04046,-0.52722 -1.249728,-0.5618 -1.969404,-0.32535 -1.803276,0.59247 -10.609536,0.88283 -18.805246,0.62006 -3.16463,-0.10148 -5.06853,-0.0108 -5.58573,0.26597 -0.38583,0.20648 -1.34668,0.2497 -3.54673,0.15955 -1.65965,-0.068 -3.27066,-0.12384 -3.58004,-0.12407 -5.65594,-0.004 -9.41471,-0.0423 -11.7,-0.11909 -1.54687,-0.0519 -3.19219,-0.0931 -3.65625,-0.0913 -0.46406,0.002 -2.43844,0.0126 -4.3875,0.024 -1.95105,0.0115 -3.9988,-0.0928 -4.55625,-0.23207 -0.55687,-0.13911 -1.4175,-0.33464 -1.9125,-0.43447 l -0.9,-0.18155 -0.0589,-8.60609 -0.0589,-8.60607 0.50892,-0.20496 c 0.47209,-0.1901 3.70199,-0.46489 9.73393,-0.82809 4.04407,-0.24351 13.54034,-0.3924 18.3375,-0.28748 1.05188,0.023 3.33,-0.0233 5.0625,-0.10287 4.64647,-0.21346 8.65665,-0.2016 8.95911,0.0265 0.14624,0.11029 1.43027,0.22302 2.85339,0.25051 1.42313,0.0275 2.89125,0.14459 3.2625,0.26022 0.74942,0.23341 5.08355,0.35662 9.900004,0.2814 1.7325,-0.027 3.504375,-0.0517 3.9375,-0.0547 12.064489,-0.0845 16.789105,-0.19004 18.000001,-0.40212 4.127609,-0.72295 9.396218,-0.99779 18.7875,-0.98004 8.341695,0.0158 11.004093,0.10274 16.965034,0.55429 0.792018,0.06 2.079707,0.23623 2.86153,0.39164 1.229798,0.24444 1.642453,0.23026 3.059966,-0.10515 0.901168,-0.21323 2.14472,-0.47281 2.76347,-0.57687 0.61875,-0.10404 1.551915,-0.30488 2.07369,-0.44629 1.44612,-0.39193 6.291766,-0.55222 15.588811,-0.5157 11.6750023,0.0458 13.312845,0.18603 15.657075,1.34005 1.1277,0.55515 1.205527,0.56169 5.2875,0.4446 2.278597,-0.0654 6.471675,-0.33093 9.317925,-0.59015 7.535768,-0.68627 15.236573,-0.7472 17.901405,-0.14166 0.840083,0.19089 1.69056,0.22415 2.5875,0.10116 3.859155,-0.52913 8.456153,-0.89541 11.461096,-0.91318 6.942105,-0.0411 19.843897,0.25233 21.0375,0.47841 2.895795,0.54851 4.97655,0.67728 11.292165,0.69883 3.6738,0.0126 6.761925,-0.0267 6.8625,-0.0872 0.100553,-0.0605 2.81534,-0.17896 6.03284,-0.26329 18.643138,-0.48859 21.069018,-0.49793 22.128988,-0.0852 0.71321,0.2777 5.49072,0.27378 7.23351,-0.006 1.52586,-0.24487 11.37969,-0.10015 13.8375,0.20324 5.1662,0.6377 21.24956,1.15896 27.5625,0.89325 1.91812,-0.0807 14.11875,-0.10613 27.1125,-0.0564 12.99375,0.0497 25.0425,0.0941 26.775,0.0987 1.7325,0.005 4.9484,-0.16159 7.14642,-0.36929 2.19805,-0.2077 4.17585,-0.32067 4.39511,-0.25108 0.67196,0.21326 11.79279,0.1931 12.87097,-0.0233 0.55687,-0.1118 4.80937,-0.18491 9.45,-0.16245 6.73825,0.0326 8.89063,0.11738 10.6875,0.421 1.2375,0.20911 3.21187,0.36731 4.3875,0.35151 4.39693,-0.059 8.28475,-0.24324 10.575,-0.50114 4.51433,-0.50836 40.86945,-0.26716 41.52332,0.27549 0.28411,0.2358 0.32321,1.60072 0.2729,9.52688 l -0.0587,9.25164 -3.825,0.15383 c -5.17156,0.20799 -9.64508,0.54639 -11.11196,0.8406 -0.66659,0.1337 -3.49473,0.24307 -6.28477,0.24307 -2.79002,0 -5.94027,0.1096 -7.00054,0.24356 -1.39288,0.176 -3.02017,0.17406 -5.86523,-0.007 -2.16563,-0.13784 -4.03875,-0.25506 -4.1625,-0.26051 -0.12375,-0.005 -0.7648,0.0634 -1.42457,0.15305 -0.97371,0.13225 -1.23741,0.26253 -1.40067,0.69192 -0.11063,0.29095 -0.22893,0.51975 -0.26293,0.50843 -0.034,-0.0113 -0.31496,-0.15271 -0.62433,-0.31421 z"
         id="path4243"
         inkscape:connector-curvature="0" />
      <path
         style="fill:#fbe843"
         d="m 125.27055,898.69678 c -1.01831,-0.40361 -1.6047,-0.50421 -2.38665,-0.40941 -1.42418,0.17264 -2.69178,-0.43056 -4.30555,-2.04881 -2.80985,-2.81767 -4.63916,-7.99661 -4.32155,-12.23469 0.1307,-1.74413 0.2475,-2.20457 0.69376,-2.73492 0.29513,-0.35075 0.79117,-1.31404 1.1023,-2.14067 0.89847,-2.387 2.10897,-4.32671 2.90374,-4.65298 0.37892,-0.15554 1.04332,-0.62926 1.47645,-1.05268 0.43312,-0.42345 1.14187,-0.93591 1.575,-1.13882 0.43312,-0.2029 1.1925,-0.62802 1.6875,-0.94473 1.14048,-0.72967 2.37557,-1.02564 5.0625,-1.21306 1.87794,-0.13102 2.40975,-0.0779 4.37953,0.43787 1.23314,0.32285 2.44814,0.77508 2.7,1.00498 0.25189,0.22989 0.7009,0.49188 0.99779,0.58217 0.79476,0.24172 3.48851,3.0316 4.27824,4.43097 0.37649,0.66708 0.9902,1.50574 1.36383,1.8637 0.91022,0.87205 1.59795,2.78496 1.74362,4.84983 0.10543,1.49474 0.0536,1.82623 -0.43967,2.8125 -0.30756,0.61492 -0.61866,1.64268 -0.69136,2.2839 -0.15167,1.33824 -0.75861,2.64654 -1.58591,3.41865 -0.315,0.29399 -0.6336,0.80024 -0.70799,1.125 -0.17921,0.78235 -0.64897,1.31792 -2.1438,2.44411 -0.68377,0.51516 -1.46059,1.23066 -1.72627,1.59001 -0.45186,0.61119 -1.95097,1.35103 -4.13399,2.04021 -0.4419,0.13952 -2.01127,0.24653 -3.4875,0.2378 -2.27394,-0.0135 -2.89028,-0.0976 -4.03402,-0.55093 z"
         id="path4241"
         inkscape:connector-curvature="0" />
      <path
         style="fill:#fbe843"
         d="m 46.970547,897.25045 c -0.495,-0.22347 -1.153125,-0.68287 -1.4625,-1.02087 -0.309375,-0.33799 -1.06875,-0.84476 -1.6875,-1.12614 -1.495441,-0.68004 -2.912198,-2.22879 -4.482406,-4.89992 -1.595295,-2.71379 -2.244262,-4.47023 -2.053215,-5.55705 0.07691,-0.43747 0.230963,-1.75727 0.342338,-2.9329 0.111397,-1.17562 0.261202,-2.45112 0.33291,-2.83443 0.17316,-0.92561 1.19115,-3.01557 1.468822,-3.01557 0.12096,0 0.420098,-0.39242 0.664785,-0.87205 0.771098,-1.51146 2.472458,-3.10176 4.357621,-4.07318 0.965722,-0.49761 1.95795,-0.90477 2.204932,-0.90477 0.246983,0 0.7731,-0.17412 1.169145,-0.38693 0.586913,-0.3154 1.2609,-0.3805 3.645068,-0.35203 3.058695,0.0365 4.291875,0.30735 6.29667,1.38291 0.493155,0.26458 1.268752,0.48105 1.723545,0.48105 0.619357,0 1.10016,0.2165 1.91583,0.86263 0.598927,0.47444 1.23345,1.03799 1.410075,1.25233 0.176602,0.21433 0.595305,0.53152 0.93042,0.70481 0.335137,0.1733 0.870817,0.76129 1.19043,1.30667 1.140097,1.94541 1.660545,10.4397 0.76833,12.53992 -0.441135,1.03838 -1.554075,2.29736 -2.97765,3.36841 -0.622958,0.4687 -1.706693,1.39914 -2.40831,2.06766 -0.771615,0.73523 -1.63395,1.32284 -2.182455,1.48718 -0.530843,0.15905 -1.095368,0.53654 -1.361655,0.91051 -0.362565,0.50915 -0.7416,0.69446 -1.867568,0.913 -0.77697,0.1508 -1.855845,0.4683 -2.39751,0.70554 -1.316587,0.57663 -4.255897,0.57305 -5.540152,-0.007 z"
         id="path4239"
         inkscape:connector-curvature="0" />
      <path
         style="fill:none;stroke:#000000;stroke-width:7.0626502;stroke-miterlimit:4;stroke-dasharray:none"
         d="m 124.70109,857.29736 c -0.37102,-0.19858 -1.73873,-0.23512 -5.143,-0.13745 -7.39906,0.21226 -13.08141,0.13655 -14.64442,-0.19514 -1.11737,-0.23713 -3.69398,-0.26629 -12.608258,-0.14274 -10.15193,0.14071 -11.291712,0.12015 -12.139377,-0.21902 -0.72711,-0.29092 -1.405058,-0.34976 -3.043238,-0.26406 -1.659173,0.0868 -2.177663,0.0403 -2.43648,-0.21854 -0.779693,-0.77967 -6.371033,-1.26065 -8.713148,-0.74952 -0.512617,0.11187 -1.155465,0.064 -1.8,-0.13412 -1.49193,-0.45851 -2.92185,-0.7167 -4.829647,-0.87208 -0.939735,-0.0765 -2.031795,-0.23186 -2.426805,-0.34515 -0.39501,-0.11327 -2.04534,-0.20597 -3.667433,-0.20597 -2.713725,0 -3.033697,-0.0449 -4.007137,-0.5625 -0.906638,-0.48206 -1.35378,-0.5627 -3.127253,-0.56398 -1.686622,-0.002 -2.1942,-0.0842 -2.744347,-0.44852 -0.421943,-0.27945 -1.055813,-0.44759 -1.690831,-0.44851 -0.578542,0 -1.372207,-0.19249 -1.84365,-0.44516 -0.54117,-0.29005 -1.474942,-0.48861 -2.69667,-0.57344 -1.027867,-0.0714 -2.67885,-0.32008 -3.66885,-0.55271 -0.99,-0.23263 -2.389365,-0.54034 -3.109702,-0.68378 -0.720315,-0.14343 -1.732815,-0.44176 -2.25,-0.66294 -0.517163,-0.22119 -1.940355,-0.58502 -3.162645,-0.80851 -1.420808,-0.25981 -2.49966,-0.59456 -2.991218,-0.92815 -0.42291,-0.28699 -1.447852,-0.68875 -2.277675,-0.89282 -0.829822,-0.20408 -1.863135,-0.54437 -2.29626,-0.75618 -0.433125,-0.21182 -1.21185,-0.4394 -1.730475,-0.50576 -1.15353,-0.1476 -5.250285,-1.37922 -6.482025,-1.94872 -1.031153,-0.47675 -4.08033,-1.37009 -4.672845,-1.36904 -0.218813,0 -1.281938,-0.3622 -2.3625,-0.80579 -1.080563,-0.44359 -2.572155,-0.9549 -3.314655,-1.13625 -0.7425,-0.18135 -1.7550002,-0.6113 -2.2500002,-0.95544 -1.2418875,-0.86341 -2.6729325,-1.39486 -4.3170301,-1.60324 -0.7656075,-0.097 -1.7274825,-0.34877 -2.1375,-0.55946 -1.0924877,-0.56135 -3.6504677,-1.64005 -5.6030627,-2.36279 -1.89306,-0.70072 -3.959707,-1.69243 -4.482967,-2.1512 -0.606128,-0.53143 -5.847301,-3.02506 -6.361111,-3.0265 -0.274095,0 -0.751455,-0.13676 -1.06083,-0.30222 -1.407172,-0.7526 -2.38995,-1.34136 -2.70585,-1.62099 -0.188842,-0.16715 -1.345567,-0.81727 -2.570512,-1.44468 -1.224945,-0.62744 -2.336051,-1.22796 -2.469146,-1.33452 -0.133096,-0.10656 -0.798867,-0.47797 -1.479492,-0.82535 -0.680625,-0.34737 -1.490625,-0.82192 -1.8,-1.05457 -0.809115,-0.60842 -2.966341,-1.87382 -5.175,-3.03559 -1.051875,-0.5533 -2.115,-1.18532 -2.3625,-1.40452 -0.2475,-0.21919 -0.75375,-0.56711 -1.125,-0.77316 -0.37125,-0.20604 -1.2825,-0.82598 -2.025,-1.37763 -0.7425,-0.55166 -1.705511,-1.17959 -2.140024,-1.39543 -1.122053,-0.55737 -2.593863,-1.59183 -3.798579,-2.66983 -0.570019,-0.51005 -1.280803,-1.00307 -1.579522,-1.09561 -0.298717,-0.0925 -1.039572,-0.52491 -1.646343,-0.96082 -1.045902,-0.75141 -1.452571,-0.99257 -3.711713,-2.20111 -0.52315,-0.27985 -1.383775,-0.88209 -1.9125,-1.3383 -0.528725,-0.45621 -1.670069,-1.22242 -2.536319,-1.70269 -1.483529,-0.82253 -4.284392,-3.0546 -4.67993,-3.72955 -0.09896,-0.16886 -0.312935,-0.30704 -0.475497,-0.30704 -0.340896,0 -4.547509,-2.9641 -6.731607,-4.74329 -0.392132,-0.31943 -0.899766,-0.64901 -1.128078,-0.73237 -0.228312,-0.0834 -0.469129,-0.35818 -0.535151,-0.61065 -0.06602,-0.25245 -0.537347,-0.67057 -1.047389,-0.92914 -0.510041,-0.25855 -1.259934,-0.76023 -1.666428,-1.11483 -0.406492,-0.3546 -0.843561,-0.64472 -0.971262,-0.64472 -0.246965,0 -1.607468,-0.9751 -2.275986,-1.63125 -0.220644,-0.21656 -0.502422,-0.39375 -0.626172,-0.39375 -0.12375,0 -0.225,-0.14926 -0.225,-0.33171 0,-0.18246 -0.302036,-0.48792 -0.671191,-0.67881 -0.369155,-0.19091 -0.830084,-0.65436 -1.024281,-1.02989 -0.1942,-0.37555 -0.542491,-0.75352 -0.77398,-0.83995 -0.665381,-0.24842 -7.642247,-6.37238 -7.880549,-6.91715 -0.06188,-0.14146 -0.772096,-0.8552 -1.578271,-1.58609 -4.496533,-4.07664 -6.355313,-5.94153 -6.871213,-6.89384 -0.32208,-0.59454 -1.34524,-1.28379 -1.94559,-1.31063 -0.4739,-0.0212 -6.63617,-6.66848 -8.92575,-9.62827 -0.54082,-0.69914 -1.26798,-1.47366 -1.6159,-1.72116 -0.56417,-0.40133 -0.92015,-0.84921 -1.67578,-2.10838 -0.12375,-0.20624 -0.64518,-0.79326 -1.15874,-1.30453 -0.64746,-0.64458 -1.04158,-1.30054 -1.2855,-2.13957 -0.37888,-1.30331 -1.15754,-2.20837 -2.32045,-2.69714 -0.88366,-0.37139 -3.16396,-2.90387 -3.3647,-3.73678 -0.28564,-1.18521 -1.50253,-3.31616 -2.69931,-4.72684 -0.80594,-0.95 -1.2095,-1.6268 -1.21091,-2.03081 -0.002,-0.69932 -1.14093,-2.79567 -1.75618,-3.23374 -0.62627,-0.44593 -1.55195,-1.97791 -1.82446,-3.01948 -0.13271,-0.50724 -0.49071,-1.26662 -0.79555,-1.6875 -1.10117,-1.5203 -3.038,-6.33492 -3.05053,-7.58309 -0.002,-0.21017 -0.30414,-0.88839 -0.67117,-1.50714 -0.47818,-0.80613 -0.66841,-1.41981 -0.67116,-2.16515 -0.002,-0.57208 -0.21109,-1.50867 -0.4644,-2.08132 -0.37759,-0.8536 -0.41989,-1.18844 -0.23481,-1.85874 0.22675,-0.82123 -0.0804,-1.86491 -0.65303,-2.21879 -0.12463,-0.077 -0.2266,-0.44285 -0.2266,-0.81295 0,-0.37008 -0.15904,-0.98044 -0.35342,-1.35635 -0.19439,-0.37588 -0.53756,-1.3848 -0.76262,-2.24203 -0.22506,-0.85723 -0.53397,-1.70894 -0.68646,-1.89268 -0.21992,-0.26498 -0.21828,-0.47646 0.008,-1.02249 0.27149,-0.65542 0.24385,-0.73071 -0.57702,-1.57135 -0.83313,-0.85318 -0.86824,-0.95319 -1.04206,-2.96805 -0.23569,-2.73188 -0.28173,-3.03637 -0.85952,-5.68509 -0.26995,-1.2375 -0.63466,-2.94928 -0.81048,-3.80397 -0.17582,-0.85468 -0.40655,-1.66468 -0.51275,-1.8 -0.10619,-0.13531 -0.19596,-0.86625 -0.19949,-1.62429 -0.004,-0.86776 -0.16107,-1.70116 -0.42399,-2.25 -0.45198,-0.94354 -0.4684,-1.30694 -0.52126,-11.53497 -0.0177,-3.415 -0.11602,-5.42916 -0.28013,-5.73581 -0.16069,-0.30024 -0.27012,-2.27839 -0.30007,-5.42428 -0.0293,-3.08139 -0.15321,-5.35666 -0.32796,-6.02388 -0.30241,-1.15465 -0.22233,-2.49513 0.29889,-5.0028 0.18238,-0.87753 0.32219,-2.72088 0.31569,-4.1625 -0.009,-1.93638 0.11016,-3.06878 0.47247,-4.5 0.26628,-1.05188 0.53517,-2.95475 0.59754,-4.22863 0.0656,-1.33972 0.24783,-2.57607 0.43229,-2.93276 0.17538,-0.33917 0.39339,-1.01383 0.48446,-1.49925 0.0911,-0.48541 0.41006,-1.41662 0.70888,-2.06934 0.39397,-0.86052 0.63137,-2.00743 0.86362,-4.17213 0.17616,-1.64196 0.41357,-3.39039 0.52758,-3.88539 0.11401,-0.495 0.33088,-1.5075 0.48193,-2.25 0.15105,-0.7425 0.45389,-1.80563 0.67297,-2.3625 0.21908,-0.55688 0.60401,-1.67063 0.85541,-2.475 0.25139,-0.80438 0.66645,-1.86359 0.92234,-2.35382 0.2559,-0.49023 0.46571,-1.14835 0.46625,-1.4625 4.5e-4,-0.31414 0.25153,-1.27993 0.55776,-2.14618 0.30622,-0.86625 0.55891,-1.73316 0.56152,-1.92643 0.003,-0.1933 0.31792,-0.583 0.70069,-0.86598 1.14157,-0.844 1.5433,-2.04471 1.54995,-4.63259 0.005,-1.76929 0.0931,-2.39421 0.41454,-2.925 1.10703,-1.82806 2.04841,-3.71694 2.2787,-4.57216 0.14063,-0.52227 0.49488,-1.30205 0.78721,-1.73282 0.29234,-0.43078 0.6008,-1.28695 0.68547,-1.9026 0.10017,-0.7283 0.38155,-1.40575 0.80545,-1.93916 0.72252,-0.90918 1.10457,-2.03602 1.10648,-3.26351 6.7e-4,-0.44561 0.25438,-1.2863 0.56375,-1.86815 0.30938,-0.58185 0.5625,-1.24547 0.5625,-1.47472 0,-0.22925 0.35078,-0.83666 0.7795,-1.34982 0.44749,-0.53559 0.83446,-1.28738 0.90853,-1.76504 0.071,-0.4576 0.27452,-1.08515 0.45234,-1.39452 0.17782,-0.30938 0.51997,-0.98166 0.76035,-1.49396 0.24037,-0.5123 0.54046,-0.9954 0.66687,-1.07352 0.35913,-0.22194 1.60741,-2.50504 1.60741,-2.93994 0,-0.21456 0.25313,-0.69095 0.5625,-1.05862 0.30938,-0.36768 0.5625,-0.86322 0.5625,-1.10122 0,-0.23801 0.19189,-0.62462 0.42642,-0.85916 0.44471,-0.44472 0.70546,-0.88848 1.73251,-2.94858 0.33932,-0.68063 0.853,-1.55082 1.14151,-1.93374 0.28851,-0.38293 0.52456,-0.79932 0.52456,-0.92532 0,-0.12597 0.3129,-0.62268 0.69533,-1.10376 0.38243,-0.48107 0.82871,-1.19373 0.99173,-1.5837 0.16302,-0.38995 0.58419,-0.84634 0.93592,-1.01419 0.43582,-0.20799 0.73119,-0.59418 0.92732,-1.21244 0.1808,-0.56997 0.96227,-1.65433 2.102,-2.91669 0.99781,-1.10518 2.00779,-2.36678 2.24441,-2.80355 0.23662,-0.43677 0.61666,-1.04724 0.84452,-1.35661 0.22787,-0.30938 0.68822,-0.9804 1.02301,-1.49115 0.33478,-0.51075 1.10366,-1.32075 1.70863,-1.8 0.77674,-0.61533 1.26413,-1.24413 1.65872,-2.14002 0.52155,-1.1841 1.85668,-2.69489 2.86244,-3.23901 0.23654,-0.12798 2.37934,-2.13824 4.76178,-4.46728 2.382428,-2.32904 4.405338,-4.29995 4.495347,-4.37983 0.09001,-0.0799 0.890458,-0.97564 1.778771,-1.9906 0.888312,-1.01495 2.262706,-2.37078 3.054209,-3.01297 0.791501,-0.64217 1.629266,-1.54037 1.8617,-1.99598 0.232434,-0.4556 1.588018,-1.88415 3.012408,-3.17452 4.936101,-4.4717 7.242365,-6.50912 7.796974,-6.88806 0.306506,-0.20943 1.872491,-1.64228 3.479965,-3.18413 1.607472,-1.54184 3.60063,-3.34427 4.429238,-4.00541 0.828607,-0.66112 1.570583,-1.30565 1.648836,-1.43226 0.07825,-0.12663 0.544488,-0.4354 1.036077,-0.6862 0.491592,-0.25079 0.985359,-0.69678 1.09726,-0.99113 0.111904,-0.29432 0.366971,-0.62665 0.566816,-0.73847 0.438732,-0.24552 3.736467,-3.27204 5.518068,-5.06423 0.707358,-0.71157 1.396335,-1.29375 1.53106,-1.29375 0.134723,0 0.794102,-0.44729 1.465281,-0.99397 0.67118,-0.54669 2.067307,-1.51856 3.102505,-2.15972 1.035198,-0.64116 2.540304,-1.651 3.344679,-2.2441 0.804375,-0.5931 1.938425,-1.30065 2.52011,-1.57233 0.581686,-0.27168 1.290436,-0.71695 1.575,-0.98949 2.116404,-2.02695 5.226541,-4.41539 5.749545,-4.41539 0.141887,0 0.338944,-0.12981 0.437906,-0.28846 0.20774,-0.33305 3.041165,-2.05377 3.929427,-2.38632 0.329724,-0.12345 0.663966,-0.42757 0.742759,-0.67582 0.0788,-0.24826 0.356056,-0.51892 0.616135,-0.60147 0.26008,-0.0825 1.226349,-0.77116 2.147274,-1.53026 0.920925,-0.75909 1.892633,-1.52231 2.15937,-1.69603 0.266738,-0.17372 1.179675,-0.7642 2.028735,-1.31218 0.849083,-0.54798 1.962833,-1.37983 2.475,-1.84855 0.51219,-0.46871 1.152,-0.92063 1.421843,-1.00426 0.307035,-0.0952 0.546975,-0.4087 0.64125,-0.83793 0.11043,-0.50277 0.370035,-0.78537 0.972405,-1.05855 0.917843,-0.41625 1.70829,-0.94736 2.898743,-1.94767 0.441832,-0.37125 1.130445,-0.8775 1.530247,-1.125 1.567958,-0.9706 2.716493,-1.76407 3.254243,-2.24816 0.309375,-0.27851 0.859455,-0.57662 1.22238,-0.66247 0.362947,-0.0858 0.952897,-0.40264 1.311007,-0.70398 0.358133,-0.30134 0.831623,-0.54789 1.05219,-0.54789 0.22059,0 0.857048,-0.40137 1.41435,-0.89193 0.624038,-0.54929 1.3880927,-0.97614 1.9890227,-1.11115 0.5551875,-0.12475 1.13931,-0.4361 1.3552425,-0.72237 0.2087326,-0.27673 0.5539051,-0.52873 0.7670251,-0.56001 0.21312,-0.0313 0.610875,-0.26673 0.88389,-0.52321 0.273015,-0.25648 0.5815575,-0.46633 0.685665,-0.46633 0.104085,0 0.5211225,-0.25313 0.92673,-0.5625 0.4056075,-0.30938 0.94644,-0.5625 1.2018375,-0.5625 0.2553975,0 0.85662,-0.35438 1.3360272,-0.7875 0.47943,-0.43313 0.94923,-0.7875 1.044023,-0.7875 0.237892,0 3.175807,-1.94016 4.27311,-2.8219 0.495,-0.39777 1.153125,-0.7994 1.4625,-0.89253 0.309375,-0.0931 1.220625,-0.66344 2.025,-1.26738 0.804375,-0.60393 1.9431,-1.24328 2.530508,-1.42078 1.550002,-0.46836 5.335267,-2.35713 6.196072,-3.09171 0.406485,-0.34689 0.89361,-0.6307 1.082475,-0.6307 0.188888,0 1.172543,-0.3895 2.18592,-0.86555 1.0134,-0.47605 2.247525,-0.99387 2.742525,-1.15073 0.495,-0.15685 1.355625,-0.56818 1.9125,-0.91406 1.003973,-0.62357 3.72015,-1.56966 4.506435,-1.56966 0.224978,0 0.69525,-0.23929 1.045058,-0.53175 1.033222,-0.86386 2.352757,-1.42208 3.673507,-1.55406 1.734638,-0.17334 2.942933,-0.6394 4.08591,-1.57597 1.063103,-0.87114 4.05036,-2.17124 6.03909,-2.62829 0.680626,-0.15643 1.693126,-0.4664 2.250001,-0.68883 0.556875,-0.22243 1.62,-0.52327 2.3625,-0.66853 2.626897,-0.51394 3.393112,-0.72657 5.0625,-1.40486 2.369295,-0.96267 3.588367,-1.49721 4.5,-1.97317 0.433125,-0.22614 1.1925,-0.47827 1.6875,-0.56031 0.495,-0.082 1.20375,-0.28193 1.575,-0.44422 1.1205,-0.48983 3.544042,-1.2868 4.477612,-1.47245 0.482693,-0.096 0.966983,-0.33421 1.076198,-0.52938 0.237172,-0.4238 1.34361,-0.73092 3.33369,-0.92534 0.804375,-0.0786 1.665,-0.23224 1.9125,-0.34145 0.77634,-0.34256 2.970067,-0.90139 3.538507,-0.90139 0.29934,0 1.168403,-0.30235 1.931265,-0.67189 0.762886,-0.36954 1.818631,-0.73737 2.346143,-0.81742 0.52749,-0.08 1.11096,-0.27107 1.296585,-0.42449 0.450225,-0.37214 2.61477,-0.86705 3.054375,-0.69836 0.192015,0.0737 0.63063,-0.0116 0.9747,-0.18952 0.344048,-0.17792 1.172948,-0.39409 1.841985,-0.48039 0.669038,-0.0863 1.469565,-0.25453 1.778945,-0.37386 0.30937,-0.11934 1.11937,-0.29869 1.8,-0.39856 1.18968,-0.17457 3.29544,-0.8296 4.1861,-1.30216 0.70893,-0.37613 2.13874,-0.69067 3.8014,-0.83626 2.946238,-0.25798 11.639828,-1.90344 12.506128,-2.36706 0.22097,-0.11827 0.91896,-0.21503 1.55106,-0.21503 0.63211,0 1.9158,-0.15833 2.85266,-0.35184 0.93685,-0.19352 1.83512,-0.30129 1.99613,-0.2395 0.16103,0.0618 0.78244,-0.0256 1.38089,-0.19418 1.27128,-0.35813 5.51482,-1.02616 6.47458,-1.01924 0.84202,0.006 3.094,-0.41048 4.38487,-0.81106 1.18359,-0.36729 5.99312,-0.42087 6.89796,-0.0768 0.50591,0.19234 0.69489,0.15362 1.09791,-0.225 0.39782,-0.37373 0.79263,-0.45839 2.15982,-0.46314 0.92014,-0.003 2.68549,-0.11035 3.92299,-0.23812 1.2375,-0.12777 4.44568,-0.26705 7.12932,-0.3095 2.68362,-0.0425 4.96175,-0.128 5.0625,-0.19012 0.1737,-0.10709 11.2266,-0.22863 12.89568,-0.1418 0.43312,0.0225 1.14187,0.0274 1.575,0.0109 1.74546,-0.0667 8.90703,0.32458 9.18108,0.50162 0.16146,0.1043 1.02208,0.32347 1.9125,0.48704 0.89039,0.16357 2.17579,0.44787 2.85642,0.63177 0.68062,0.18391 2.55375,0.46049 4.1625,0.61464 1.60875,0.15414 3.31434,0.41623 3.79019,0.58241 0.47583,0.16618 2.14645,0.36716 3.7125,0.44662 1.67771,0.0851 3.17079,0.28042 3.63481,0.47543 1.22778,0.51599 3.29973,0.9616 5.5125,1.18558 2.53597,0.25668 3.81919,0.51473 4.88652,0.98263 0.46008,0.2017 1.42196,0.3712 2.1375,0.37666 1.54483,0.0118 3.24486,0.42432 3.81569,0.92592 0.36988,0.325 1.30021,0.57693 6.14779,1.66474 0.80437,0.1805 1.94253,0.32734 2.52922,0.3263 0.7997,-10e-4 1.47562,0.21153 2.7,0.85061 1.56515,0.81695 3.77789,1.59318 8.15828,2.86196 1.11375,0.3226 2.2275,0.67465 2.475,0.78235 0.2475,0.10769 0.80437,0.25371 1.2375,0.32448 0.43312,0.0708 1.41313,0.42475 2.17779,0.7866 1.39696,0.66106 2.98465,1.1409 5.69721,1.72182 1.48525,0.31809 1.96193,0.48995 3.38308,1.21973 0.43755,0.22469 1.29818,0.47892 1.9125,0.56495 0.61429,0.086 1.49445,0.39924 1.95585,0.69601 0.46141,0.29678 0.98476,0.5396 1.16301,0.5396 0.17824,0 0.61074,0.13949 0.96108,0.30999 1.46392,0.71242 2.25579,1.01239 2.99948,1.13627 0.43312,0.0721 1.0775,0.2825 1.43197,0.46746 0.35446,0.18495 0.98795,0.33628 1.40773,0.33628 0.53375,0 0.91035,0.16916 1.25235,0.5625 0.33093,0.38059 0.7216,0.5625 1.20803,0.5625 0.39541,0 1.29129,0.25312 1.99084,0.5625 0.69955,0.30937 1.4501,0.5625 1.66793,0.5625 0.46082,0 1.95243,0.72734 2.49081,1.21457 0.50783,0.45957 2.28774,1.24881 2.83784,1.25834 0.57485,0.01 2.57857,1.02653 4.13149,2.09612 0.66357,0.45703 1.28604,0.83097 1.38326,0.83097 0.0972,0 0.84341,0.405 1.65818,0.9 0.81479,0.495 1.59622,0.9 1.73648,0.9 0.31282,0 3.18963,1.89444 3.56661,2.34868 0.14988,0.18056 0.64407,0.44937 1.09823,0.59733 1.00442,0.32725 1.71025,0.87997 4.28305,3.35399 2.25957,2.17278 2.54442,2.83453 1.95219,4.53501 -0.18724,0.53762 -0.34191,1.39064 -0.34371,1.89561 -0.002,0.52969 -0.24183,1.3864 -0.56711,2.025 -0.31009,0.60878 -0.65711,1.66375 -0.77114,2.34438 -0.11403,0.68062 -0.6197,2.01463 -1.12367,2.96446 -0.504,0.94982 -0.91636,1.84144 -0.91636,1.98137 0,0.4004 -1.3356,2.99317 -1.79865,3.49167 -0.22991,0.2475 -0.4869,0.75375 -0.57112,1.125 -0.24973,1.10089 -1.05545,3.26698 -1.2629,3.39519 -0.10577,0.0654 -0.19233,0.26765 -0.19233,0.44949 0,0.64163 -1.55221,3.58879 -2.23328,4.2403 -0.37944,0.36299 -1.10334,1.34422 -1.60864,2.18052 -0.70506,1.1669 -1.05374,1.53671 -1.49922,1.59002 -0.48735,0.0583 -0.6822,0.32119 -1.21457,1.63858 -0.34878,0.86301 -0.83892,1.84609 -1.08921,2.18464 -0.25029,0.33855 -0.45546,0.79683 -0.45591,1.0184 -0.002,0.61445 -0.81493,1.81843 -2.15962,3.19568 -0.668,0.68417 -1.21455,1.36996 -1.21455,1.52398 0,0.15402 -0.30375,0.62599 -0.675,1.04882 -0.37125,0.42283 -0.675,0.91002 -0.675,1.08264 0,0.17262 -0.38894,0.83146 -0.86427,1.4641 -0.47536,0.63263 -1.09244,1.59178 -1.37129,2.13144 -0.61661,1.19328 -1.97435,2.75744 -4.89228,5.63609 -4.84612,4.78084 -5.64489,5.48611 -6.9487,6.13519 -0.73478,0.3658 -1.69034,0.94371 -2.12346,1.28425 -0.43313,0.34054 -1.20287,0.85124 -1.71054,1.1349 -0.50769,0.28368 -1.43935,0.92077 -2.07038,1.41577 -0.63102,0.495 -1.50838,1.16712 -1.94967,1.49362 -0.4413,0.32647 -1.58526,1.30185 -2.54214,2.16751 -6.27901,5.68037 -7.68569,6.6688 -10.3226,7.25335 -0.70605,0.15651 -1.36454,0.47794 -1.6875,0.82372 -0.29133,0.31188 -0.83342,0.72333 -1.20467,0.91431 -0.37125,0.19101 -1.14469,0.73825 -1.71873,1.21613 -0.57405,0.47788 -1.25152,0.86886 -1.50548,0.86886 -0.25396,0 -0.52117,0.0962 -0.5938,0.21368 -0.17289,0.27974 -2.77794,2.2595 -3.17225,2.41081 -0.1678,0.0644 -0.36695,0.31192 -0.44253,0.55008 -0.14877,0.4687 -1.28698,1.16977 -4.15471,2.5591 -0.68063,0.32974 -1.74375,0.89343 -2.3625,1.25267 -0.61875,0.35923 -1.27688,0.65614 -1.4625,0.65979 -0.18563,0.004 -0.64125,0.16875 -1.0125,0.36691 -0.37125,0.19813 -1.22225,0.55183 -1.89108,0.78597 -0.66886,0.23415 -1.52949,0.66082 -1.9125,0.94815 -0.72018,0.54024 -2.63806,1.64135 -4.41761,2.53626 -0.56167,0.28245 -1.21016,0.72237 -1.44112,0.97756 -0.23097,0.25522 -0.53627,0.46402 -0.67842,0.46402 -0.14218,0 -0.60197,0.35437 -1.02177,0.7875 -0.41981,0.43312 -0.92624,0.7875 -1.12543,0.7875 -0.19917,0 -0.71089,0.26113 -1.13711,0.58027 -0.42624,0.31917 -1.28121,0.83696 -1.89996,1.15065 -0.61875,0.31372 -1.27688,0.70266 -1.4625,0.86434 -0.18563,0.16169 -1.04625,0.67219 -1.9125,1.13443 -0.86625,0.46226 -1.87833,1.0525 -2.24906,1.31164 -0.37073,0.25915 -1.02886,0.66206 -1.4625,0.89536 -0.43364,0.2333 -1.39077,0.81549 -2.12692,1.29375 -0.73618,0.47826 -1.45989,0.86956 -1.60826,0.86956 -0.32285,0 -5.908,2.85016 -6.39076,3.26128 -0.18563,0.15809 -0.84375,0.54347 -1.4625,0.8564 -0.61875,0.31295 -1.25242,0.78012 -1.40817,1.03817 -0.15572,0.25803 -0.48696,0.46915 -0.73606,0.46915 -0.2491,0 -0.83043,0.24586 -1.29184,0.54634 -0.46141,0.30047 -1.39581,0.72169 -2.07643,0.936 -0.68063,0.21434 -1.50627,0.57598 -1.83474,0.80368 -0.32848,0.22768 -0.97063,0.41398 -1.427,0.41398 -0.48908,0 -1.06468,0.18477 -1.40186,0.45 -0.31466,0.2475 -0.74853,0.45 -0.96419,0.45 -0.21567,0 -0.50936,0.14128 -0.65268,0.31396 -0.14331,0.17269 -0.62289,0.38194 -1.06574,0.46501 -0.49824,0.0935 -1.20278,0.52074 -1.84824,1.12084 -1.41226,1.31305 -3.57068,2.37519 -4.82677,2.37519 -0.69828,0 -1.10229,0.13068 -1.39128,0.45 -0.22399,0.2475 -0.61936,0.45317 -0.87863,0.45706 -0.25924,0.004 -1.07629,0.30762 -1.81564,0.675 -0.88672,0.4406 -1.68673,0.66794 -2.35041,0.66794 -0.71269,0 -1.24821,0.16776 -1.83618,0.57521 -1.00272,0.69489 -3.53772,1.65598 -4.94235,1.87378 -0.56363,0.0874 -1.38168,0.43207 -1.82124,0.76734 -0.43891,0.33475 -1.06117,0.60867 -1.38279,0.60867 -0.32161,0 -0.71705,0.18643 -0.87876,0.41429 -0.40392,0.56918 -1.15452,0.93607 -1.91047,0.93382 -0.90592,-0.003 -3.6155,0.65578 -4.74581,1.1533 -0.52925,0.23297 -1.09778,0.42359 -1.2634,0.42359 -0.16562,0 -0.56448,0.20713 -0.88634,0.46033 -0.32187,0.25317 -1.13126,0.60255 -1.79865,0.77638 -0.66738,0.17384 -1.55676,0.51329 -1.97638,0.75434 -0.41963,0.24106 -1.4717,0.65952 -2.33795,0.92992 -0.86625,0.27041 -1.90751,0.63506 -2.31388,0.81034 -0.4064,0.17527 -0.92851,0.31869 -1.16028,0.31869 -0.37665,0 -2.74136,1.01389 -3.61334,1.54928 -0.18563,0.11396 -0.7425,0.31617 -1.2375,0.44935 -0.495,0.13317 -1.59411,0.44671 -2.44245,0.69675 -0.84836,0.25005 -1.81023,0.45864 -2.1375,0.46355 -0.32728,0.005 -1.15193,0.30863 -1.83255,0.67493 -0.68063,0.36632 -1.48266,0.66605 -1.7823,0.66609 -0.29963,2e-5 -0.70463,0.14409 -0.9,0.32013 -0.19536,0.17604 -0.7602,0.47059 -1.2552,0.65457 -2.79853,1.04006 -3.513,1.29044 -4.88455,1.71171 -0.83025,0.25499 -1.83479,0.46364 -2.23229,0.46364 -0.39749,0 -0.88259,0.13936 -1.07796,0.30971 -0.19536,0.17032 -1.3677,0.6354 -2.6052,1.03349 -1.2375,0.39807 -2.75625,0.90952 -3.374998,1.13652 -0.61875,0.227 -1.68188,0.48202 -2.3625,0.56671 -0.68063,0.0847 -1.33875,0.2284 -1.4625,0.31936 -0.12375,0.091 -0.93375,0.40345 -1.8,0.69435 -0.86625,0.29093 -1.68654,0.61007 -1.82284,0.70923 -0.13631,0.0991 -1.19943,0.42894 -2.3625,0.73289 -1.16307,0.30395 -2.77279,0.79562 -3.577165,1.0926 -1.618785,0.59764 -1.482457,0.55078 -3.789675,1.3025 -0.908685,0.29606 -1.699357,0.61466 -1.757025,0.70796 -0.05767,0.0933 -0.611797,0.16968 -1.23138,0.16968 -0.619582,0 -1.321987,0.10462 -1.560915,0.23249 -0.238927,0.12787 -1.016955,0.33914 -1.728968,0.46948 -0.71199,0.13037 -1.610235,0.43074 -1.996087,0.66751 -0.385875,0.23679 -0.993375,0.43367 -1.35,0.43754 -0.356648,0.004 -1.05345,0.25647 -1.54845,0.56135 -0.495,0.30487 -1.208813,0.55485 -1.58625,0.55548 -0.377438,0 -0.782438,0.0913 -0.9,0.20142 -0.202253,0.18949 -3.182378,1.26418 -6.40125,2.30845 -0.804375,0.26094 -2.07,0.70484 -2.8125,0.98643 -0.7425,0.28161 -2.29275,0.67151 -3.444998,0.86647 -1.152247,0.19496 -2.569747,0.56999 -3.15,0.83342 -0.580252,0.26343 -1.662502,0.55843 -2.405002,0.65554 -2.085188,0.27275 -4.17357,0.67268 -5.2875,1.01257 -0.556875,0.1699 -1.670625,0.37836 -2.475001,0.46323 -0.804375,0.0849 -1.692877,0.24149 -1.97442,0.34805 -0.281565,0.10656 -1.180215,0.30051 -1.99701,0.43099 -0.816795,0.13048 -1.781775,0.39067 -2.14443,0.5782 -0.362655,0.18754 -1.64088,0.44258 -2.84049,0.56678 -1.199632,0.12418 -2.8899,0.30395 -3.75615,0.39946 -1.566877,0.17278 -4.460107,0.90588 -5.9625,1.51083 -0.433125,0.1744 -1.546875,0.50929 -2.475,0.74421 -1.465695,0.37098 -3.835665,1.1736 -5.2875,1.79067 -0.764347,0.32487 -3.56292,0.93332 -4.283685,0.93132 -0.37602,0 -1.080855,0.20061 -1.566315,0.44811 -0.48546,0.2475 -0.97983,0.45 -1.098608,0.45 -0.118777,0 -0.376695,0.14546 -0.573165,0.32325 -0.38484,0.34828 -0.600052,0.39956 -3.840727,0.91508 -2.960573,0.47097 -4.029728,0.72036 -6.75,1.57448 -1.2993752,0.40799 -2.9967527,0.79317 -3.7719677,0.85595 -0.7865325,0.0637 -1.8088425,0.32233 -2.3131801,0.5852 -0.497025,0.25906 -1.1578275,0.47104 -1.468395,0.47104 -0.3105675,0 -0.8480252,0.20947 -1.1943222,0.46552 -0.746528,0.55193 -1.994513,0.8717 -3.430845,0.8791 -0.601245,0.003 -1.149323,0.13565 -1.29708,0.31369 -0.318218,0.38345 -1.768658,0.63797 -3.410033,0.59841 -0.997402,-0.024 -1.33227,0.0627 -1.666102,0.4316 -0.364343,0.40259 -0.685913,0.46168 -2.512823,0.46168 -1.26369,0 -2.388173,0.12226 -2.833875,0.30811 -1.65879,0.69172 -2.40138,0.87221 -4.226378,1.02726 -1.511392,0.12839 -2.087775,0.28292 -2.74824,0.73679 -0.45963,0.3159 -1.320255,0.64685 -1.9125,0.7355 -0.592213,0.0886 -1.176936,0.22288 -1.299375,0.2983 -0.122438,0.0754 -1.045075,0.1544 -2.050303,0.17544 -1.997053,0.0418 -3.329265,0.37471 -4.027082,1.00633 -0.617728,0.5591 -1.558726,0.88727 -2.544226,0.88727 -0.75575,0 -4.10868,0.71525 -6.905774,1.47316 -0.61875,0.16765 -1.884375,0.47459 -2.8125,0.68209 -0.928125,0.20747 -1.783687,0.46555 -1.90125,0.5735 -0.117562,0.10793 -0.890014,0.19625 -1.716561,0.19625 -1.45463,0 -2.756842,0.40576 -4.741904,1.47755 -0.328469,0.17734 -0.800397,0.32245 -1.04873,0.32245 -0.501543,0 -2.920129,0.85772 -3.360305,1.19171 -0.348122,0.26413 -0.367585,0.97837 -0.03231,1.18559 0.13692,0.0846 1.019577,0.14488 1.961463,0.13392 1.090777,-0.0128 2.106132,0.11986 2.796682,0.36511 1.026698,0.36466 1.120478,0.36423 1.769272,-0.008 0.852295,-0.48915 2.007531,-0.49993 3.578492,-0.0334 1.300912,0.38634 3.027783,0.33894 5.957647,-0.16356 2.432522,-0.41717 16.019836,-0.26415 16.73523,0.18849 0.368798,0.23334 1.34181,0.3674 3.129345,0.43112 2.27574,0.0812 2.701058,0.0368 3.46545,-0.36167 1.281308,-0.66784 4.520633,-0.64858 5.831528,0.0347 0.789592,0.41157 1.22652,0.47612 2.76318,0.40822 1.9809,-0.0875 9.3557477,-0.0651 15.1002678,0.0458 2.8409402,0.0549 3.7060872,0.14474 4.1031452,0.42608 0.39285,0.27835 0.772177,0.32 1.730295,0.18999 1.725637,-0.23418 10.30815,-0.34121 10.645403,-0.13277 0.153382,0.0948 0.88254,0.0536 1.620382,-0.0916 0.737843,-0.14515 1.675485,-0.19926 2.083658,-0.12027 0.765742,0.14826 3.00375,0.44253 6.142117,0.80766 4.429643,0.51537 5.48964,0.66783 6.8625,0.98703 0.804375,0.18705 2.120625,0.40473 2.925,0.48375 0.804375,0.079 2.11743,0.39704 2.917913,0.70666 1.260562,0.4876 1.850917,0.56799 4.40937,0.6005 2.178292,0.0277 3.05514,0.1215 3.339202,0.35739 0.21186,0.17593 0.910778,0.33894 1.553108,0.36225 1.310783,0.0476 3.557025,0.55202 5.158373,1.15846 1.056037,0.39994 1.069785,0.39917 1.555515,-0.0866 0.462105,-0.46212 0.528547,-0.47016 1.165095,-0.14098 0.509287,0.26336 0.983655,0.30904 1.931985,0.18603 1.62486,-0.21078 4.801702,-0.15683 6.09444,0.10352 0.556875,0.11214 1.62,0.32587 2.3625,0.47495 0.7425,0.14909 1.805625,0.30398 2.3625,0.34421 3.955702,0.28579 6.168465,0.65977 6.975,1.17884 0.391207,0.2518 1.144867,0.37166 2.475,0.39362 1.514407,0.025 2.203807,0.15509 3.311978,0.62493 0.769702,0.32634 1.652152,0.59335 1.960987,0.59335 0.320468,0 0.857948,0.28978 1.252035,0.675 0.814275,0.79598 1.001948,0.82386 1.5147,0.225 0.420548,-0.49115 1.19412,-0.58153 1.872045,-0.21872 0.23769,0.12721 1.370093,0.38468 2.516468,0.57215 1.146356,0.18749 2.337416,0.45632 2.646796,0.59742 0.30937,0.1411 1.22062,0.32992 2.025,0.41963 3.62308,0.40403 5.30743,0.72868 5.7375,1.10596 0.2475,0.2171 0.95625,0.45623 1.575,0.53136 2.415598,0.29338 3.399068,0.51757 3.994058,0.91053 0.34049,0.22487 1.35299,0.50175 2.25,0.61529 3.81139,0.4824 4.39677,0.60554 5.68094,1.19511 0.7425,0.34089 2.16,0.76072 3.15,0.93296 3.11634,0.54216 3.71497,0.69581 4.1127,1.05556 0.22991,0.20795 1.21021,0.45306 2.4123,0.60314 1.11375,0.13905 2.71849,0.34204 3.56611,0.45112 1.05012,0.13512 1.80668,0.38232 2.37461,0.77589 0.45841,0.31768 1.06087,0.5776 1.33879,0.5776 0.27794,0 0.79765,0.15116 1.1549,0.3359 0.35728,0.18475 0.80584,0.27594 0.99682,0.20266 0.55215,-0.21186 5.9976,1.20749 6.99854,1.82417 0.25013,0.1541 0.85763,0.3377 1.35,0.40797 2.06327,0.2945 3.69103,0.60657 4.95301,0.94963 0.73823,0.20068 2.05097,0.50855 2.91722,0.68418 5.3581,1.08632 6.02399,1.26729 7.9875,2.1708 0.92812,0.42707 2.54812,0.95553 3.6,1.17434 1.05187,0.21882 2.115,0.48213 2.3625,0.58516 0.2475,0.10301 0.80437,0.23634 1.2375,0.2963 2.41269,0.33404 4.79488,0.97736 5.08421,1.37304 0.22012,0.30101 0.7425,0.47766 1.78303,0.60294 0.80944,0.0974 1.6936,0.33259 1.96479,0.52254 0.2712,0.18996 0.64231,0.34537 0.8247,0.34537 0.18236,0 0.70931,0.26177 1.17099,0.58172 0.46165,0.31992 1.2771,0.63837 1.81208,0.70764 0.66998,0.0868 1.23547,0.36088 1.8171,0.88081 0.46442,0.41515 1.07192,0.75551 1.35,0.75632 0.27808,0 0.80935,0.20263 1.1806,0.44851 0.37125,0.24588 0.88517,0.44771 1.14203,0.44852 0.25686,0 0.70483,0.25461 0.99547,0.56398 0.45139,0.48049 0.72807,0.5625 1.8976,0.5625 1.12547,0 1.41917,0.0801 1.65017,0.45 0.18068,0.28928 0.52473,0.45 0.96334,0.45 0.37526,0 1.31096,0.19521 2.07934,0.43382 0.76837,0.23859 2.06797,0.49845 2.88801,0.57742 1.25516,0.12092 1.59097,0.24802 2.12335,0.8037 0.39494,0.41225 0.86139,0.66006 1.24231,0.66006 0.33548,0 1.05059,0.25191 1.58915,0.5598 0.53859,0.30787 1.13655,0.56099 1.32883,0.5625 0.19229,0.002 0.69309,0.35708 1.1129,0.7902 0.7814,0.8062 1.29613,0.95258 2.00875,0.57121 0.31142,-0.16668 0.52351,-0.0893 0.92441,0.3375 0.37101,0.39492 0.75918,0.55379 1.35297,0.55379 0.83689,0 4.08362,1.32633 4.36626,1.78367 0.082,0.13272 0.34308,0.24133 0.5801,0.24133 0.25126,0 0.57649,0.28145 0.78001,0.675 0.24516,0.47408 0.51475,0.675 0.90578,0.675 0.55444,0 1.45672,0.6968 1.45672,1.125 0,0.12375 0.2895,0.225 0.64332,0.225 0.35383,0 1.21254,0.30375 1.90824,0.675 0.69573,0.37125 1.44403,0.67907 1.66293,0.68405 0.65619,0.0149 2.74197,0.99947 3.46923,1.63764 0.37373,0.32793 1.10122,0.70884 1.61665,0.84642 0.51541,0.13759 1.74713,0.73015 2.73713,1.31679 0.99,0.58662 2.30625,1.35066 2.925,1.69785 0.61875,0.34718 1.54264,0.96762 2.0531,1.37874 1.05446,0.84928 1.65121,1.12911 2.80444,1.3151 0.54063,0.0872 0.90342,0.30935 1.0976,0.67216 0.15952,0.29806 0.54355,0.60557 0.85338,0.68333 0.30985,0.0778 0.72718,0.33187 0.92743,0.5647 0.20022,0.23281 1.32592,0.92102 2.50155,1.52937 3.10774,1.60815 3.72503,2.01297 4.00446,2.62625 0.16562,0.36349 0.5544,0.63169 1.14698,0.79126 0.66928,0.18022 1.44475,0.78174 3.06034,2.37386 1.54644,1.52399 2.32117,2.13248 2.71505,2.13248 0.30746,0 0.76739,0.24869 1.04022,0.5625 0.26901,0.30938 0.7043,0.5625 0.96732,0.5625 0.263,0 0.81887,0.25135 1.23525,0.55854 0.41636,0.30717 1.22074,0.73478 1.78747,0.9502 0.64195,0.24401 1.62382,0.96653 2.60442,1.91646 0.86571,0.83864 1.70586,1.5248 1.867,1.5248 0.16113,0 0.51807,0.24287 0.79317,0.53971 0.27511,0.29684 1.12473,0.85709 1.88805,1.24497 0.76331,0.3879 1.64688,1.01313 1.9635,1.3894 0.31662,0.37626 1.14147,0.98606 1.83301,1.35508 2.03636,1.08668 3.0535,1.92661 4.40987,3.64165 1.8819,2.37951 2.27031,2.709 4.94466,4.19434 0.95031,0.52778 2.7988,2.41321 3.868,3.94526 0.22896,0.32805 0.89996,0.89408 1.4911,1.25782 0.77467,0.47666 1.11139,0.84431 1.20586,1.31667 0.0738,0.36889 0.40345,0.83509 0.75414,1.06648 1.62951,1.07521 7.10435,7.06977 7.74897,8.48459 0.14763,0.32396 0.38507,0.58903 0.52767,0.58903 0.38253,0 1.35498,1.13146 1.67821,1.95257 0.1548,0.3933 0.44183,0.77664 0.63785,0.85185 1.00215,0.38455 2.30571,1.42677 2.51746,2.01272 0.13012,0.36004 0.64123,1.05129 1.13578,1.53607 0.49455,0.48479 0.89919,1.07379 0.89919,1.30892 0,0.23512 0.27551,0.60703 0.61222,0.82642 1.13124,0.73713 4.78773,4.64364 4.78926,5.11675 0,0.25146 0.20264,0.76095 0.44852,1.1322 0.24588,0.37125 0.4477,0.85093 0.44851,1.06594 0,0.21501 0.39846,0.64152 0.88365,0.94779 0.48519,0.30629 0.94275,0.74783 1.01682,0.98118 0.0741,0.23337 0.38097,0.53653 0.68202,0.67369 0.30105,0.13716 0.71608,0.58284 0.92229,0.99039 0.20622,0.40756 0.86369,1.30884 1.46104,2.00286 0.59733,0.69403 1.15218,1.52518 1.23296,1.84702 0.0808,0.32184 0.28881,0.70297 0.46228,0.84695 0.1735,0.14397 0.31543,0.5901 0.31543,0.99139 0,0.40129 0.2025,0.98703 0.45,1.30169 0.2475,0.31464 0.45,0.68268 0.45,0.81783 0,0.13518 0.0958,0.24577 0.21296,0.24577 0.34823,0 1.81204,2.36574 1.81204,2.92851 0,0.56338 0.91282,2.28245 1.636,3.08102 0.35331,0.39015 0.46334,0.87027 0.51162,2.23283 0.0676,1.90714 -0.11418,2.61031 -0.89383,3.45764 -0.28465,0.30938 -0.62879,0.89575 -0.76471,1.30304 -0.25319,0.75866 -2.06008,2.74696 -2.49633,2.74696 -0.45504,0 -1.14275,0.89845 -1.14275,1.49294 0,0.35582 -0.24746,0.82562 -0.61875,1.17475 -1.9674,1.84986 -4.01708,3.63231 -4.17686,3.63231 -0.10143,0 -0.50672,0.23913 -0.90065,0.53141 -0.39393,0.29227 -1.35747,0.86775 -2.14119,1.27881 -0.79279,0.41584 -1.84084,1.21596 -2.3625,1.80362 -1.28695,1.44985 -3.38791,3.10765 -4.38482,3.45991 -0.45524,0.16088 -1.48586,0.74199 -2.29023,1.29132 -0.80438,0.54936 -2.31021,1.44851 -3.34631,1.99814 -1.03611,0.54961 -2.43419,1.48023 -3.10685,2.06804 -0.67266,0.58781 -1.41187,1.06875 -1.64268,1.06875 -0.2308,0 -0.71262,0.24653 -1.07071,0.54783 -0.35808,0.30132 -1.09991,0.72148 -1.6485,0.9337 -0.5486,0.21222 -1.25058,0.61632 -1.55995,0.898 -0.30938,0.28166 -1.27125,0.88371 -2.1375,1.33787 -0.86625,0.45419 -1.82813,1.05262 -2.1375,1.32987 -1.23854,1.10994 -2.61295,1.70273 -3.94787,1.70273 -1.10163,0 -1.38747,0.0942 -2.04901,0.675 -0.42282,0.37125 -0.91899,0.675 -1.10259,0.675 -0.42298,0 -2.46402,1.03367 -3.40427,1.72408 -0.39393,0.28926 -0.97524,0.52592 -1.2918,0.52592 -0.31657,0 -1.03983,0.35437 -1.60724,0.7875 -0.56743,0.43312 -1.23298,0.7875 -1.47899,0.7875 -0.49448,0 -1.80713,0.50427 -4.69323,1.80299 -1.05188,0.47333 -2.14085,0.92642 -2.41997,1.00685 -0.27911,0.0804 -0.78536,0.37771 -1.125,0.6606 -0.33963,0.28292 -1.02253,0.64249 -1.51753,0.79911 -0.495,0.1566 -1.15313,0.50956 -1.4625,0.78435 -0.82629,0.73393 -2.57891,1.85378 -3.18513,2.03515 -0.29007,0.0868 -0.72987,0.2835 -0.97737,0.43713 -0.2475,0.15363 -0.70313,0.3386 -1.0125,0.41105 -1.81074,0.42406 -2.58168,0.66711 -3.64802,1.15005 -1.31139,0.59393 -3.61939,1.48099 -5.01448,1.92728 -1.03973,0.33262 -4.15479,1.81012 -5.97909,2.83597 -1.09665,0.61665 -5.35171,2.12447 -5.9953,2.12447 -0.12816,0 -0.35683,0.1492 -0.50816,0.33154 -0.15134,0.18236 -0.64467,0.39847 -1.09632,0.48028 -1.08247,0.19609 -2.4846,0.74801 -3.18363,1.25323 -0.30938,0.22358 -1.42313,0.61693 -2.475,0.8741 -1.05188,0.25718 -2.3175,0.65858 -2.8125,0.89197 -2.05837,0.9706 -4.55598,1.7001 -8.55,2.49732 -0.96996,0.19361 -1.52062,0.44921 -1.95606,0.90801 -0.39002,0.41092 -0.83518,0.63855 -1.24875,0.63855 -0.35348,0 -0.73888,0.088 -0.85644,0.1955 -0.30742,0.28118 -3.02549,1.1545 -3.59323,1.1545 -0.26377,0 -0.72504,0.26687 -1.02506,0.59305 -0.74288,0.80771 -1.98654,1.32759 -4.25796,1.77998 -1.05188,0.20947 -2.01375,0.46096 -2.1375,0.55881 -0.28497,0.22534 -2.73162,0.82082 -3.52143,0.85707 -0.32803,0.0151 -1.39116,0.28116 -2.3625,0.59134 -0.97133,0.31021 -2.04953,0.56529 -2.39601,0.56687 -0.34645,0.002 -0.90488,0.14508 -1.24094,0.31885 -0.33606,0.17379 -1.92215,0.48498 -3.52462,0.69158 -1.60245,0.20657 -2.98141,0.41751 -3.06435,0.46874 -0.0829,0.0513 -0.79524,0.19548 -1.58296,0.32049 -0.7877,0.12503 -2.24219,0.38318 -3.23219,0.57366 -0.99,0.19051 -2.50875,0.44336 -3.375,0.56189 -0.86625,0.11856 -2.23313,0.41137 -3.0375,0.65068 -0.80438,0.23931 -2.01938,0.49664 -2.7,0.57184 -0.68063,0.0752 -1.67265,0.24874 -2.20453,0.38569 -0.75508,0.1944 -1.08918,0.18358 -1.52444,-0.0494 -0.45662,-0.24437 -0.75879,-0.24671 -1.67061,-0.013 -0.61224,0.15691 -1.41315,0.2194 -1.77979,0.13887 -0.44768,-0.0983 -0.8528,-0.0244 -1.2335,0.22502 -0.37161,0.2435 -1.40348,0.44003 -2.99576,0.57058 -1.33587,0.10953 -3.015,0.31804 -3.73135,0.46336 -0.89233,0.18102 -1.99053,0.20451 -3.4875,0.0746 -1.20177,-0.10429 -2.69127,-0.18452 -3.31002,-0.17833 -1.42734,0.0144 -5.5022,0.43742 -6.975,0.72423 -1.90301,0.37057 -3.41053,0.42304 -3.94446,0.13731 z"
         id="path4237"
         inkscape:connector-curvature="0" />
      <path
         style="fill:#fbe843"
         d="m 330.40136,762.17827 c -0.13795,-0.16623 -0.29515,-1.71396 -0.36043,-3.54852 -0.32895,-9.24691 -0.39305,-11.98928 -0.44948,-19.22868 -0.0338,-4.33125 -0.17377,-8.685 -0.31111,-9.675 -0.51531,-3.71461 -0.39021,-38.77028 0.14468,-40.53698 0.13273,-0.43839 0.1404,-1.51911 0.02,-2.8125 -0.71127,-7.6374 -0.80973,-20.26598 -0.22023,-28.25233 0.23634,-3.20207 0.24573,-4.50995 0.0428,-5.9625 -0.14298,-1.02337 -0.26307,-3.02506 -0.26685,-4.44818 -0.004,-1.42313 -0.1523,-3.65063 -0.33007,-4.95 -0.4871,-3.56016 -0.45203,-14.17856 0.058,-17.55 0.64373,-4.25543 0.40829,-14.05535 -0.41892,-17.4375 -0.33926,-1.38706 -0.3486,-8.01277 -0.0155,-11.025 0.76664,-6.93369 0.62991,-12.86859 -0.4536,-19.6875 -0.1278,-0.80438 -0.28305,-6.50068 -0.34497,-12.65846 l -0.11259,-11.19593 10.76882,0.0584 10.76881,0.0585 0.0663,1.77797 c 0.0365,0.97789 -0.0355,2.07011 -0.15997,2.42716 -0.15375,0.441 -0.15082,0.84492 0.009,1.25953 0.27594,0.71539 0.30348,4.10711 0.11732,14.44784 -0.094,5.22081 -0.0573,7.94391 0.11938,8.85978 0.18569,0.96246 0.18826,1.51348 0.009,2.025 -0.29547,0.84532 -0.35892,4.15966 -0.19006,9.92772 0.0688,2.35125 0.19017,7.97062 0.26964,12.4875 0.0795,4.51687 0.17656,8.76937 0.21576,9.45 0.25114,4.36086 0.6059,8.5504 0.90497,10.6875 0.35131,2.51046 0.82681,8.9694 0.81166,11.025 -0.0237,3.21977 -0.22907,7.14147 -0.44174,8.4375 -0.4421,2.69394 -1.01862,5.0499 -1.33675,5.46261 -0.21327,0.27671 -0.0423,5.04025 0.40147,11.18739 0.66629,9.22902 0.78595,12.29573 0.63207,16.2 -0.15687,3.98063 -0.41402,5.92326 -0.89714,6.77749 -0.29135,0.51512 -0.31199,3.82455 -0.077,12.34751 0.0719,2.60606 0.44602,5.90886 0.79065,6.979 0.1564,0.48569 0.20491,1.52894 0.1255,2.7 -0.0711,1.04967 -0.13239,2.21225 -0.1361,2.5835 -0.0119,1.18894 0.33498,4.4916 0.4979,4.74149 0.0866,0.13282 0.008,1.09469 -0.17516,2.1375 -0.27479,1.56636 -0.30798,3.53904 -0.19091,11.346 0.1611,10.74247 0.13374,13.70923 -0.13289,14.41053 -0.10291,0.27068 -0.0963,0.88529 0.0148,1.3658 0.11102,0.48053 0.2124,3.57527 0.2253,6.87721 0.0221,5.61697 -0.007,6.07156 -0.44379,7.05985 -0.77718,1.75696 -0.58806,2.849 0.52924,3.05615 0.65635,0.12168 0.46775,0.50409 -0.36659,0.74334 -0.40833,0.11709 -4.95542,0.24579 -10.10466,0.28602 -7.51453,0.0587 -9.41054,0.0149 -9.60694,-0.2217 z"
         id="path4235"
         inkscape:connector-curvature="0" />
      <path
         style="fill:#fbe843"
         d="m -186.15483,760.04482 c -0.068,-0.21656 -0.21679,-0.6264 -0.33052,-0.91077 -0.11372,-0.28436 -0.26174,-3.95958 -0.32892,-8.16717 -0.0672,-4.20761 -0.21901,-7.90497 -0.33742,-8.21639 -0.1184,-0.31142 -0.21527,-1.67841 -0.21527,-3.03775 0,-1.83206 -0.0937,-2.65279 -0.36231,-3.17214 -0.27267,-0.52728 -0.32521,-1.01162 -0.21235,-1.95759 0.2063,-1.72926 0.15305,-5.9337 -0.1128,-8.90694 -0.37763,-4.22325 -0.41409,-5.79386 -0.17238,-7.42499 0.41159,-2.77749 0.45564,-3.65652 0.20655,-4.12194 -0.134,-0.25038 -0.2528,-1.50099 -0.264,-2.77915 -0.0112,-1.27816 -0.12155,-2.72034 -0.24522,-3.20486 -0.4701,-1.84171 -0.8071,-15.18367 -0.5489,-21.73155 0.10354,-2.62589 0.20214,-7.35287 0.19359,-9.28125 -0.002,-0.46407 0.002,-2.33719 0.01,-4.1625 0.0241,-5.97245 -0.24311,-17.86543 -0.48662,-21.65625 -0.24964,-3.8862 -0.52894,-11.22399 -0.52241,-13.725 0.0226,-8.67771 0.0256,-8.72076 0.64526,-9.4572 0.56369,-0.66992 0.57352,-0.73546 0.34615,-2.3099 -0.12871,-0.89122 -0.24664,-2.27853 -0.26206,-3.0829 -0.0319,-1.66462 -0.0398,-1.39046 0.12886,-4.46997 0.0766,-1.39819 0.0295,-2.70497 -0.11747,-3.2625 -0.25453,-0.96529 -0.47424,-5.43699 -0.60949,-12.40503 -0.0432,-2.2275 -0.1819,-5.92313 -0.30813,-8.2125 -0.12624,-2.28938 -0.20805,-8.76938 -0.1818,-14.4 0.0575,-12.33734 0.057,-13.17042 -0.008,-14.175 -0.0388,-0.59668 0.10801,-9.44607 0.17267,-10.40864 0.006,-0.0941 4.39056,-0.14476 9.74275,-0.1125 l 9.73125,0.0586 0.0696,0.96516 c 0.0383,0.53084 -0.1085,1.54334 -0.3262,2.25 -0.31999,1.03871 -0.38501,1.9667 -0.33942,4.84443 0.0433,2.73267 -0.40117,15.92538 -0.71391,21.19041 -0.0591,0.99479 0.2801,5.41818 0.53485,6.975 0.1215,0.7425 0.36539,3.5775 0.54199,6.3 0.30027,4.62935 0.29912,8.21047 -0.005,14.175 -0.0693,1.36125 -0.17615,4.60125 -0.2374,7.2 -0.0613,2.59875 -0.1906,6.49687 -0.28743,8.6625 -0.10018,2.24068 -0.086,4.85862 0.0328,6.075 0.2411,2.46726 0.0332,12.05403 -0.29028,13.3875 -0.41652,1.71684 -0.50459,7.46691 -0.23948,15.6375 0.14655,4.51687 0.36279,9.17437 0.48053,10.35 0.37866,3.78078 0.24536,19.28331 -0.21087,24.525 -0.21805,2.50515 -0.20224,3.92474 0.0902,8.1 0.47503,6.78179 0.73058,16.19072 0.52249,19.23749 -0.093,1.36125 -0.22644,3.63938 -0.29659,5.0625 -0.0702,1.42313 -0.25104,3.70125 -0.40196,5.0625 -0.3261,2.9412 -0.30279,8.23226 0.0446,10.125 0.75274,4.10117 1.19604,14.14494 0.64847,14.6925 -0.19903,0.19904 -2.21157,0.27 -7.65706,0.27 -6.83815,0 -7.39625,-0.0293 -7.5108,-0.39375 z"
         id="path4233"
         inkscape:connector-curvature="0" />
      <path
         style="fill:#fbe843"
         d="m -13.098604,390.52269 c -0.615533,-0.10122 -1.476158,-0.32823 -1.9125,-0.50447 -0.436343,-0.17625 -1.27575,-0.43452 -1.86534,-0.57395 -1.374008,-0.32492 -9.329603,-0.32417 -12.878011,10e-4 -1.485,0.13617 -3.763125,0.28039 -5.0625,0.32049 -4.639223,0.14315 -7.327199,0.33375 -8.291473,0.58794 -0.745668,0.19656 -2.159028,0.18802 -5.930615,-0.0359 -3.286507,-0.19509 -6.324291,-0.23613 -9.033527,-0.12204 -6.732405,0.28351 -33.198341,0.20336 -34.339769,-0.104 -0.976209,-0.26286 -17.333731,-0.61459 -21.379621,-0.45971 -2.56995,0.0984 -5.68866,0.0761 -17.775,-0.12716 -12.86633,-0.21634 -17.11555,-0.19217 -19.42924,0.11051 -1.00829,0.13191 -3.04826,0.26746 -4.53326,0.30123 l -2.7,0.0614 -0.0587,-9.2653 c -0.055,-8.68252 -0.0338,-9.27237 0.3375,-9.37764 0.45609,-0.12932 12.92185,-0.20426 19.40873,-0.11669 2.41313,0.0326 5.55188,-0.0577 6.975,-0.20059 2.38365,-0.23933 14.90907,-0.3502 16.9875,-0.15036 0.495,0.0476 1.76063,0.18472 2.8125,0.30473 1.2449,0.14202 3.09063,0.14024 5.2875,-0.005 2.63747,-0.17447 19.379867,-0.66136 22.162505,-0.6445 0.309375,0.002 1.929375,0.10302 3.6,0.22477 8.246236,0.60097 21.757774,0.84202 22.571041,0.40266 0.323764,-0.17491 2.175971,-0.28683 5.428184,-0.32801 3.05469,-0.0387 5.174091,-0.16082 5.559352,-0.3204 0.387128,-0.16035 1.030414,-0.1967 1.700773,-0.0961 0.592983,0.089 2.90065,0.18925 5.12815,0.22282 2.2275,0.0336 4.455,0.16197 4.95,0.28536 0.495,0.12339 2.878493,0.24202 5.296635,0.26361 2.418165,0.0216 5.00004,0.14564 5.7375,0.27567 0.737483,0.13002 1.796491,0.24381 2.353365,0.25285 1.236578,0.0201 5.504221,-0.40373 8.100001,-0.80442 1.247107,-0.1925 2.538765,-0.23795 3.7125,-0.13062 3.7201723,0.34019 10.16226,0.4605 26.55,0.49585 l 16.875,0.0364 1.115708,-0.52947 c 0.963562,-0.45728 1.316385,-0.50893 2.5875,-0.37884 0.809482,0.0828 1.826167,0.15125 2.259292,0.152 1.466865,0.003 4.610588,-0.37148 4.950001,-0.58896 0.353745,-0.22665 1.470465,-0.41767 4.8375,-0.82744 1.536007,-0.18694 3.030142,-0.17465 6.1875,0.0509 2.289375,0.16353 5.630625,0.30731 7.425,0.31949 1.794375,0.0122 3.616875,0.1 4.05,0.19504 0.433125,0.0951 1.033942,0.0815 1.33515,-0.0302 0.533047,-0.19765 2.028982,0.0891 2.399917,0.46006 0.09072,0.0907 0.578363,0.16716 1.08369,0.16987 0.505305,0.003 1.360103,0.20522 1.899563,0.45 0.912397,0.41401 1.500997,0.44575 8.4375,0.45487 4.101165,0.005 8.519805,0.11981 9.819185,0.25425 2.80242,0.28997 3.53787,0.28638 7.0875,-0.0346 3.262518,-0.29499 4.458728,-0.31918 5.567128,-0.1126 0.67167,0.12519 1.06933,0.0382 1.96461,-0.42997 1.03927,-0.54342 1.33569,-0.58693 3.99854,-0.58693 3.08828,0 4.7734,0.39053 5.7847,1.3406 0.61101,0.57401 2.15134,0.82515 4.73502,0.77201 3.21225,-0.0661 4.49399,-0.28988 4.7396,-0.82763 0.2774,-0.60738 0.55975,-0.73479 2.6548,-1.19804 1.36935,-0.30278 1.91621,-0.33582 2.41875,-0.14613 0.4504,0.17001 0.83891,0.17468 1.2681,0.0152 0.42027,-0.15613 3.79437,-0.15829 10.51875,-0.007 9.68627,0.21831 10.74015,0.28761 11.74002,0.77198 0.27882,0.13508 0.76368,0.16413 1.125,0.0674 1.24383,-0.33294 5.19577,-0.0228 7.15998,0.56196 0.50292,0.14972 2.66899,0.29679 4.90945,0.33335 2.2052,0.036 6.86864,0.13936 10.36321,0.22974 6.19479,0.1602 6.37713,0.15238 7.28784,-0.31222 0.56014,-0.28576 1.35841,-0.47653 1.99406,-0.47653 0.61538,0 1.21284,-0.13831 1.42434,-0.32973 0.59159,-0.53537 3.97591,-0.79201 10.3586,-0.78551 4.2448,0.004 6.57828,0.10525 8.1,0.35035 2.38059,0.38343 12.28284,0.87447 13.40172,0.66457 0.39422,-0.074 1.03536,-0.43892 1.42472,-0.81102 l 0.70794,-0.67655 6.68907,0.0734 c 4.7776,0.0525 6.94622,0.15867 7.58905,0.37168 0.495,0.16404 2.21625,0.37477 3.825,0.46831 3.64641,0.21201 6.05963,0.54022 7.6439,1.03962 1.01592,0.32024 1.37624,0.34132 2.10454,0.12311 0.48332,-0.14481 1.33555,-0.26328 1.89387,-0.26328 0.61083,0 1.12259,-0.12954 1.28502,-0.32526 0.14848,-0.17889 0.84431,-0.43896 1.54631,-0.57794 0.702,-0.13897 1.63073,-0.33938 2.06386,-0.44535 0.78023,-0.19089 7.50107,-0.36385 9.45,-0.24319 1.3099,0.0811 4.93717,0.0354 10.0125,-0.12608 4.61299,-0.14678 5.24623,-0.14617 12.47404,0.0121 2.90073,0.0635 5.43198,0.18093 5.625,0.26095 1.43168,0.59353 7.30404,0.89072 11.26346,0.57003 2.73681,-0.22167 5.98232,-0.28733 8.775,-0.17753 l 1.0125,0.0398 0.0627,8.325 c 0.0345,4.57875 0.0106,8.53924 -0.053,8.80109 -0.0816,0.33599 -0.39803,0.54751 -1.07519,0.71877 -3.93621,0.9955 -6.66758,1.25631 -13.33453,1.27325 -2.2275,0.006 -7.79625,0.15333 -12.375,0.32815 -7.79276,0.29752 -8.41851,0.29282 -9.7875,-0.0736 -0.80438,-0.21528 -2.52563,-0.50538 -3.825,-0.64467 -2.68749,-0.28809 -9.17359,-0.25127 -11.025,0.0626 -1.75446,0.29742 -12.05962,0.31427 -13.1625,0.0215 -1.29222,-0.34301 -6.4686,-0.30056 -11.8125,0.0969 -7.64643,0.56867 -14.36866,0.40456 -15.8121,-0.386 -0.62953,-0.34479 -3.12827,-0.34092 -9.5004,0.0147 -7.13757,0.39832 -35.60916,0.45708 -36.27804,0.0749 -0.93084,-0.53191 -2.57114,-0.71764 -3.24776,-0.36775 -0.38072,0.19698 -1.30741,0.3178 -2.4367,0.3178 -1.08709,0 -2.06748,0.1233 -2.42994,0.3056 -0.91374,0.4596 -8.12288,0.88783 -11.97006,0.71103 -1.79438,-0.0825 -6.95813,-0.12706 -11.475,-0.0991 -14.19417,0.0879 -21.01035,0.0634 -29.3625,-0.1052 -9.63817,-0.19461 -14.01516,-0.17823 -17.595718,0.0658 -2.67116,0.18208 -7.1251,-0.014 -9.62928,-0.42385 -1.23705,-0.20248 -13.35416,-0.30937 -15.187505,-0.13397 -0.433125,0.0414 -1.243125,0.18332 -1.8,0.31531 -1.777658,0.42131 -7.14501,0.56795 -8.775,0.23973 -0.934763,-0.18822 -3.65463,-0.31527 -7.5375,-0.35208 -3.34125,-0.0317 -10.53,-0.14019 -15.975001,-0.24113 -5.445,-0.10095 -10.5075,-0.10543 -11.25,-0.01 -0.7425,0.0955 -4.69125,0.22344 -8.775,0.28441 -4.08375,0.061 -10.310625,0.18138 -13.8375,0.26759 -3.526875,0.0862 -6.766875,0.14518 -7.2,0.13104 -0.433125,-0.0141 -1.9012502,0.0752 -3.2625002,0.19847 -3.4567651,0.3131 -7.6664698,0.3965 -8.9941498,0.17819 z"
         id="path4355"
         inkscape:connector-curvature="0" />
      <path
         style="fill:#131114"
         d="m -5.4765492,1030.7815 c -2.6203726,-0.5701 -5.0197498,-2.1637 -5.9334298,-3.9407 -0.625185,-1.216 -0.939128,-3.1448 -0.981113,-6.0281 l -0.03836,-2.6344 4.0499997,0 4.0500001,0 0.1125,3.2268 c 0.1064475,3.053 0.14112,3.25 0.64368,3.6563 0.73143,0.5913 1.7339402,0.5472 2.3860352,-0.1049 0.646515,-0.6465 0.910282,-2.1289 0.71361,-4.0105 -0.264038,-2.5261 -0.31815,-2.5819 -7.0058253,-7.2261 -2.9418977,-2.0429 -3.8686277,-3.0551 -4.6090347,-5.034 -0.99324,-2.6547 -0.824175,-7.9095 0.327577,-10.18239 1.006965,-1.98711 3.3747302,-3.38193 6.5314578,-3.84755 5.1852602,-0.76484 10.4519702,1.05764 11.7322872,4.05981 0.380633,0.89255 0.908483,5.80103 0.686138,6.38053 -0.130545,0.3401 -0.564548,0.3735 -4.144613,0.3184 l -3.998812,-0.062 -0.1125,-2.2144 c -0.100823,-1.9845 -0.167648,-2.259 -0.64368,-2.6437 -0.7044077,-0.56938 -1.2259352,-0.54143 -1.9786277,0.106 -0.550215,0.4733 -0.6329925,0.7226 -0.71361,2.1493 -0.1117575,1.9779 0.3448125,3.3427 1.379025,4.1223 0.3956625,0.2983 1.8719777,1.2713 3.2807027,2.1622 6.261907,3.9606 7.36515,5.597 7.613955,11.2941 0.248085,5.6804 -0.6723,7.8692 -4.02282,9.567 -2.28438,1.1576 -6.3146027,1.5403 -9.3245402,0.8855 z m 24.0315302,-0.01 c -3.20292,-0.6955 -5.441265,-2.3503 -6.3063,-4.6624 -0.841005,-2.2478 -0.974812,-4.4667 -0.899437,-14.9176 l 0.0713,-9.8893 0.6048,-1.2905 c 0.83943,-1.79114 1.604183,-2.7264 2.971373,-3.63389 4.992142,-3.31357 13.70241,-2.09842 16.261717,2.2687 0.927023,1.58189 1.220738,3.21409 1.358393,7.54939 l 0.126832,3.9938 -4.39434,0 -4.394317,0 -0.07974,-4.5196 -0.07972,-4.5195 -0.631305,-0.543 c -1.130152,-0.97201 -2.427795,-0.5241 -2.846205,0.9825 -0.315652,1.1365 -0.314662,21.4661 0,22.6032 0.128475,0.4626 0.436343,0.9496 0.684158,1.0822 0.750937,0.4019 1.79982,0.1661 2.309107,-0.519 0.407993,-0.5489 0.475605,-1.0562 0.584753,-4.3875 l 0.12339,-3.7668 4.275,0 4.275,0 -0.02228,3.15 c -0.02347,3.312 -0.324653,5.3229 -0.994905,6.643 -0.972203,1.9148 -4.07592,3.9882 -6.720683,4.4898 -1.645447,0.3121 -4.560592,0.2594 -6.277635,-0.1135 z m 25.490566,0.1132 c -3.209738,-0.6443 -5.826848,-2.6536 -6.880388,-5.2825 -0.540068,-1.3478 -0.541103,-1.3676 -0.611528,-11.7892 -0.04016,-5.9432 0.0225,-11.0359 0.145215,-11.8249 0.77139,-4.95484 5.0877,-7.85052 11.115226,-7.45693 4.28265,0.27967 7.189875,2.03852 8.65341,5.2353 0.718987,1.57043 0.948847,4.72233 0.948847,13.01073 0,8.4823 -0.222457,11.3989 -1.001947,13.1358 -0.687668,1.5324 -2.369363,3.2798 -3.91545,4.0686 -1.924515,0.9818 -5.929628,1.4097 -8.453385,0.9031 z m 4.027747,-6.1426 c 0.464648,-0.6249 0.472253,-0.8132 0.472253,-11.7 0,-6.0857 -0.07753,-11.3421 -0.172328,-11.6808 -0.22995,-0.8219 -1.074892,-1.3593 -1.836697,-1.168 -1.264343,0.3173 -1.271138,0.3901 -1.203188,12.8982 0.05969,10.9885 0.07994,11.4708 0.500715,11.9356 0.606803,0.6703 1.625288,0.5407 2.239245,-0.285 z m 117.502426,6.0156 c -2.88846,-0.6991 -5.02459,-2.3499 -6.14293,-4.747 -0.86395,-1.8518 -1.0226,-4.3851 -0.92743,-14.8085 0.0817,-8.9479 0.11156,-9.5184 0.56203,-10.7355 0.988,-2.66943 2.90212,-4.47924 5.71034,-5.39904 2.03479,-0.6665 6.23374,-0.67235 8.24864,-0.0115 1.9957,0.65453 3.53252,1.71972 4.56853,3.1665 1.62716,2.27234 1.63638,2.34304 1.7346,13.29814 0.0944,10.5338 -0.0369,12.5807 -0.93317,14.5383 -1.4852,3.2441 -4.96487,5.0708 -9.58828,5.0335 -1.05188,-0.01 -2.50644,-0.1592 -3.23233,-0.3349 z m 4.21418,-5.5553 c 0.21609,-0.158 0.48616,-0.6896 0.60014,-1.1813 0.29262,-1.262 0.27637,-21.5998 -0.018,-22.66 -0.40137,-1.44525 -1.8209,-1.6932 -2.62982,-0.4594 -0.36151,0.5514 -0.40286,1.5213 -0.46762,10.9652 -0.0769,11.2093 -0.0117,12.5275 0.65203,13.1913 0.49736,0.4973 1.29591,0.5591 1.86336,0.1442 z m -200.677207,4.959 c -0.05967,-0.1563 -0.08231,-8.0299 -0.05031,-17.4967 l 0.05816,-17.21254 7.481251,-0.0593 7.48125,-0.0593 0,3.26553 0,3.26551 -2.75625,0 c -1.515938,0 -2.885626,0.085 -3.043733,0.1859 -0.21708,0.1378 -0.272183,1.0048 -0.225,3.5403 l 0.06248,3.3579 2.75625,0.063 2.75625,0.063 0,3.143 0,3.1431 -2.30625,0 c -3.660323,0 -3.339563,-0.4117 -3.267585,4.2433 l 0.06133,3.9662 3.2625,0.1125 3.2625,0.1125 0,3.2625 0,3.2625 -7.712168,0.059 c -6.04899,0.046 -7.73559,0 -7.820685,-0.225 z m 92.525154,0.1331 c -0.08514,-0.085 -0.1548,-7.9943 -0.1548,-17.5759 l 0,-17.42097 7.25625,0.0969 c 8.120813,0.10852 8.801415,0.21481 10.458608,1.6333 1.873147,1.60335 2.693497,4.56387 2.46852,8.90847 -0.187605,3.6229 -0.88272,4.8935 -3.01671,5.5138 -0.655425,0.1906 -1.189103,0.4658 -1.185975,0.6117 0.0031,0.1459 0.632857,0.5691 1.399365,0.9403 1.113142,0.5392 1.530877,0.8978 2.075535,1.7819 l 0.681907,1.1069 0,7.2181 0,7.2181 -3.9375,0 -3.9375,0 -0.118553,-7.0875 c -0.10305,-6.1601 -0.16983,-7.1828 -0.510345,-7.8155 -0.414,-0.7692 -1.036845,-1.0423 -2.100172,-0.9208 l -0.64593,0.074 -0.1125,7.875 -0.1125,7.875 -4.17645,0.061 c -2.297025,0.034 -4.246088,-0.01 -4.33125,-0.094 z m 10.253587,-21.2423 c 1.20087,-0.3335 1.52226,-0.9663 1.66932,-3.2872 0.14976,-2.3634 -0.148005,-3.687 -0.975982,-4.3383 -0.707288,-0.5563 -1.993478,-0.6187 -2.19015,-0.1061 -0.267683,0.6975 -0.151268,7.4144 0.133425,7.6991 0.325957,0.3259 0.308497,0.3255 1.363387,0.033 z m 14.272246,21.2431 c -0.08559,-0.086 -0.155633,-7.9856 -0.155633,-17.5557 l 0,-17.39994 3.674365,0 3.67436,0 1.32953,4.10625 c 2.48454,7.67349 3.58377,10.79789 3.80925,10.82709 0.14505,0.019 0.24606,-2.6312 0.28428,-7.4576 l 0.0593,-7.48685 3.653208,0.0618 3.65322,0.0618 0,17.43745 0,17.4376 -3.7368,0.062 c -2.822938,0.047 -3.789208,-0.01 -3.951048,-0.225 -0.11783,-0.1576 -0.8991,-2.6153 -1.73617,-5.4615 -2.59431,-8.8213 -2.84989,-9.5962 -3.13375,-9.5018 -0.19616,0.065 -0.29716,2.0885 -0.37973,7.6079 l -0.1125,7.5189 -3.38812,0.062 c -1.863475,0.034 -3.458162,-0.01 -3.543752,-0.094 z m 22.47428,-0.052 c -0.11297,-0.1829 4.26557,-33.99993 4.48277,-34.62199 0.0755,-0.21613 1.58589,-0.28125 6.52482,-0.28125 4.93994,0 6.4489,0.0651 6.5229,0.28125 0.14949,0.43661 5.06592,33.74119 5.06523,34.31249 l 0,0.5063 -4.37234,0 c -3.97048,0 -4.38286,-0.036 -4.4869,-0.3938 -0.063,-0.2166 -0.1845,-1.539 -0.27,-2.9388 -0.19168,-3.1383 -0.29028,-3.2755 -2.26438,-3.1498 -0.77776,0.05 -1.47987,0.1558 -1.56024,0.2362 -0.0804,0.08 -0.25126,1.3921 -0.37976,2.9149 -0.12849,1.5228 -0.33216,2.8953 -0.45256,3.05 -0.25821,0.3318 -8.60661,0.4118 -8.80891,0.085 z m 12.78608,-13.3033 c -0.0247,-1.1654 -0.93607,-11.2235 -1.11616,-12.3188 -0.13091,-0.7961 -0.44753,-0.9626 -0.64199,-0.3375 -0.21321,0.6854 -1.48284,11.3255 -1.48284,12.4269 0,0.5799 0.0716,1.126 0.15921,1.2136 0.0876,0.088 0.82163,0.1298 1.63125,0.094 l 1.47204,-0.066 -0.0216,-1.0125 z m 12.43401,13.35 c -0.0825,-0.082 -0.15,-7.98 -0.15,-17.55 l 0,-17.40003 6.46875,0.004 c 7.18112,0.004 8.85989,0.20895 10.62544,1.29519 1.10156,0.67772 2.31629,2.2884 2.72331,3.61104 0.31709,1.0304 0.53971,5.9657 0.33165,7.353 -0.20254,1.3508 -1.13935,2.4051 -2.71861,3.0596 -0.6768,0.2805 -1.23054,0.5917 -1.23054,0.6914 0,0.1 0.63492,0.4693 1.41095,0.8211 2.94388,1.3348 3.38445,2.5902 3.27499,9.3321 -0.0695,4.2825 -0.12587,4.8737 -0.55112,5.7827 -0.92335,1.9736 -2.15291,2.6212 -5.56056,2.9286 -2.63722,0.2378 -14.40036,0.2953 -14.62426,0.071 z m 11.25619,-6.2425 0.63131,-0.5425 0.0721,-3.6476 c 0.0476,-2.4071 -0.0164,-3.8612 -0.18806,-4.2757 -0.3082,-0.7441 -1.22409,-1.1773 -2.27612,-1.0767 l -0.75793,0.072 -0.061,4.7192 c -0.0335,2.5955 -0.0115,4.8483 0.0492,5.0062 0.19617,0.5112 1.83035,0.3462 2.53048,-0.2554 z m -0.38767,-15.1516 c 0.9578,-0.4825 1.08024,-0.8932 1.10904,-3.7194 0.0336,-3.2941 -0.55946,-4.3216 -2.40583,-4.1683 l -0.83423,0.069 -0.0618,3.7953 c -0.0425,2.608 0.0189,3.8925 0.19629,4.1062 0.34873,0.4202 1.05581,0.3908 1.99654,-0.083 z m 42.91128,21.3989 c -0.0851,-0.085 -0.1548,-6.3455 -0.1548,-13.9118 0,-10.6554 -0.0634,-13.8417 -0.28125,-14.1325 -0.22732,-0.3035 -0.75585,-0.3873 -2.75625,-0.4368 l -2.475,-0.061 0,-3.14998 0,-3.15 9.84375,-0.0586 9.84375,-0.0586 0,3.26486 0,3.26482 -2.44746,0 c -1.77404,0 -2.51645,0.083 -2.69827,0.3023 -0.17705,0.2133 -0.26786,4.3985 -0.30879,14.2312 l -0.058,13.9291 -4.17645,0.061 c -2.29703,0.034 -4.24609,-0.01 -4.33125,-0.094 z m 89.2827,-89.03194 c -0.55046,-0.38058 -1.77464,-0.64757 -2.75625,-0.60113 -2.50758,0.11864 -7.57706,0.0264 -8.71875,-0.15865 -0.7425,-0.12035 -1.9575,-0.49875 -2.7,-0.84091 -1.33722,-0.61621 -1.37873,-0.62048 -4.3875,-0.45286 -1.67063,0.0931 -5.265,0.19375 -7.9875,0.22372 -8.84178,0.0974 -19.00611,0.49666 -20.04476,0.78748 -0.64015,0.17923 -1.3725,0.21559 -2.06154,0.10239 -0.58779,-0.0965 -2.58745,-0.18567 -4.4437,-0.198 -3.09828,-0.0207 -3.45803,-0.0664 -4.3875,-0.55845 l -1.0125,-0.53599 -6.62319,0.15678 c -3.66917,0.0869 -6.81141,0.25751 -7.04518,0.38263 -0.27162,0.14535 -3.0029,0.18104 -7.66431,0.10013 -3.98329,-0.0691 -11.19107,-0.11574 -16.01732,-0.10355 -8.76976,0.0223 -12.24275,0.016 -13.725,-0.0243 -0.43313,-0.0117 -0.96469,-0.0218 -1.18125,-0.0223 -0.21657,0 -1.55813,-0.0932 -2.98125,-0.20612 -8.13591,-0.6457 -8.3964,-0.65421 -9.85579,-0.32229 -1.25966,0.28649 -1.49407,0.28337 -2.09594,-0.0278 -0.54675,-0.28274 -1.18553,-0.32623 -3.30672,-0.22514 -1.44598,0.0689 -3.18593,0.11761 -3.86655,0.1082 -8.676,-0.11997 -13.94067,-0.17212 -14.4,-0.14262 -0.82632,0.0531 -16.3992,0.0237 -27.7875,-0.0525 -9.085028,-0.0607 -15.003228,-0.22579 -19.516075,-0.5443 -1.208903,-0.0853 -1.963733,-0.0293 -2.469488,0.1834 -0.468922,0.19716 -1.158615,0.26185 -1.936057,0.18162 -1.360801,-0.14045 -5.039078,0.23404 -7.240883,0.73719 -3.066165,0.70067 -19.262138,0.21375 -27.225,-0.81853 -1.175626,-0.15242 -3.555001,-0.26908 -5.287501,-0.25925 -3.005167,0.0171 -12.29022,0.56799 -14.585625,0.86551 -0.827662,0.10726 -1.415745,0.02 -2.475,-0.367 -1.370362,-0.50073 -1.478655,-0.50521 -7.914375,-0.32771 -3.58875,0.099 -7.081875,0.21935 -7.7625,0.26748 -3.507683,0.24806 -10.1503127,0.39647 -11.1341027,0.24876 -0.6168825,-0.0926 -5.8818823,-0.15898 -11.7000003,-0.14744 -6.966383,0.0137 -10.770458,-0.0601 -11.140898,-0.21656 -0.679207,-0.28683 -5.036377,-0.7023 -10.2375,-0.97614 -4.866214,-0.25621 -5.253874,-0.25353 -8.775,0.0609 -2.362248,0.21092 -7.168806,0.36574 -13.05,0.42032 -0.37125,0.003 -0.928125,0.0205 -1.2375,0.0378 -2.388571,0.13403 -3.608888,0.0173 -5.423776,-0.5187 -0.581452,-0.17174 -0.942444,-0.16942 -1.274294,0.008 -0.293452,0.15705 -3.045143,0.29264 -7.513725,0.37022 -3.877888,0.0673 -8.01258,0.21901 -9.188205,0.33709 -1.175625,0.11808 -3.3525,0.20577 -4.8375,0.19485 -2.286808,-0.0169 -2.854949,0.0517 -3.712501,0.44796 -1.304959,0.60291 -1.585289,0.59406 -2.940916,-0.0929 -0.631202,-0.31986 -1.245832,-0.49514 -1.398769,-0.39891 -0.395606,0.24894 -2.679989,0.55233 -4.885319,0.64881 -1.05187,0.046 -2.41875,0.1623 -3.0375,0.25842 -1.14006,0.17707 -6.15983,-0.003 -7.95407,-0.28533 -0.62176,-0.0978 -1.16477,-0.0547 -1.48795,0.11829 -0.48741,0.26086 -1.09013,0.24576 -4.28298,-0.10728 -0.71907,-0.0795 -1.70207,0.0196 -2.72432,0.27481 -1.31731,0.32884 -2.07113,0.37062 -4.275,0.23688 -1.47162,-0.0893 -2.90349,-0.15511 -3.18193,-0.14625 -0.27844,0.009 -2.40469,0.011 -4.725,0.005 -2.32031,-0.006 -4.67437,-0.009 -5.23125,-0.007 -2.06055,0.009 -3.60273,-0.007 -8.4375,-0.0889 -4.51147,-0.0766 -5.5586,-0.17822 -7.9875,-0.77546 l -0.7875,-0.19363 -0.059,-8.34228 c -0.047,-6.65735 4.5e-4,-8.39167 0.23566,-8.58679 0.16203,-0.13448 1.90981,-0.34884 3.88396,-0.47635 1.97414,-0.1275 5.15872,-0.33644 7.07684,-0.46431 1.91813,-0.12786 4.75313,-0.20623 6.3,-0.17417 1.54688,0.0321 4.00529,-0.0324 5.46315,-0.14326 1.96982,-0.1498 3.05074,-0.12609 4.20832,0.0923 1.2326,0.23258 1.97069,0.23949 3.53685,0.0331 3.24122,-0.42712 8.43203,-0.48753 11.99168,-0.13952 7.165,0.70045 9.57109,0.77413 21.937504,0.67196 6.930001,-0.0573 13.156876,-0.14139 13.837501,-0.18695 1.358509,-0.0909 7.172377,-0.70391 10.0125,-1.05561 3.174097,-0.39305 23.904655,-0.0732 27.45,0.42352 3.53671,0.49554 5.840836,0.55793 7.10901,0.19253 2.38446,-0.68704 5.999288,-1.30419 7.867755,-1.34327 1.044023,-0.0218 6.758236,-0.0339 12.698236,-0.0268 10.1493898,0.0122 10.8950398,0.0403 12.377565,0.46807 0.867645,0.25035 1.97991,0.67086 2.47167,0.93442 0.75942,0.40703 1.267447,0.47844 3.372435,0.47414 1.363072,-0.003 4.19958,-0.15772 6.30333,-0.34427 7.201035,-0.63859 13.990275,-1.10117 15.525,-1.05781 0.495,0.014 2.3175,0.14168 4.05,0.28377 3.981893,0.32654 5.469098,0.33111 8.55,0.0263 4.793491,-0.4743 9.481118,-0.69156 12.375001,-0.57357 1.60875,0.0656 6.013125,0.16148 9.7875,0.21307 3.774375,0.0516 7.318125,0.20079 7.875,0.33156 2.090655,0.49095 4.499167,0.67939 8.10621,0.63421 2.045318,-0.0256 3.818835,0.0153 3.941168,0.0909 0.122355,0.0756 0.686092,0.0508 1.2528,-0.055 0.990405,-0.18502 6.173417,-0.34781 18.424825,-0.57866 11.41029,-0.21501 13.36698,-0.20009 14.10948,0.10746 0.53653,0.22223 1.53672,0.25468 4.15482,0.1348 8.87328,-0.40633 15.25572,-0.29108 19.0857,0.34463 2.38736,0.39627 20.59339,0.86387 25.0875,0.64436 1.85625,-0.0907 9.88022,-0.16599 17.83107,-0.16738 7.95084,-0.002 14.5419,-0.0556 14.64684,-0.1204 0.10492,-0.0648 4.53468,-0.007 9.84391,0.12924 13.49528,0.34549 11.95792,0.35912 18.42818,-0.16357 0.99,-0.08 5.445,-0.17476 9.9,-0.2106 8.32131,-0.067 21.31337,-0.2761 23.5125,-0.37848 0.68062,-0.0317 2.58606,0.17476 4.23427,0.45878 2.69287,0.46402 3.42306,0.50146 7.2,0.3692 5.10633,-0.17881 6.21714,-0.23825 10.39073,-0.55615 3.59093,-0.27354 22.11237,-0.35937 22.52491,-0.1044 0.14211,0.0878 3.89115,0.17687 8.33123,0.19788 5.04304,0.0239 8.15749,0.12285 8.2984,0.26377 0.14538,0.14537 0.20466,3.50082 0.16677,9.43677 l -0.0588,9.21118 -3.6,0.0235 c -4.22156,0.0275 -8.86118,0.34673 -9.32875,0.64181 -0.55395,0.34961 -18.07625,0.72558 -25.22455,0.54126 -1.86482,-0.0481 -2.55705,0.12533 -2.81639,0.70558 -0.18229,0.4079 -0.25576,0.42453 -0.65531,0.14828 z M 125.63691,898.69227 c -0.92394,-0.35541 -1.89411,-0.5515 -2.72877,-0.5515 -1.78313,0 -2.79396,-0.48764 -4.34239,-2.09486 -1.62752,-1.68928 -3.51801,-5.30896 -3.52942,-6.75772 -0.002,-0.22828 -0.21991,-1.1283 -0.48469,-2.00002 -0.41781,-1.37552 -0.44755,-1.73178 -0.225,-2.69586 0.14103,-0.61097 0.25641,-1.46822 0.25641,-1.90496 0,-0.51199 0.19363,-1.02423 0.54501,-1.44183 0.29977,-0.35626 0.75596,-1.23149 1.01379,-1.94499 0.2578,-0.71349 0.58677,-1.49976 0.73102,-1.74726 0.14427,-0.2475 0.51984,-0.9452 0.83464,-1.55045 0.41312,-0.79434 0.79357,-1.19225 1.36768,-1.43046 0.43745,-0.18151 0.86693,-0.45421 0.95439,-0.60597 0.18582,-0.32245 1.24152,-1.03779 3.45042,-2.33802 1.51546,-0.89206 1.70991,-0.9445 4.46451,-1.20411 2.76456,-0.26055 2.96719,-0.24988 5.05305,0.26557 1.19514,0.29536 2.42611,0.72749 2.73549,0.96032 0.30937,0.23283 1.03491,0.71208 1.6123,1.06502 1.06328,0.64989 3.31099,3.15128 3.9431,4.3881 0.18972,0.37125 0.63221,0.97875 0.98325,1.35 1.00427,1.06203 1.56823,2.59961 1.71468,4.67483 0.12027,1.70426 0.0817,1.9579 -0.46104,3.02888 -0.32576,0.64285 -0.59286,1.50127 -0.59355,1.90757 -0.002,1.21059 -0.40122,2.28902 -1.19498,3.22844 -0.41143,0.4869 -0.98082,1.37261 -1.26533,1.96821 -0.34241,0.71678 -0.82568,1.27762 -1.42936,1.6587 -0.50164,0.31666 -1.37545,1.05502 -1.94182,1.64081 -1.19335,1.23426 -1.35351,1.32692 -3.65505,2.1146 -2.40325,0.82248 -5.69577,0.82964 -7.80834,0.0169 z m -78.418931,-1.57171 c -0.730147,-0.30317 -1.471252,-0.75636 -1.64691,-1.00713 -0.175635,-0.25078 -0.843862,-0.71732 -1.484932,-1.03675 -1.089158,-0.54272 -3.528091,-2.66081 -3.528091,-3.06394 0,-0.0995 -0.275085,-0.60921 -0.611302,-1.13269 -0.909405,-1.41588 -1.387395,-2.23664 -1.668128,-2.86428 -0.138375,-0.30937 -0.365557,-0.80552 -0.504832,-1.10252 -0.249885,-0.53291 -0.254183,-0.98242 -0.04534,-4.74748 0.147038,-2.65077 0.31995,-3.69407 0.69417,-4.18837 0.176625,-0.23326 0.324338,-0.58653 0.328275,-0.78503 0.0038,-0.19849 0.242438,-0.61474 0.529988,-0.92502 0.28755,-0.31027 0.79119,-1.0221 1.119217,-1.58181 0.328005,-0.55971 1.100475,-1.4709 1.716593,-2.02482 1.175445,-1.05685 3.646755,-2.41646 4.40757,-2.4249 0.245453,-0.003 0.901913,-0.21939 1.458788,-0.48154 0.844852,-0.39769 1.414282,-0.47399 3.43908,-0.4608 2.511382,0.0164 4.578907,0.4896 6.12342,1.40159 0.37125,0.2192 1.193895,0.46755 1.828125,0.55188 0.98937,0.13154 1.366312,0.34256 2.654505,1.48606 0.82575,0.73303 1.592932,1.33276 1.704825,1.33276 0.11187,0 0.50796,0.44262 0.880177,0.98361 0.592583,0.8613 0.721035,1.34393 1.03293,3.88125 0.358628,2.91724 0.440033,6.2766 0.18747,7.73514 -0.216,1.24729 -0.844312,2.29068 -2.069595,3.43679 -0.625162,0.58477 -1.216935,1.0636 -1.315057,1.06409 -0.0981,0 -0.91386,0.70569 -1.812758,1.56717 -1.08567,1.04045 -1.920622,1.64338 -2.48697,1.79588 -0.48429,0.13039 -1.142482,0.55701 -1.523655,0.98755 -0.523057,0.59078 -0.917415,0.79477 -1.78803,0.92482 -0.61434,0.0918 -1.696095,0.41026 -2.403945,0.70778 -1.708942,0.71829 -3.438427,0.70857 -5.21559,-0.0293 z M 330.47935,762.02999 c -0.0791,-0.12802 -0.18984,-2.13266 -0.24602,-4.45475 -0.0562,-2.32209 -0.16756,-4.67759 -0.24752,-5.23447 -0.08,-0.55687 -0.17102,-5.265 -0.20234,-10.4625 -0.0329,-5.46259 -0.16536,-10.25698 -0.31388,-11.3625 -0.1413,-1.05187 -0.25211,-3.88687 -0.24624,-6.3 0.006,-2.41312 -0.0886,-6.10874 -0.20988,-8.21249 -0.14537,-2.52122 -0.14386,-5.35885 0.005,-8.325 0.27603,-5.52038 0.26327,-5.03924 0.25682,-9.675 -0.007,-5.31772 0.10219,-8.20827 0.34121,-9 0.11239,-0.37229 0.12834,-1.53273 0.0356,-2.5875 -0.31362,-3.56614 -0.67765,-9.33219 -0.66053,-10.4625 0.009,-0.61875 0.004,-1.37813 -0.0119,-1.6875 -0.10938,-2.11984 0.0678,-10.63215 0.28338,-13.6125 0.27714,-3.83196 0.007,-14.01318 -0.48609,-18.3375 -0.14933,-1.30887 -0.20927,-5.23393 -0.15459,-10.125 0.0733,-6.55713 0.15428,-8.18897 0.45236,-9.1125 0.29536,-0.91508 0.34081,-1.77579 0.24352,-4.6125 -0.0658,-1.91813 -0.11808,-3.8925 -0.11619,-4.3875 0.002,-0.495 -0.15147,-2.115 -0.34079,-3.6 -0.85909,-6.73866 -0.88369,-8.66104 -0.20009,-15.6375 0.52909,-5.3996 0.475,-7.83324 -0.33003,-14.85 -0.6136,-5.34825 -0.76541,-9.12225 -0.70587,-17.55 0.0345,-4.88813 0.13819,-8.96448 0.23038,-9.05855 0.0922,-0.0941 4.819,-0.1447 10.50405,-0.1125 l 10.33646,0.0585 0.023,3.86691 c 0.0139,2.34189 0.13424,4.26425 0.30508,4.87443 0.21015,0.75055 0.21978,1.19891 0.0378,1.75808 -0.15959,0.49032 -0.23933,3.75419 -0.22997,9.41308 0.008,4.76437 -0.005,9.21937 -0.0278,9.9 -0.0232,0.68062 -0.0261,4.42687 -0.007,8.325 0.10055,20.07855 0.40865,28.55297 1.27202,34.9875 0.19926,1.485 0.44878,4.1175 0.55451,5.85 0.10573,1.7325 0.25528,3.77354 0.33232,4.53564 0.0859,0.8502 0.0445,1.56422 -0.10725,1.84779 -0.1758,0.32845 -0.18223,1.03405 -0.0223,2.43936 0.22181,1.94809 0.20502,2.15642 -0.47646,5.91471 -0.43535,2.40102 -0.92407,4.16686 -1.25881,4.54837 -0.21782,0.24822 -0.29036,0.60937 -0.20337,1.0125 0.0743,0.34463 0.18794,1.89225 0.25245,3.43913 0.0645,1.54687 0.22317,4.33125 0.35266,6.1875 0.12947,1.85625 0.25967,3.9825 0.28931,4.725 0.0297,0.7425 0.14242,1.70437 0.25062,2.1375 0.15973,0.63947 0.28454,3.08524 0.31577,6.1875 0.002,0.2475 -0.0804,2.01937 -0.1841,3.9375 -0.18065,3.33994 -0.34427,4.60451 -0.9171,7.0875 -0.27384,1.1871 -0.29412,2.65491 -0.10246,7.425 0.0646,1.60875 0.106,3.05156 0.0919,3.20625 -0.16025,1.75801 0.0474,4.09335 0.68994,7.76002 0.1478,0.84341 0.2115,2.3411 0.14353,3.375 -0.19704,2.99716 -0.0409,6.07259 0.34742,6.84441 0.14202,0.28226 0.17912,0.84771 0.0886,1.35 -0.34328,1.90449 -0.56738,14.78682 -0.3118,17.92372 0.15565,1.91059 0.18601,4.16606 0.0788,5.85 -0.21141,3.31878 -0.20997,3.19804 -0.13156,11.19753 0.0604,6.1601 0.043,6.47118 -0.41029,7.3598 -0.6975,1.36719 -0.62955,2.20741 0.22035,2.72423 0.52231,0.31763 0.61958,0.46969 0.39375,0.61544 -0.44937,0.29003 -19.68876,0.38235 -19.86615,0.0953 z m -516.7407,-2.65495 c -0.32202,-0.96944 -0.44279,-4.01666 -0.43261,-10.91552 0.002,-1.11453 -0.12101,-3.70037 -0.39221,-8.26875 -0.12913,-2.17514 -0.31585,-3.52973 -0.56024,-4.06433 -0.29506,-0.64543 -0.32179,-0.9965 -0.13705,-1.8 0.27724,-1.2058 0.0544,-9.62892 -0.28535,-10.78567 -0.13774,-0.46894 -0.17761,-1.87967 -0.0986,-3.4875 0.26295,-5.34876 0.17369,-8.59274 -0.35908,-13.04999 -0.13312,-1.11375 -0.22791,-2.25282 -0.21065,-2.53125 0.0486,-0.78323 0.0211,-1.94463 -0.12092,-5.11875 -0.11392,-2.54534 -0.14029,-6.19367 -0.0829,-11.475 0.009,-0.80438 0.01,-1.79157 0.002,-2.19375 -0.007,-0.40219 0.079,-2.0475 0.19201,-3.65625 0.1152,-1.63985 0.12155,-3.38621 0.0145,-3.97472 -0.11023,-0.60574 -0.10162,-1.60492 0.0203,-2.3625 0.11624,-0.72202 0.15203,-2.32528 0.0795,-3.56278 -0.0725,-1.2375 -0.16646,-5.54063 -0.20882,-9.5625 -0.0424,-4.02188 -0.18911,-8.78063 -0.32613,-10.575 -0.26812,-3.51149 -0.33909,-5.337 -0.5237,-13.47087 -0.0668,-2.94108 -0.0292,-5.49546 0.0852,-5.79638 0.12937,-0.34029 0.11184,-0.93962 -0.0477,-1.6308 -0.30376,-1.31598 -0.1557,-2.01415 0.62354,-2.94021 0.47814,-0.56824 0.55812,-0.83279 0.43039,-1.4236 -0.27789,-1.28531 -0.47698,-6.09457 -0.29464,-7.11749 0.0972,-0.54551 0.0739,-2.11489 -0.0519,-3.4875 -0.29326,-3.20047 -0.47145,-6.86542 -0.5808,-11.94565 -0.0479,-2.2275 -0.19193,-6.02438 -0.31998,-8.4375 -0.12804,-2.41313 -0.21347,-9.45 -0.18983,-15.6375 0.0236,-6.1875 0.0376,-11.60438 0.031,-12.0375 -0.0507,-3.33777 -0.051,-5.78489 -0.001,-8.8875 l 0.0579,-3.6 9.62198,-0.0587 c 7.9198,-0.0483 9.64264,-0.005 9.73876,0.24567 0.0642,0.1674 -0.0634,1.05442 -0.28364,1.97118 -0.31673,1.31839 -0.4079,2.7486 -0.43611,6.84183 -0.0196,2.84625 -0.17318,7.65562 -0.34124,10.6875 -0.40279,7.26655 -0.34957,13.93506 0.13171,16.50348 0.20211,1.07865 0.40391,2.89442 0.44843,4.03508 0.35676,9.1402 0.37952,11.42325 0.14848,14.89894 -0.3381,5.08653 -0.51638,13.14306 -0.56011,25.3125 -0.0308,8.55531 -0.0984,10.43304 -0.46455,12.90217 -0.40311,2.71807 -0.41272,3.39282 -0.16185,11.3625 0.30971,9.83914 0.39115,11.74196 0.66597,15.56033 0.11134,1.54687 0.16743,4.58437 0.12465,6.75 -0.0428,2.16562 -0.1163,5.9625 -0.16337,8.4375 -0.0471,2.475 -0.1936,5.715 -0.32563,7.2 -0.16132,1.81446 -0.16915,3.54863 -0.0239,5.2875 0.5569,6.66641 0.86855,19.8476 0.56655,23.96249 -0.7598,10.35288 -0.9252,15.35351 -0.58417,17.6625 0.51176,3.46505 0.90498,8.98475 0.84952,11.925 l -0.0573,3.0375 -7.46281,0.0593 -7.46281,0.0593 -0.28127,-0.84676 z m 173.156896,-369.0511 c -0.495,-0.0883 -1.456875,-0.33327 -2.1375,-0.54443 -0.680625,-0.21115 -1.548428,-0.48061 -1.928475,-0.59882 -1.07343,-0.33387 -9.282713,-0.25221 -13.034026,0.12964 -1.85625,0.18896 -4.08375,0.33588 -4.95,0.32649 -0.86625,-0.009 -2.89125,0.11413 -4.5,0.27447 -1.801591,0.17957 -4.739737,0.25686 -7.65,0.20124 -6.44105,-0.12308 -8.95126,-0.12022 -26.325,0.03 -9.82818,0.085 -15.779797,0.049 -17.1,-0.1034 -2.361517,-0.27256 -5.826943,-0.34717 -22.050005,-0.47477 -6.55875,-0.0516 -13.24125,-0.16343 -14.85,-0.24856 -1.60875,-0.0851 -4.24125,-0.0721 -5.85,0.0289 -1.60875,0.101 -3.5325,0.10856 -4.275,0.0168 -2.12887,-0.2631 -10.8501,-0.25484 -12.7125,0.012 -0.92812,0.133 -3.02906,0.30735 -4.66875,0.38746 l -2.98125,0.14564 0,-9.20989 0,-9.20989 6.91875,-0.13857 c 4.04553,-0.081 8.33956,-0.0415 10.34008,0.0951 3.39392,0.23181 4.30047,0.20853 9.29117,-0.23869 3.8062,-0.34106 17.84564,-0.33731 18.48515,0.005 0.37673,0.20162 1.71241,0.22891 5.24146,0.10708 9.706889,-0.3351 11.167533,-0.37494 16.885895,-0.46063 3.2175,-0.0482 6.15375,-0.0913 6.525,-0.0957 0.37125,-0.004 2.0925,0.0925 3.825,0.21538 3.679911,0.26093 16.536604,0.60867 19.8,0.53554 1.2375,-0.0277 2.95875,-0.16374 3.825,-0.30224 2.753021,-0.44016 4.781005,-0.52432 6.292361,-0.26113 1.221741,0.21276 1.703109,0.19479 2.867866,-0.10703 0.902034,-0.23374 1.762367,-0.31084 2.419733,-0.21685 0.561022,0.0802 3.005503,0.17874 5.432182,0.21895 2.426679,0.0402 4.603554,0.1713 4.8375,0.29132 0.233946,0.12002 2.782391,0.23798 5.663178,0.26214 3.723593,0.0312 5.486806,0.13175 6.098986,0.34775 0.66744,0.23548 1.28601,0.25473 2.74968,0.0856 1.03869,-0.12005 2.496015,-0.25509 3.238515,-0.3001 0.7425,-0.045 1.906875,-0.20976 2.5875,-0.36612 1.458495,-0.33506 3.096315,-0.33876 9.8999998,-0.0224 2.784375,0.12948 12.3061722,0.30649 21.1595182,0.39335 l 16.09704,0.15793 1.531012,-0.6125 c 1.355468,-0.54228 1.715558,-0.59587 3.140483,-0.46737 2.104245,0.18976 2.388082,0.18707 4.646947,-0.044 1.051875,-0.10761 2.317501,-0.36151 2.812501,-0.56424 0.495,-0.20272 1.153125,-0.36473 1.4625,-0.36002 0.309375,0.005 1.3725,-0.12011 2.3625,-0.27738 2.17521,-0.34555 4.039402,-0.33775 8.775,0.0367 1.98,0.15657 4.75245,0.26729 6.160995,0.24604 1.408545,-0.0213 2.9106,0.0579 3.337897,0.17587 0.49527,0.13675 0.983858,0.13584 1.34775,-0.003 0.428355,-0.16286 0.890708,-0.10348 1.852088,0.23785 0.704677,0.25019 1.60857,0.45489 2.008665,0.45489 0.400095,0 1.051492,0.17146 1.447537,0.38103 0.634365,0.33567 1.777905,0.38943 9.607568,0.4516 5.282775,0.0419 9.343805,0.16988 10.012505,0.31541 0.82649,0.17987 2.11007,0.17147 4.8375,-0.0317 4.278508,-0.31865 5.726128,-0.34384 6.552538,-0.114 0.42396,0.11791 1.02557,-0.021 2.1375,-0.49346 1.45687,-0.61908 1.69816,-0.65343 4.12233,-0.58684 2.84616,0.0782 4.0831,0.39362 5.61524,1.43193 0.97951,0.66382 1.02159,0.67075 3.9375,0.64873 4.26332,-0.0322 5.26426,-0.18761 5.60277,-0.87003 0.21161,-0.42657 0.61096,-0.63994 1.72811,-0.92329 2.82836,-0.71738 24.5878,-0.45222 26.69213,0.32527 0.71217,0.26312 1.10165,0.28796 1.68892,0.10772 0.79085,-0.24271 4.67687,0.16725 6.61046,0.69738 0.55723,0.15278 4.93348,0.29756 11.49084,0.38015 9.48658,0.11949 10.66428,0.0954 11.29509,-0.23077 0.38731,-0.2003 1.16896,-0.36417 1.737,-0.36417 0.71817,0 1.24137,-0.15422 1.71747,-0.50625 0.68152,-0.50392 0.72366,-0.50625 9.15963,-0.50625 6.09732,0 8.88528,0.0828 9.93747,0.29501 0.80437,0.16227 3.69,0.38964 6.4125,0.50528 5.42182,0.2303 6.94264,0.0843 7.56171,-0.72598 0.22767,-0.29801 0.72787,-0.52454 1.35,-0.61137 1.74838,-0.24403 12.82378,0.0902 13.81329,0.41686 0.495,0.16342 2.26687,0.38019 3.9375,0.48172 4.08224,0.2481 5.97798,0.49879 7.25893,0.95993 0.85119,0.30642 1.24434,0.3377 1.9125,0.15214 0.4626,-0.12847 1.3261,-0.23415 1.91893,-0.23484 0.71431,-9e-4 1.28349,-0.15071 1.6875,-0.44436 0.3353,-0.24371 1.21714,-0.55742 1.95964,-0.69713 1.94044,-0.36513 10.33886,-0.61688 13.4437,-0.40298 1.45402,0.10016 2.87152,0.0962 3.15,-0.009 0.43815,-0.16526 10.96711,-0.3721 12.2063,-0.2398 0.2475,0.0264 0.75375,0.0423 1.125,0.0353 4.82177,-0.0912 9.70704,0.24853 12.43449,0.86479 1.22512,0.27681 6.15062,0.28259 6.87269,0.008 0.30195,-0.11479 2.46008,-0.2104 4.7959,-0.21245 2.33581,-0.002 4.62661,-0.007 5.09067,-0.0111 l 0.84375,-0.007 0,8.64831 0,8.64832 -0.84375,0.22198 c -3.68613,0.9698 -9.3218,1.49638 -13.33125,1.24565 -1.31108,-0.082 -3.31378,-0.0405 -4.5,0.0933 -1.17563,0.13255 -5.42813,0.30577 -9.45,0.38493 -6.45971,0.12715 -7.46993,0.0997 -8.6625,-0.23512 -0.7425,-0.20848 -2.31188,-0.46972 -3.4875,-0.58054 -1.17563,-0.11081 -2.72408,-0.26739 -3.44102,-0.34795 -0.7276,-0.0818 -1.8708,-0.0333 -2.5875,0.10962 -1.79858,0.35876 -15.58426,0.71734 -17.14648,0.44601 -2.27979,-0.39597 -5.92412,-0.47689 -9.67138,-0.21475 -10.48844,0.73371 -16.46658,0.70364 -18.78044,-0.0944 -1.33546,-0.46064 -2.8671,-0.48739 -8.67318,-0.1515 -5.97591,0.34571 -33.14349,0.57903 -35.4375,0.30435 -0.99,-0.11855 -2.4235,-0.3437 -3.18558,-0.50035 -1.14745,-0.23586 -1.51355,-0.23179 -2.13041,0.0237 -0.40968,0.16969 -1.50743,0.31692 -2.43945,0.32717 -1.10162,0.0121 -2.04885,0.16508 -2.70706,0.43713 -0.95153,0.39329 -2.0964,0.42397 -19.0125,0.5094 -22.00863,0.11117 -24.79406,0.0939 -27.77648,-0.17258 -1.57561,-0.14076 -3.59167,-0.12552 -6.11023,0.0462 -2.96872,0.20241 -4.17697,0.19558 -5.74853,-0.0325 -2.49752,-0.36249 -2.19085,-0.35811 -7.95226,-0.11342 -5.729108,0.24332 -11.291398,0.17577 -12.333538,-0.1498 -0.44973,-0.14049 -3.890427,-0.24078 -8.662497,-0.25251 -6.707678,-0.0165 -8.139781,0.038 -9.378968,0.35651 -1.712093,0.44011 -6.882165,0.52318 -8.800538,0.14141 -0.666585,-0.13266 -4.603837,-0.28915 -8.749462,-0.34777 -4.145625,-0.0586 -9.66375,-0.14496 -12.262501,-0.19188 -9.54333,-0.17229 -12.864937,-0.15522 -14.625,0.0752 -0.99,0.12957 -7.014375,0.30066 -13.3875,0.38018 -15.928965,0.19877 -19.2272402,0.28997 -19.9127477,0.55061 -0.6609825,0.2513 -6.0282223,0.25713 -7.4247523,0.008 z"
         id="path4353"
         inkscape:connector-curvature="0" />
    </g>
    <text
       xml:space="preserve"
       style="font-style:normal;font-variant:normal;font-weight:normal;font-stretch:normal;font-size:12.78276634px;font-family:Big_Bottom_Cartoon;-inkscape-font-specification:Big_Bottom_Cartoon;text-align:center;text-anchor:middle;opacity:1;fill:#000000;fill-opacity:1;stroke:none;stroke-width:1;stroke-linecap:round;stroke-miterlimit:4;stroke-dasharray:none;stroke-dashoffset:0;stroke-opacity:1"
       x="859.86554"
       y="-44.224392"
       id="text4225"
       transform="matrix(0,1,-1,0,0,0)"><tspan
         sodipodi:role="line"
         id="tspan4227"
         x="859.86554"
         y="-44.224392">escornabot.com @escornabot</tspan></text>
  </g>
  <g
     inkscape:groupmode="layer"
     id="layer2"
     inkscape:label="celdas" />
</svg>
